<?xml version="1.0" standalone="no"?>
<!DOCTYPE svg PUBLIC "-//W3C//DTD SVG 1.1//EN" "http://www.w3.org/Graphics/SVG/1.1/DTD/svg11.dtd" >
<svg>
<metadata>
Created by FontForge 20090622 at Sun Nov 17 01:40:31 2019
 By deploy user
DmitriyChirkov 2018 (C)
</metadata>
<defs>
<font id="Emitha-Script" horiz-adv-x="198" >
  <font-face 
    font-family="Emitha Script"
    font-weight="400"
    font-stretch="normal"
    units-per-em="1000"
    panose-1="0 0 5 0 0 0 0 0 0 0"
    ascent="800"
    descent="-200"
    x-height="349"
    cap-height="701"
    bbox="-165.2 -300 900 900"
    underline-thickness="50"
    underline-position="-50"
    unicode-range="U+0020-U+25CA"
  />
<missing-glyph horiz-adv-x="600" 
d="M492 900v-1200h-380v1200h380zM400 820h-198v-40h78v-44h-80v-40h200v40h-80v44h80v40zM320 665h-120v-125h200v41h-80v84zM280 624v-43h-40v43h40zM400 508h-200v-40h80v-44h-80v-40h120v84h80v40zM400 436h-40v-80h-160v-40h200v120zM400 289h-120v-67h40v28h40v-57
h-120v96h-40v-135h200v135zM400 82h-200v-136h200v136zM360 42v-56h-120v56h120zM400 -82h-200v-39h84l-84 -57v-39h200v39h-123l84 57h39v39z" />
    <glyph glyph-name="f_f" unicode="ff" horiz-adv-x="234" 
d="M102 26q-8 3 -7 9q1 21 5 56q5 43 28 173l6 33q2 12 3 17q-6 3 -16 1q-26 -2 -76 -2h-4q-7 0 -9 -7q-2 -5 -4 -19q-12 -61 -22 -138q-1 -13 -4.5 -37.5t-5.5 -36.5v-1q-1 -2 -1 -3q-2 -2 -3 -2q-4 0 -10 2q-2 2 -2 5v30l6 46q2 11 5 33.5t5 34.5q3 13 7 39.5t7 39.5
q0 3 2 9q0 5 -5 6q-11 3 -13 4q-1 0 -1 1l-1 2q0 2 3 2h16q4 0 4 4l3 10q30 113 34 126q19 59 44 106q3 6 11 18q4 8 12 16q9 9 14 6q14 -4 17 -15q2 -16 1 -24q0 -20 -7 -48q-6 -29 -26 -78q-3 -6 -4 -7h-2l-2 1q0 5 1 7l13 43q11 34 16 73q1 13 0 26q0 5 -1 8q0 2 -2 4
q-3 1 -7 -5q-9 -9 -16 -25q-14 -27 -34 -85q-19 -57 -41 -147q-2 -8 -2 -12q5 -1 30 -1q10 1 31 2.5t31 2.5h3q8 1 10 8l9 51q16 88 49 182q11 30 25 55q7 11 14 19q5 7 11 9q8 5 17 0q15 -7 17 -25q1 -24 -7 -52q-1 -6 -12 -38q-15 -41 -36 -85l-18 -33l-5 -5q-2 0 -3 1
q-2 0 -2 3q0 1 1.5 4.5t2.5 5.5q35 71 57 143q10 31 9 56q0 10 -1 14q-3 6 -8 3q-4 -2 -9 -9q-5 -6 -13 -20q-22 -46 -36 -96q-32 -118 -42 -174q0 -2 -1 -5t-1 -4q0 -5 5 -5q11 1 36.5 2.5t39.5 3.5q8 2 17 0q8 0 8 -8q0 -1 0.5 -2.5t0.5 -2.5q-16 -4 -47 -6q-31 0 -47 -1
q-14 -1 -16 -2.5t-4 -14.5q-12 -54 -30 -164q-5 -28 -11 -84q-1 -4 -2.5 -12t-1.5 -11q-1 -4 -6 -4z" />
    <glyph glyph-name=".notdef" horiz-adv-x="600" 
d="M492 900v-1200h-380v1200h380zM400 820h-198v-40h78v-44h-80v-40h200v40h-80v44h80v40zM320 665h-120v-125h200v41h-80v84zM280 624v-43h-40v43h40zM400 508h-200v-40h80v-44h-80v-40h120v84h80v40zM400 436h-40v-80h-160v-40h200v120zM400 289h-120v-67h40v28h40v-57
h-120v96h-40v-135h200v135zM400 82h-200v-136h200v136zM360 42v-56h-120v56h120zM400 -82h-200v-39h84l-84 -57v-39h200v39h-123l84 57h39v39z" />
    <glyph glyph-name=".null" horiz-adv-x="0" 
 />
    <glyph glyph-name="nonmarkingreturn" horiz-adv-x="333" 
 />
    <glyph glyph-name="space" unicode=" " horiz-adv-x="200" 
 />
    <glyph glyph-name="exclam" unicode="!" horiz-adv-x="251" 
d="M84 68q-3 -1 -10 1q-8 2 -7 10l3 29q3 25 8.5 52.5t13 61.5l11.5 52q4 19 11.5 57.5t11.5 57.5q28 125 34 150q10 35 37 142l5.5 18.5t4.5 15.5q1 2 2.5 5.5t1.5 4.5q2 5 5 4q5 -2 5 -6t-1 -5q-7 -28 -18 -80.5t-16 -73.5q-8 -34 -20.5 -98.5t-18.5 -91.5l-42 -198
q-2 -11 -8 -34t-8 -35q-6 -26 -5 -39zM57 -50q-6 2 -10 4q-4 1 -6 8q0 1 -1 3v2q0 23 17 40q6 6 13 6q1 0 2 -1q2 0 2 -1q0 -2 -1 -3l-7 -6q-5 -5 -5 -7.5t7 -5.5q12 -5 9 -17q-1 -8 -10 -19q-3 -5 -10 -3zM55 -36h2q6 8 -2 16q0 -1 -0.5 -3t-0.5 -3q-1 -3 -1 -8q0 -2 2 -2z
" />
    <glyph glyph-name="quotedbl" unicode="&#x22;" horiz-adv-x="137" 
d="M59 650q-9 2 -8 9q-1 1 -1 19l1 18q0 5 1 9q0 9 -8 10q-4 1 -4 7q2 19 13 29q2 2 7 0.5t6 -5.5q0 -2 0.5 -5t0.5 -4q-1 -13 -1.5 -38.5t-0.5 -38.5q-1 -2 -1 -6q-1 -2 -5 -4zM99 650q-9 2 -8 9q-1 1 -1 19l1 18q0 5 1 9q0 9 -8 10q-4 1 -4 7q2 19 13 29q2 2 7 0.5t6 -5.5
q0 -2 0.5 -5t0.5 -4q-1 -13 -1.5 -38.5t-0.5 -38.5q-1 -2 -1 -6q-1 -2 -5 -4z" />
    <glyph glyph-name="numbersign" unicode="#" horiz-adv-x="419" 
d="M144 153l-6 3q-6 3 -5 9l6 37l9 46q1 4 1 11q0 3 -2 3h-12q-20 -3 -65 -7q-6 -1 -17 -1q-7 0 -9 2t-4 10q5 3 16 3q14 2 44 5.5t45 5.5q1 0 3 0.5t3 0.5q3 0 4 3l1 7q13 61 17 83q3 9 2 11t-13 1q-40 -6 -60 -10q-11 -2 -14 -7l-3 6q-4 7 4 11q16 6 35 9q7 1 23 3.5
t24 4.5q8 0 11 10l19 79q1 2 2 5.5t1 5.5q3 3 4 3q1 1 3 -1.5t2 -3.5q0 -4 -1 -7q-3 -19 -11 -57q-1 -5 -2 -13.5t-2 -12.5q0 -6 5 -4q10 1 30 3.5t30 3.5q5 2 6 5l3 8q18 59 20 69l3 6q1 2 4 0t3 -5q0 -9 -1 -13q-3 -19 -13 -55q0 -1 -0.5 -3t-0.5 -3q-2 -5 3 -5
q3 0 9.5 0.5t9.5 1.5q11 1 33 5t33 5h6q4 0 6 -3l3 -7q2 -5 -3 -5q-2 -1 -6 -1l-56 -8q-15 -1 -38 -5q-6 0 -9 -7q0 -2 -1 -2q-10 -37 -26 -89q-2 -7 -1 -11q2 -1 12 -1q22 0 33 -1h9q11 -2 11 -14q0 -2 -2 -2q-4 -1 -11 -1q-8 0 -23.5 -0.5t-22.5 -0.5q-6 0 -9 -1
q-5 0 -6 -4v-3l-1 -2q-9 -33 -11 -44q-2 -8 -2 -12l1 -3q1 -3 0 -3q-1 -2 -7 1q-10 5 -12 9t0 15q2 14 8 32l2 8q0 4 -3 4h-3q-22 -2 -34 -3q-8 0 -9 -9q-2 -9 -5 -25t-5 -25l-9 -51q0 -4 -6 -3zM185 284q2 0 7.5 1t8.5 1t9.5 1t9.5 1q4 0 6 5q2 4 2 6q23 69 29 89q2 6 1 8
q-2 2 -5 1q-37 -4 -52 -7q-6 -1 -7 -2t-2 -7q-6 -29 -16 -87q-1 -7 0 -9t9 -1z" />
    <glyph glyph-name="dollar" unicode="$" horiz-adv-x="526" 
d="M182 -119q-4 1 -4 6q1 5 2.5 15.5t2.5 15.5l6.5 26.5t6.5 28.5q1 1 1.5 4t0.5 4q0 5 -4 6q-3 1 -9.5 3.5t-10.5 3.5q-19 7 -25 26q-14 36 -11 72q2 21 26 30q6 2 17 -5q-1 -1 -9 -7q-15 -10 -15 -29q-1 -31 12 -66q4 -8 6 -11q6 -9 17 -6q11 2 13 8q1 2 6 2q5 -2 15 4
q16 12 23 19q46 46 65 105q13 38 10 82q-2 17 -10 31q-8 13 -24 15q-20 2 -36 -1q-31 -4 -65 -14q-42 -10 -63 -13q-18 -2 -27 -1q-24 3 -47 21q-8 8 -9 18q-5 15 -1 39q3 22 17 69q27 78 65 140q31 52 70 89q57 54 124 75q21 6 29 7q9 0 12 10q6 25 22 73q1 2 2.5 5.5
t1.5 4.5q2 2 3 1q1 0 3 -2t0 -8l-6 -23q-2 -8 -6.5 -22t-6.5 -22q0 -2 -1 -5t-1 -4q-2 -5 4 -5q4 -1 11 -1q34 -2 60 -23q1 0 11 -8q27 -20 37 -60q6 -34 -1 -65q-16 -74 -54 -129q-11 -17 -29 -34q-6 -6 -12 -9q-3 -3 -6 0q-1 0 -1 2q0 1 1 2q38 37 62 100q17 41 22 78
q7 43 -4 76q-4 11 -11 23q-10 17 -29 23q-12 5 -24 6h-32q-6 -1 -7.5 -2t-3.5 -8t-6 -1q-4 8 -17 4q-31 -9 -59 -25q-75 -42 -128 -118q-43 -64 -71 -146q-16 -48 -20 -73q-2 -12 -2 -35q1 -2 1 -6q5 -19 25 -20q23 -1 49 5q10 2 34.5 7.5l38.5 8.5q40 8 60 7q28 0 54 -21
q12 -10 17 -30q7 -31 1 -64q-13 -80 -76 -143q-21 -21 -46 -28q-6 -3 -8 -9q-2 -10 -9 -40t-10 -46q0 -4 -2 -10q-2 -5 -8 -3z" />
    <glyph glyph-name="percent" unicode="%" horiz-adv-x="445" 
d="M44 -34l-1 1q-5 2 -3 7l6 15q57 125 125 251l112 217q46 92 71 136l44 75q7 12 11 15h4l2 -2q1 -2 -2 -7l-36 -66q-36 -66 -65 -128q-57 -121 -142 -280q-38 -73 -69 -139l-33 -67q-6 -11 -10 -23q-3 -10 -14 -5zM173 545q-12 0 -22 8.5t-11 20.5q-2 14 1 23q8 37 32 64
q7 9 20 16q7 3 8 -1q1 -7 -7 -10q-10 -8 -14 -14q-21 -27 -29 -63q-1 -12 0 -24q3 -9 12 -9q19 0 37 13q10 7 14 16q3 5 3 10q0 2 -2 2h-2q-3 -4 -7 -10q-3 -4 -7 -1q-6 4 -4 12q1 2 2 5t2 4q8 9 18 2q1 -1 2.5 -2t2.5 -2q13 -8 7 -27l-4 -7q-23 -26 -52 -26zM232 20l-8 5
q-17 10 -14 32q3 13 11 28q9 14 18 22q4 4 10 7q5 5 12 2q9 -5 10 -10q-8 8 -16 0q-2 -2 -3 -2q-21 -22 -27 -53q0 -12 2 -17q3 -8 12 -8q11 0 23 10q17 14 25 38q2 9 -1 21q-1 0 -2.5 -1.5t-2.5 -1.5q0 -2 -3 -2q-4 2 -8 5q-1 3 1 7v4q2 1 4 2.5t3 1.5q2 1 5 1q7 -1 13 -7
t7 -13q4 -27 -6 -42q-11 -18 -24 -28q-20 -14 -41 -1z" />
    <glyph glyph-name="ampersand" unicode="&#x26;" horiz-adv-x="308" 
d="M113 25q-2 0 -4 1q-4 2 -5 6q-1 5 -1 15q3 33 9 66v7q0 2 -2 2q-6 -3 -9 -6q-10 -7 -22 -14q-13 -6 -34 5q-3 3 -3 7q-3 8 -1 18q3 29 15 56q30 77 82 151l40 53q5 8 6 12q-3 -1 -12.5 -5l-14.5 -6l-23 -9q-15 -6 -29 8q-4 3 -4 9q0 2 0.5 7t1.5 7q1 3 3.5 9t3.5 9
q22 47 58 89q20 24 47 41q6 3 5 8v6q7 35 15 64q0 1 1 3l2 2l4 -2q2 -2 1 -7q-2 -14 -4 -21q-2 -16 -8 -40q-1 -6 5 -6q10 1 23 -10q7 -5 9 -17q2 -10 -1 -18q-12 -48 -39 -78q-2 -4 -7 -6q-2 -2 -4 0q-3 1 -1 3l6 9q25 33 34 77q3 11 0 22q-3 9 -13 8q-7 -2 -15 -6
q-13 -6 -29 -22q-23 -21 -47 -59q-16 -24 -28 -52q-2 -6 -4 -9q-3 -15 -3 -16q6 -2 17 3l28 11l28 11q6 4 10 1q10 -6 11 -9t-5 -12l-40 -55q-53 -77 -79 -135q-18 -40 -24 -61q-5 -18 -5 -34q0 -8 7 -4q5 2 13 8q31 19 59 52q22 25 53 68l66 95q2 4 8 12q5 6 14 1l-2 -5
l-99 -147q-25 -35 -47 -55q-6 -6 -6 -15q-8 -49 -10 -77v-11q-1 -10 0 -10q0 -3 -1 -3z" />
    <glyph glyph-name="quotesingle" unicode="'" horiz-adv-x="97" 
d="M59 650q-9 2 -8 9q-1 1 -1 19l1 18q0 5 1 9q0 9 -8 10q-4 1 -4 7q2 19 13 29q2 2 7 0.5t6 -5.5q0 -2 0.5 -5t0.5 -4q-1 -13 -1.5 -38.5t-0.5 -38.5q-1 -2 -1 -6q-1 -2 -5 -4z" />
    <glyph glyph-name="parenleft" unicode="(" 
d="M168 544q2 -3 -3 -3q-6 -3 -14 -13q-22 -24 -41 -61q-17 -36 -31 -93q-11 -46 -15 -93q-6 -68 17 -127q3 -8 11 -24q4 -6 7 -7q4 -2 4 -4q-1 -2 -2 -2q-17 -1 -27 13q-28 47 -33 93q-4 37 3 86q12 71 31 120q19 54 50 91q17 19 28 26q5 5 11 2q4 -2 4 -4z" />
    <glyph glyph-name="parenright" unicode=")" horiz-adv-x="174" 
d="M50 103l-8 3q-4 0 -2 4q0 2 2 8l21 53q31 71 46 135q18 82 19 144q0 25 -5 58q-2 11 -4 37q0 2 1 3h2l2 -1q3 -3 5 -10q5 -25 7 -34q9 -45 8 -86q-1 -37 -8 -82q-7 -43 -27 -106q-5 -18 -21 -54l-29 -62q-3 -6 -4 -7q-1 -3 -5 -3z" />
    <glyph glyph-name="asterisk" unicode="*" horiz-adv-x="143" 
d="M73 662l-4 1q-2 4 -2 5v10q2 10 2 17q0 5 -1 6q-2 1 -6 -3l-1 -1q-3 -3 -6 -2q-4 1 -2 7q1 4 -3 3q-1 0 -3.5 -0.5t-4.5 -0.5q-2 1 -2 2q-1 1 1 3l6 3q3 2 13 4q12 3 14 16l3 25q2 8 4 8q4 -2 2 -9v-19q4 1 9 4l4 3l6 3l4 -1v-4q-10 -8 -15 -13q-1 -2 0 -3l2 -1l12 3
q5 0 7 -1q1 0 1 -2t-1 -2q-1 -1 -5.5 -2t-5.5 -2q-2 -1 -6.5 -1.5t-8 -1.5t-5.5 -3t-2.5 -5t-0.5 -7v-6q0 -3 -1 -9.5t-1 -9.5q0 -4 -2 -12z" />
    <glyph glyph-name="plus" unicode="+" horiz-adv-x="299" 
d="M137 212q-11 2 -9 10q2 30 6 60q2 8 4 22q0 6 -6 6q-32 -2 -49 -2q-2 0 -2 -1q0 -5 -15 -3l-15 3q-5 -1 -7 2t-4 9q0 1 2 3q2 1 7 2t6 1q51 3 52 3q10 0 28 2q7 0 8 6q2 14 4 23q10 60 17 89q1 2 1 6q2 4 4 5q6 0 6 -6q2 -6 0 -13q-3 -34 -9 -67q-1 -11 -5 -35
q-1 -4 0.5 -5.5t6.5 -1.5h40q31 0 46 -3q10 -1 15 -14q0 -3 -3 -3q-6 0 -18 0.5t-18 0.5q-5 1 -15 1q-9 0 -26 -0.5t-25 -0.5q-7 0 -8 -6q0 -4 -2 -13t-2 -14l-6 -46q0 -2 -1 -6.5t-2 -6.5q-1 -7 -6 -7z" />
    <glyph glyph-name="comma" unicode="," horiz-adv-x="111" 
d="M47 175q-9 1 -6 10q4 15 11 35q0 1 0.5 4t1.5 4q4 10 -3 13q-4 1 -2 8q7 16 21 23q2 2 6.5 -1t4.5 -7q-1 -1 -1.5 -4t-0.5 -4l-24 -74l-3 -6q-2 -2 -5 -1z" />
    <glyph glyph-name="hyphen" unicode="-" horiz-adv-x="260" 
d="M230 315q-17 12 -49 12q-48 2 -121 -3q-8 -2 -11 -2q-8 -1 -9 7q-1 6 6 9q15 3 29 3q60 4 89 5q20 0 30 -1q2 0 4.5 -0.5t5.5 -1.5t5 -1q19 -8 21 -27z" />
    <glyph glyph-name="period" unicode="." horiz-adv-x="89" 
d="M50 265q-14 2 -9 13q2 7 5 10t6 1q5 -4 7 -11q0 -8 -6 -12q-2 0 -3 -1z" />
    <glyph glyph-name="slash" unicode="/" horiz-adv-x="343" 
d="M47 77q-9 3 -5 10q2 7 8 21q55 119 128 253l54 93l50 93l22 39q1 1 3 4q2 2 4 1q2 -2 2 -3q0 -4 -4 -12q-30 -66 -48 -98l-63 -114l-59 -117q-31 -59 -78 -162l-2 -3q-4 -8 -12 -5z" />
    <glyph glyph-name="zero" unicode="0" horiz-adv-x="245" 
d="M68 115q-14 3 -18 7.5t-6 17.5q-4 18 -4 53q1 65 18 143q17 79 67 167q8 17 23 33q10 8 16 6q3 -1 5 3q9 8 19 3q16 -10 23 -23q4 -7 4 -17q1 -16 -2 -34q-11 -62 -34 -130q-32 -93 -59 -154q-13 -30 -25 -52q-11 -17 -13 -19q-5 -5 -14 -4zM72 135q4 4 5 7l16 28
q14 29 42 100q42 108 57 182q8 40 8 47q0 17 -4 30q-4 9 -6.5 9.5t-9.5 -5.5q-2 -4 -7 -2q-9 5 -14 -2q-1 -1 -10 -13q-14 -27 -15 -31q-28 -59 -42 -110q-22 -90 -25 -200q0 -21 1 -32q0 -5 1 -7q0 -1 1 -1.5t2 0.5z" />
    <glyph glyph-name="one" unicode="1" horiz-adv-x="165" 
d="M50 165q-9 0 -10 10q1 4 2.5 12.5t2.5 12.5q9 37 28 103.5t24 85.5q18 58 26 87q1 2 2 5.5t2 5.5q2 3 5 2q3 0 3 -3q0 -5 -1 -7q-2 -7 -5.5 -21t-4.5 -21l-68 -256q0 -3 -2 -9q0 -7 -4 -7z" />
    <glyph glyph-name="two" unicode="2" horiz-adv-x="316" 
d="M46 118l-5 2q-2 4 -1 5q0 2 2 4q60 105 87 146l67 101q38 58 64 117q7 12 10 29q2 8 -6 6q-9 -2 -18 -6l-12.5 -6.5t-12.5 -7.5q-58 -39 -88 -96q-13 -25 -13 -47q0 -15 4 -26t12 -11q1 -1 1 -4q0 -2 -3 -2q-12 3 -17 15q-12 23 -8 47q1 16 10 33q11 23 22 37
q35 46 79 73q9 6 29 14q16 5 25 -6l3 -3l2 -1q9 -7 7 -19q-3 -13 -9 -29q-10 -26 -33 -65q-34 -56 -88 -138q-28 -42 -78 -128l-4 -7q0 -3 2 -3q4 0 6 1q35 9 91 13q43 2 54 7q6 1 12 -5q1 -2 -1 -4q-4 -4 -10 -4q-29 -4 -46 -5q-35 -2 -53 -6q-9 -1 -40 -8q-18 -5 -28 -13
q-7 -6 -15 0z" />
    <glyph glyph-name="three" unicode="3" horiz-adv-x="240" 
d="M94 167q-14 -3 -25 4l-8.5 5.5t-7.5 5.5q-11 6 -12 17q-3 25 2 43q0 2 1.5 4.5t1.5 3.5q3 6 12 8q4 1 13 -6q-8 -5 -12 -21q-2 -23 2 -39q3 -12 14 -9q12 3 22 10q13 7 24 20q49 55 66 128q5 20 2 37q-2 12 -5.5 16t-17.5 4q-13 1 -29 -4q-14 -4 -21 7q1 2 3 4
q27 17 60 57q8 12 10 19q1 3 -0.5 5t-4.5 1q-10 -2 -15 -4q-40 -16 -68 -52q0 -2 -2 -4h-2q-3 0 -3 2q-2 3 0 6q0 1 8 14q24 30 60 45q4 2 5 2q21 7 33 -11q4 -7 1 -14q-3 -8 -9 -16q-10 -15 -28 -33l-2.5 -2.5t-2.5 -3t-1 -3.5q1 -1 2 -1q15 -2 36 -21q9 -9 12 -24
q4 -18 -1 -40q-17 -73 -64 -127q-13 -14 -28 -24q-9 -6 -21 -9z" />
    <glyph glyph-name="four" unicode="4" horiz-adv-x="234" 
d="M128 158q-8 2 -6 11l6 35l9 46q2 6 0 8q-1 1 -8 -1l-15.5 -6.5t-13.5 -5.5q-24 -8 -29 -10q-10 -4 -19 2l-6 3q-7 5 -5 13q0 1 0.5 2.5t0.5 2.5q9 22 22.5 65.5t16.5 50.5q12 38 19 57q14 36 24 70q0 1 1.5 4.5t2.5 5.5q3 3 4 3q6 0 4 -6q0 -7 -3 -13q-9 -38 -17 -62
l-12.5 -40.5l-14.5 -48l-12 -40.5q-1 -3 -12 -40l-3 -11q-2 -4 4 -4q15 5 19 7q32 12 47 17q10 4 13 15q4 24 12 52q15 58 36 128q1 6 5 13q0 2 3 2l3 -3v-4l-3 -17q-4 -23 -29 -121l-9 -40q-1 -2 -1 -8q0 -3 3 -3q4 0 8 2q5 2 8 0q5 -3 5 -4q1 -3 -4 -5q-8 -4 -12 -5
q-10 -5 -12 -7t-3 -11q-8 -40 -13 -60q-2 -12 -8 -36q0 -5 -6 -3z" />
    <glyph glyph-name="five" unicode="5" horiz-adv-x="235" 
d="M81 171q-7 0 -13 3q-12 7 -13 8q-12 6 -14 20q-3 20 2 44q3 12 11 16q7 4 14 -1q3 -1 1 -5q-12 -10 -12 -37q0 -17 4 -29q1 -7 9 -5q12 5 21 12q30 25 46 62q7 17 16 43q6 20 6 33q0 19 -5 22.5t-21 1.5q-25 -3 -52 -16q-2 -1 -5.5 -2.5t-4.5 -1.5q-13 -6 -19 6
q-2 3 -1 7q2 8 4 13l22 58q2 3 4 9q0 4 -3 3q-4 0 -12 -2q-6 0 -8 2q-3 3 0 5q2 2 6.5 3t5.5 2q2 1 6 1t7 1t5 4q3 4 7 16q2 3 4.5 10l3.5 10q2 3 4 2q4 0 4 -4t-2 -10q0 -3 -2.5 -10t-2.5 -11q4 -2 8 -1q12 2 36.5 7t36.5 7q4 1 13 1q7 2 7 -6q-2 -1 -25 -6l-73 -15
q-9 -2 -11 -8l-24 -71q-2 -4 0 -5t5 0q20 8 38 11l4 1q25 7 47 -15q8 -7 10 -21q1 -21 -3 -40q-6 -28 -18 -53q-16 -35 -45 -57q-15 -13 -29 -12z" />
    <glyph glyph-name="six" unicode="6" horiz-adv-x="250" 
d="M67 139q-14 6 -19 12.5t-6 21.5q-1 4 -1.5 13t-0.5 13q1 38 14 77q27 91 82 179q11 19 30 41q13 14 24 22q9 6 20 9q5 2 8 -3q5 -2 0 -4q-26 -13 -54 -53q-22 -32 -44 -80q-30 -66 -46 -128q-8 -34 -10 -73q-1 -11 1 -29q1 -6 6 -4q10 5 21 16q22 21 45 58q18 31 25 60
q2 10 2 14l-1 2q-2 0 -3 -1q-5 -5 -8 -11q-9 -16 -23 -52q-2 -6 -2 -11q-1 -5 -7 -3q-11 7 -12.5 10.5t2.5 15.5q7 21 16 42q5 12 11 19q6 8 11 10q7 6 15 1l9 -6q11 -5 11 -19q-2 -16 -5 -23q-9 -28 -26 -57q-23 -40 -52 -66q-3 -4 -15 -12q-10 -5 -18 -1z" />
    <glyph glyph-name="seven" unicode="7" horiz-adv-x="203" 
d="M67 165l-3 1q-2 2 -4 3q-3 2 -3 7q0 2 2 8q17 72 33 114q1 3 2.5 8t2.5 7q1 6 -4 6l-31 -3q-10 -2 -14 -2q-1 0 -5 2q-2 2 -2 3l2 2q4 2 12 4l32 3h3q13 0 16 12l11.5 35t11.5 34q16 44 25 65q2 7 2 9q0 1 -7 1l-7 -1l-55 -7q-26 -2 -38 -3q-5 -2 -8 1q-2 2 -1 3q0 2 1 2
q5 2 15 4q16 1 43 5q36 4 54 8h7q4 1 8 -2t5 -7q0 -4 -1 -6q-1 -5 -5 -15q-14 -33 -31 -96q-1 -4 -4.5 -15.5l-5.5 -18.5q-2 -5 4 -5q12 2 17 4q4 2 7 2q2 1 5 -1t3 -4q0 -3 -4 -5q-9 -4 -17 -5q-1 0 -4 -0.5t-5 -0.5q-11 0 -14 -12q-6 -20 -38 -120l-6 -21q-1 -5 -7 -3z
" />
    <glyph glyph-name="eight" unicode="8" horiz-adv-x="205" 
d="M57 188q-7 5 -8 5q-11 8 -9 20q2 16 6 29q12 40 33 75l22 38q3 6 -3 7q-10 2 -24 14q-8 8 -5 16l3 9q19 39 56 64q8 7 17 8q4 1 9 -2q3 -4 -1 -7q-46 -24 -68 -77q-6 -12 7 -15q15 -3 16.5 -2t9.5 14l35 63q3 7 8 13q3 4 7 1q2 -2 3 -2q6 -4 3 -11l-24 -46
q-1 -2 -7.5 -13.5t-9.5 -17.5t1 -9q13 -10 14 -11q12 -11 11 -26q0 -11 -2 -16q-8 -18 -10 -22q-25 -49 -54 -84q-11 -11 -17 -15q-11 -7 -19 0zM60 207q1 -1 4 2q7 7 9 11q25 30 55 76q6 10 12 27q3 7 3 17q0 4 -1 6q-1 8 -13 10q-4 1 -9 -6q-28 -48 -32 -56
q-21 -38 -29 -81q-2 -5 1 -6z" />
    <glyph glyph-name="nine" unicode="9" horiz-adv-x="207" 
d="M50 149q-11 4 -10 11q0 3 1 5q22 96 39 142q4 12 36 94q3 6 8.5 19.5l8.5 20.5v7q-8 -8 -11 -12q-15 -17 -30 -29l-6 -6q-14 -10 -26 2q-6 6 -4 12q2 11 6 18q20 38 58 67q1 1 4 2.5t4 2.5q9 4 15 -4q1 -1 1 -3q-1 0 -2 -1q-6 2 -11 -3q-42 -34 -58 -76q-1 -1 -1 -5
q4 0 8 4q27 24 42 42q20 24 29 37l6 7q6 8 8 8t10 -9q3 -2 1 -6q-1 -2 -2.5 -7t-2.5 -8q-40 -97 -68 -174q-27 -70 -45 -143q-2 -6 -2 -8q-2 -7 -6 -7z" />
    <glyph glyph-name="colon" unicode=":" horiz-adv-x="89" 
d="M50 367q-14 2 -9 13q2 7 5 10t6 1q5 -4 7 -11q0 -8 -6 -12q-2 0 -3 -1zM50 267q-14 2 -9 13q2 7 5 10t6 1q5 -4 7 -11q0 -8 -6 -12q-2 0 -3 -1z" />
    <glyph glyph-name="semicolon" unicode=";" horiz-adv-x="111" 
d="M63 379q-14 2 -9 13q2 7 5 10t6 1q5 -4 7 -11q0 -8 -6 -12q-2 0 -3 -1zM47 189q-9 1 -6 10q4 15 11 35q0 1 0.5 4t1.5 4q4 10 -3 13q-4 1 -2 8q7 16 21 23q2 2 6.5 -1t4.5 -7q-1 -1 -1.5 -4t-0.5 -4l-24 -74l-3 -6q-2 -2 -5 -1z" />
    <glyph glyph-name="less" unicode="&#x3c;" horiz-adv-x="238" 
d="M201 213q-24 3 -48 12q-37 17 -80 47q-20 15 -32 46q-3 14 7 21l12 8l59 35q36 22 79 58q0 2 2 2q3 3 6 2q5 -3 1 -7l-6 -9q-8 -10 -28 -26q-26 -22 -77 -58q-13 -8 -29 -19q-4 -3 -11 -10q-4 -5 0 -9q3 -4 7 -7q53 -41 101 -59l30 -9q10 -3 13 -12q1 -6 -6 -6z" />
    <glyph glyph-name="equal" unicode="=" horiz-adv-x="283" 
d="M57 340q-9 -1 -10 6t6 9q14 5 28 6q13 1 43 4.5l46 5.5q10 1 30 1q5 0 15 -2q19 -5 22 -26q-18 11 -49 9q-57 -1 -121 -11q-6 -2 -10 -2zM48 295q-7 1 -8 7q-2 7 4 7q10 2 16 2q54 4 81 7q16 1 49 3.5t50 4.5q7 1 8.5 0t3.5 -7l1 -4q2 -3 -3 -5q-11 -5 -22 -6
q-24 -2 -35 -2l-106 -6q-5 0 -16 -0.5t-17 -0.5h-6z" />
    <glyph glyph-name="greater" unicode="&#x3e;" horiz-adv-x="238" 
d="M42 213q-5 3 -1 7l6 9q8 10 28 26q26 22 77 58q13 8 29 19q4 3 11 10q4 4 0 9q-3 4 -7 7q-53 41 -101 59l-30 9q-10 3 -13 12q-1 6 6 6q24 -3 48 -12q37 -17 80 -47q20 -15 32 -46q3 -14 -7 -21l-12 -8l-59 -35q-36 -22 -79 -58q0 -2 -2 -2q-3 -3 -6 -2z" />
    <glyph glyph-name="question" unicode="?" horiz-adv-x="372" 
d="M94 25l-1 1q-13 2 -11 16q2 16 8 38q29 122 41 163q17 57 49 124l93 193q30 65 41 108q8 30 7 47q0 10 -3 17q-1 6 -8 8q-8 1 -22 -1q-46 -9 -87 -37q-40 -27 -74 -80q-42 -62 -64 -130q-8 -28 -11 -52q-3 -19 1 -35q3 -10 14 -19q-16 2 -22 16q-5 13 -5 24q-1 27 7 60
q15 62 50 123q21 37 40 61q46 58 122 81q20 6 31 6q8 0 14 -3q37 -20 38 -54q0 -19 -4 -32q-11 -54 -37 -110q-37 -86 -78 -164q-38 -74 -56 -127q-10 -26 -26 -80q-25 -89 -34 -125q-1 -6 -3.5 -17t-4.5 -16q-1 -4 -5 -4zM79 -99q-1 0 -3 1q-6 2 -6 8q-1 14 5 28q4 8 5 12
q10 -2 12.5 -4.5t3.5 -10.5q0 -13 -3 -27q-4 -10 -14 -7z" />
    <glyph glyph-name="at" unicode="@" horiz-adv-x="331" 
d="M124 146q-33 -8 -63 17q-7 5 -13 19q-6 15 -8 37q-1 30 5 63q24 105 84 177q26 30 51 42q15 9 30 12q25 6 48 -11q31 -24 36 -69q1 -23 -6 -55q-17 -64 -55 -114q-6 -8 -14 -14q-4 -3 -14 -7h-5q-16 7 -23 15q-3 4 -3 14q0 16 4 28q6 26 10 39q0 1 1 3t0 4q-2 -1 -9 -8
q-17 -21 -32 -33l-11 -10q-6 -4 -13 0q-8 5 -9.5 8t1.5 11q14 40 42 67q5 5 11 8q12 8 23 0l2 -2q5 -2 8 2l4 7q1 2 5 8l6 9q5 9 7.5 9t9.5 -7q3 -3 1 -7l-6 -17q-20 -49 -27 -83l-6 -28q-2 -10 -1 -16q0 -1 1.5 -2t2.5 0q7 4 13 12q23 28 40 61q16 34 24 71q9 39 -9 77
q-7 14 -24 16q-11 1 -25 -2q-32 -10 -58 -34q-26 -23 -47 -59q-44 -71 -56 -154q-5 -30 1 -58q2 -11 11 -27q6 -9 19 -11q22 0 36 5q24 8 43 22q20 15 24 19q22 18 64 56q22 19 35 38q2 5 8 2q4 -3 3 -8q-1 -8 -8 -14q-14 -16 -21 -23q-46 -44 -71 -64q-19 -16 -43 -29
q-17 -9 -34 -12zM135 312q25 17 53 56q3 5 1 13q0 5 -5 3q-8 -4 -20 -16q-17 -21 -28 -50q-2 -4 -1 -6z" />
    <glyph glyph-name="A" unicode="A" horiz-adv-x="493" 
d="M352 -167q-15 -3 -23 8q-15 20 -19 40q-11 46 -5 98q16 130 66 319q1 6 5 18q1 7 -6 7h-67q-16 -2 -26 -1q-9 0 -13 -9q-12 -24 -18 -35l-79 -144q-13 -22 -41 -64q-16 -21 -30 -34q-12 -12 -25 -19q-12 -7 -33 -4q-8 2 -14 9q-20 25 -23 55q-2 5 1 8q0 1 2 1t3 -1v-3
q3 -25 21 -52q9 -13 15 -14t19 6t28 24q20 20 45 62q24 39 78 140l30 58l3 7q4 7 -6 7h-3q-17 -1 -52 -2.5t-52 -2.5q-29 -2 -44 -5h-9q-4 0 -4 3q0 4 2 4q3 2 9 4q3 0 12.5 2t14.5 2q29 3 82 7l51 3q10 0 16 10q36 70 112 206q28 50 58 89q1 1 20 23q4 4 7 6q8 5 15 0
q2 -1 6 -5q5 -2 5 -9q1 -11 -2 -24q-5 -25 -19 -73l-56 -202q-3 -11 -1.5 -13t13.5 -2h88q10 1 13 -10q0 -2 1 -5q-28 -2 -62 -2q-18 -1 -52 -1q-7 0 -8 -1t-3 -8q-7 -24 -19 -72q-18 -66 -34 -145q-14 -72 -19 -124q-5 -50 4 -88q8 -26 16 -38q3 -3 5 0q3 4 9 4q5 0 5 -5
q-2 -11 -13 -13zM281 337h6q28 2 76 2h6.5t5 0.5t3.5 0t3 0.5t2 1.5t1.5 2.5t0.5 3t1 5t2 7q42 148 65 222l8.5 29l7.5 26l3 18q0 2 -1 2h-3q-12 -11 -22 -24q-29 -37 -52 -79l-111 -203q-1 -2 -2 -5t-2 -4q-1 -2 2 -4z" />
    <glyph glyph-name="B" unicode="B" horiz-adv-x="702" 
d="M193 -125q-22 -8 -47 4q-14 6 -15 21q-2 12 3 28q8 23 23 48q52 83 129 145q97 80 197 131q11 6 16 18q12 39 15 56q7 36 -1 63q-8 20 -14 29q-17 26 -42 31q-32 7 -55 7q-54 -2 -82 -5q-8 0 -9 1q-8 3 -9 6q0 3 8 6q12 7 38 21q50 31 85 72q20 22 24 45q2 10 1 15
q-3 8 -11 7q-10 -1 -19 -6q-27 -14 -48 -33q-44 -37 -85 -101q-40 -64 -74 -146q-41 -100 -56 -156q-7 -26 -12 -55q-1 -1 -1 -3t-1 -3q-2 -2 -3 -2q-4 0 -8 2q-6 1 -6 8q0 18 1 27q4 28 20 89q13 45 59 191q2 8 17 57.5t22 76.5q2 6 4.5 18t3.5 18q3 12 1 28q-1 13 -14 9
q-7 -3 -19 -11q-16 -11 -37 -32q-39 -38 -74 -94q-51 -79 -84 -174q-17 -49 -22 -88q-4 -31 1 -51q4 -12 8 -17q3 -5 9 -1l5 5q2 2 4 0q1 -2 -1 -4q-4 -6 -11.5 -6t-12.5 6q-4 4 -8 14q-6 16 -6 33q0 30 8 62q39 161 132 279q28 37 64 67q15 13 27 18q21 11 40 -5
q5 -6 7 -13q3 -10 1 -22q-3 -25 -11 -53q-14 -53 -46 -157l-17 -53q2 0 3 -1q1 3 3.5 9t3.5 9q31 72 66 127q40 63 85 103q19 17 43 31l9 5q22 10 43 -2q14 -8 12 -25q-1 -16 -11 -34q-10 -15 -27 -32q-31 -33 -78 -61q-12 -7 -14 -10q2 -1 9 -1q14 2 44 2q48 0 87 -23
q48 -26 54 -84q4 -27 -7 -62q-2 -10 -4 -15q0 -5 1 -6q4 -1 10 3l98 39q30 12 75 21q9 1 22 -8q-4 -3 -7 -3q-4 -2 -14 -4q-39 -9 -75 -24q-63 -24 -79 -31q-5 -2 -10.5 -4.5l-12 -5.5l-10.5 -5q-8 -4 -13 -13q-9 -24 -31 -70q-44 -87 -96 -151q-53 -64 -113 -106
q-26 -19 -62 -34q-2 -1 -7.5 -2.5t-8.5 -2.5zM164 -119q14 1 29 8q44 19 82 51q57 47 103 108q59 80 100 172q2 4 2 6q2 2 0 3t-2 0q-6 -1 -11 -5q-73 -40 -161 -107q-72 -57 -123 -132q-21 -31 -32 -59q-5 -17 -5 -26q0 -1 1 -5t2 -6q5 -9 15 -8z" />
    <glyph glyph-name="C" unicode="C" horiz-adv-x="521" 
d="M113 -11q-26 6 -37 13q-48 26 -66 79q-14 41 -9 93q6 58 21 111q32 121 104 216q46 62 112 111q52 38 117 42q20 3 37 -11q6 -5 9 -13q4 -12 1 -25q-3 -15 -11 -33q-29 -64 -84 -111l-10 -7q-2 -2 -6 -2l-2 1v2l6 6q60 51 89 125q3 8 7 26q1 11 -2 23q-3 9 -12 9
q-7 1 -22 -1q-59 -14 -104 -49q-53 -43 -96 -98q-45 -57 -77 -131q-32 -77 -46 -164q-6 -39 -5 -74q2 -45 19 -77q20 -34 53 -51q16 -9 38 -4q24 4 53 19q33 19 73 52q47 41 119 116l97 100l52 54q1 2 4 5t8 2q7 -2 8 -5q-2 -3 -15 -19l-73 -72l-76 -79q-68 -71 -119 -114
q-32 -27 -63 -46q-22 -12 -34 -16q-29 -11 -58 -3z" />
    <glyph glyph-name="D" unicode="D" horiz-adv-x="733" 
d="M35 -107q-14 -1 -30 8q-5 3 -5 10q0 8 5 15q3 6 17 27q34 42 76 76q57 47 126 91q87 57 151 90l50 25q9 4 15 13q22 37 50 94q30 58 67 142q22 54 29 83q4 22 4 33q0 2 -1 6t-1 6q-2 11 -6.5 15t-15.5 5q-14 2 -27 -3q-24 -6 -58 -24q-62 -36 -112 -88q-76 -79 -142 -185
q-32 -49 -60 -107l-18 -33q-3 -5 -7 -11q-5 -9 -10 -9.5t-13 4.5q-4 2 -6 9q-1 6 -1 17q0 34 10 76q19 89 60 191l44 109q22 58 31 88q4 10 2 14l-11 -8q-19 -18 -67 -75q-56 -69 -98 -136q-36 -60 -54 -110q-8 -21 -11 -42q-2 -9 -2 -27q2 -13 5 -18q11 -28 36 -19q1 1 3 1
l2 -2v-2q-1 0 -2.5 -1.5t-2.5 -1.5q-8 -4 -21 0q-27 11 -33 43q-3 14 1 43q7 35 25 73q34 77 84 145q48 67 105 126q5 6 16 17q1 1 6.5 6t9.5 7q9 6 21 0q15 -9 10 -24q-5 -21 -7 -28q-11 -35 -46 -123q-38 -89 -62 -164q-18 -53 -31 -117l-6 -42v-7q4 1 8 8l42 76
q74 134 158 227q44 46 69 66q52 41 99 61q11 5 33 11q12 2 19 1q12 0 22 -8q2 -2 10 -8q12 -11 14 -28q4 -26 -6 -57q-9 -36 -24 -68q-47 -108 -83 -178l-20 -36q0 -3 1 -3q0 -1 1 -1t1 1l9 3q71 33 162 56q42 12 63 17q5 2 40 7q11 3 16 -8q2 -4 -2 -4l-38 -9
q-111 -25 -167 -46q-37 -14 -98 -42q-6 -2 -11 -9q-54 -91 -140 -172q-90 -85 -195 -135q-27 -14 -54 -20q-21 -3 -23 -3zM20 -98q6 -1 18 1q26 6 61 22q86 41 175 120q63 57 125 141q2 2 7.5 10t8.5 13q-1 0 -11 -3q-27 -13 -79 -43q-102 -60 -150 -95q-75 -52 -114 -95
q-26 -28 -39 -48q-6 -10 -7 -17q-1 -6 5 -6z" />
    <glyph glyph-name="E" unicode="E" horiz-adv-x="492" 
d="M121 -91q-47 2 -72 43q-17 28 -21 63q-8 43 -1 100q8 85 36 183q4 16 1 18q-2 1 -15 0q-9 0 -10 1q-3 3 -2 5q0 2 3 2q10 3 21 3q10 0 13 10q27 85 91 221l12 26q3 5 -3 5l-47 -9q-40 -7 -68 -7q-12 0 -24 3q-25 5 -35 23v1q20 -15 49 -15q31 0 66 8q11 2 32.5 7t32.5 7
q10 1 17 12q11 22 29 45q1 2 5 6q2 2 4 0q2 0 2 -3q1 -1 -2 -9l-14 -26q-6 -11 -7 -14q1 -1 8 -1l75 21q62 18 145 35q36 8 81 13q26 2 49 -4q19 -6 30 -32v-4q-3 -17 -13 -28q-4 -6 -8 0q-5 8 0 16q3 4 7 16q1 5 -4 8q-15 7 -33 7q-20 1 -48 -4q-76 -11 -204 -43l-84 -21
q-1 0 -3 -0.5t-3 -0.5q-7 0 -12 -9q-29 -65 -35 -80q-41 -106 -52 -139q-2 -5 -5.5 -16.5t-5.5 -17.5q0 -5 4 -5h13q77 2 93 4q50 4 75 7l70 6q40 4 60 5q5 2 8 -3q6 -9 5 -11q0 -1 -11 -4l-82 -6q-29 -3 -87 -7q-70 -4 -106 -3h-40q-7 0 -9 -8q-10 -31 -23 -85
q-14 -59 -22 -130q-7 -58 4 -103q6 -24 16 -42q5 -10 15 -20q7 -7 21 -9q35 -1 72 10q14 4 58 25q52 28 110 76q43 36 107 104q4 5 12.5 13t12.5 13q1 1 4 3.5t4 3.5q5 5 8 4q6 0 10 -5q-17 -16 -49 -51t-49 -51q-71 -68 -123 -101q-52 -32 -81 -42q-40 -14 -78 -13z" />
    <glyph glyph-name="F" unicode="F" horiz-adv-x="431" 
d="M458 334q4 -4 3 -5q-1 -3 -7 -3q-44 -6 -88 -9q-25 -1 -71 -10l-6 -18q-33 -107 -60 -171q-26 -58 -42 -84q-23 -36 -54 -63q-22 -17 -41 -19q-6 -2 -12 0q-14 3 -29 11q-10 6 -15 19q-2 6 -4 20q-7 42 -2 73q2 11 6 21q6 13 20 19q8 4 16 -2q0 -3 -5 -5q-14 -9 -19 -27
q-4 -16 -4 -38q2 -32 5 -47q5 -18 8 -25q7 -11 21 -8q17 3 32 16q15 10 33 32q21 25 43 70q26 51 58 141l25 80l-26 -5l-21 -4q-16 -4 -25 -5q-63 -14 -81 -20q-8 -2 -26 -8q-5 -3 -6 -4q-3 -6 -11 -2q-3 0 -3 4q0 2 3 4l13 6q30 13 92 27q27 7 46 11l49 10l12.5 42.5
t11.5 38t4 13.5q11 39 18 76q12 58 16 87l6 61q4 40 3 61q0 8 -2 26l-3 10q-2 5 -6 5q-9 0 -14 -1q-9 -2 -35 -14q-57 -31 -103 -71q-77 -68 -131 -148q-18 -28 -29 -54q-10 -28 -11 -44q-1 -8 2 -18q4 -14 20 -11q1 1 2 1q3 0 3 -2t-2 -4q-2 -1 -6 -1q-28 7 -29 31
q-1 19 5 38q7 24 28 63q31 52 77 103q38 45 79 77q54 40 94 59q19 8 26 10q17 3 29 -7l5 -5q13 -10 17 -31q4 -26 2 -62q-5 -59 -7 -70q-3 -29 -15 -92q-22 -91 -23 -99l-18 -62q2 0 5.5 0.5t5.5 1.5q17 3 51 7q24 3 79 7h8q5 1 10 -4z" />
    <glyph glyph-name="G" unicode="G" horiz-adv-x="586" 
d="M596 337q8 4 10.5 3t9.5 -9q-12 -10 -29 -19q-83 -41 -182 -124l-21 -18q-2 -2 -12 -26q-24 -54 -48 -101q-42 -80 -106 -150q-17 -19 -42 -38q-10 -8 -19 -11q-10 -4 -19 0q-20 9 -17 31q3 19 12 37q16 35 44 71q29 40 81 92q45 47 93 90q10 10 14 21q25 54 67 166
q22 64 31 97q7 22 8 40q0 12 -2 13t-14 -4q-20 -14 -29 -22q-18 -15 -75 -70l-152 -152q-48 -48 -91 -83q-28 -22 -43 -31q-15 -8 -21 -10q-11 -5 -21 1l-9 6q-12 7 -14 22q-1 17 2 39q10 54 32 113q43 115 112 213q51 70 107 112q48 38 92 52q23 7 41 7q18 -2 29 -11l9 -7
q19 -16 17 -45q-3 -23 -12 -46q-19 -48 -60 -92q-13 -16 -30 -30q-6 -6 -11 -7q-3 -2 -5 2q-1 1 1 3q22 21 49 55q30 39 43 77q10 27 10 49q0 16 -5 27q-3 7 -10 8q-8 2 -24 0q-19 -3 -42 -13q-67 -32 -121 -89q-46 -48 -92 -122q-57 -100 -85 -185q-15 -43 -24 -90
q-2 -10 -2 -32q1 -6 8 -6q9 3 20 8q20 11 45 31q35 26 87 76l138 137q58 58 89 86q9 8 27 22l10 7q11 8 17.5 7.5t16.5 -9.5q7 -7 7 -16q1 -14 -2 -31q-6 -37 -22 -84q-29 -85 -55 -149q-4 -11 -3 -15q77 63 142 99q33 20 45 25q4 2 5 2zM333 115q4 7 2 11h-1v1
q-1 -1 -2.5 -3.5t-3.5 -3.5l-27 -26q-65 -63 -104 -112q-26 -33 -41 -59q-12 -20 -18 -40q-4 -16 -3 -25q2 -8 8 -5q7 3 19 13q32 25 61 62q51 63 88 141z" />
    <glyph glyph-name="H" unicode="H" horiz-adv-x="579" 
d="M400 -117q-4 0 -6 1q-6 2 -6 7q0 11 2 33q5 55 21 134l36 178l6.5 33t7.5 35q0 2 0.5 4.5t0.5 3.5q0 5 -5 5l-17 -3q-76 -15 -105 -25q-77 -26 -143 -72q-11 -7 -14 -20l-36 -133q-14 -48 -22 -72q-5 -13 -7 -16q-6 -6 -13 -5q-24 6 -36 25q-21 33 -13 71q5 21 21 50
q23 39 54 68l26 24q9 7 10 16l46 160q10 38 32 114q12 48 16 73q6 48 1 72q-2 10 -5 17q-3 8 -13 8q-7 -1 -21 -5q-19 -7 -48 -26q-55 -40 -98 -103q-38 -53 -52 -112q-10 -48 -4 -84q4 -17 9 -24l6 -9q5 -5 10 -1q2 0 4 2q4 2 6 1q3 -3 -3 -7q-5 -3 -10 -2q-20 6 -27 23
q-10 20 -10 45q-4 50 17 105q42 111 136 179q24 19 47 27q7 2 17 4q17 3 30 -7q2 -1 11 -7q12 -9 17 -26q3 -13 3 -26q1 -42 -10 -89q-10 -44 -36 -132l-39 -141q0 -1 -1 -3t-1 -3v-6q1 -1 7 2q50 32 111 55q36 13 87 23q10 2 30.5 5.5t30.5 5.5q9 1 10 9l9 46q15 76 48 212
q27 114 37 161l2 4h2q4 0 4 -5q0 -7 -1 -11q-4 -22 -14 -68l-46 -216q-5 -21 -22 -116q-1 -2 -1 -5q0 -6 5 -6q3 0 9 0.5t9 0.5q33 4 79 2q3 0 11 -2q5 -2 8 -5t2 -4q-2 -2 -11 -2h-8.5h-9.5h-8q-40 0 -81 -6q-7 -1 -8 -2t-3 -8q-3 -14 -8 -43t-8 -44l-37 -201
q-7 -40 -12 -81q-2 -15 -11 -56q0 -4 -4 -4zM90 -16q2 0 3.5 1t2.5 4t1 4q0 2 2 8q12 38 49 169q1 2 1.5 5t0.5 5h-3l-3 -3q-37 -35 -57 -70q-17 -29 -20 -49q-6 -37 14 -66q6 -8 9 -8z" />
    <glyph glyph-name="I" unicode="I" horiz-adv-x="299" 
d="M59 -50q-12 -4 -28 1q-24 7 -29 34q0 2 -1 6t-1 6q-1 20 21 34q7 5 12 -3q1 -2 0 -3q-1 -2 -5 -6q-16 -15 -10 -37q4 -12 8 -19q3 -6 9 -4q8 1 22 9q22 15 41 39q21 26 41 71q33 72 66 175q43 134 67 247q17 79 25 140q3 25 1 42q-1 5 -7 4q-4 -1 -15 -10
q-15 -11 -52 -48q-55 -57 -89 -111q-53 -81 -76 -167q-8 -29 -8 -53q0 -26 5 -41q10 -25 35 -15l12 6q4 2 5 -1t-1 -5q-9 -7 -21 -9q-27 -3 -39 23q-7 14 -9 38q-1 34 11 78q40 140 132 240q38 42 67 68l18 15q2 2 13 7q8 3 14 -1l15 -10q5 -4 9 -15q3 -15 1 -44
q-6 -54 -22 -129q-27 -133 -82 -296q-29 -83 -53 -136q-18 -38 -35 -62q-19 -25 -41 -43q-16 -12 -26 -15z" />
    <glyph glyph-name="J" unicode="J" horiz-adv-x="477" 
d="M52 -183q-8 0 -20 8q-4 2 -6 9q-2 8 -4 20q0 23 5 50q16 73 65 148q55 84 148 159l22 17q7 5 10 13q37 102 49 151q16 58 23 114q6 59 1 96q-4 24 -9 35q-6 17 -23 17q-20 1 -45 -7q-26 -9 -64 -33q-63 -41 -118 -112q-39 -54 -57 -106q-14 -44 -17 -84q-2 -28 7 -51
q10 -25 27 -38l3 -3h1q-5 -1 -13 5q-23 18 -33 52q-6 19 -4 43q1 65 33 131q38 80 109 142q45 39 91 61q27 13 53 17q24 3 42 -12q29 -25 34 -54q2 -10 4 -26q5 -43 -4 -104q-12 -83 -34 -157l-15 -46q-2 -5 0 -8l15 8q53 28 91 43q22 9 64 20q15 4 24 -8l-15 -6
q-23 -7 -68 -25q-46 -18 -72 -32q-20 -10 -45 -26q-9 -6 -12 -14q-14 -43 -38 -97q-21 -47 -55 -105q-33 -60 -85 -130q-22 -30 -51 -64l-1 -1q-1 -1 -3.5 -4t-4.5 -4.5t-5 -1.5zM43 -160q7 4 15 17q60 78 103 150q54 89 89 178q1 2 4 10q0 1 -1 1q-1 1 -2 1q-6 -4 -9 -7
q-30 -25 -59 -53q-59 -59 -95 -123q-34 -60 -45 -118q-5 -24 -4 -42q0 -10 4 -14z" />
    <glyph glyph-name="K" unicode="K" horiz-adv-x="692" 
d="M115 -193q-12 4 -13.5 6t0.5 15q4 25 14 53q9 22 18 59q13 56 43 166l24 90q3 11 -1 20q-13 30 -17 60v8q0 1 1.5 1.5t2.5 -0.5q4 -1 4 -6q6 -22 10 -33q0 -2 1 -4.5t2.5 -5.5l2.5 -5q0 -1 2 -1t2 1q2 6 2 8l38 136q28 97 43 179q10 49 14 88v16q-2 5 -6 4q-10 -4 -14 -7
q-17 -9 -38 -26q-36 -28 -75 -74q-77 -91 -123 -192q-26 -51 -34 -100q-6 -38 2 -72q8 -29 29 -47q12 -10 24 -9q4 0 7 -2q-18 -4 -39 9q-22 16 -31 40q-12 29 -10 67q3 46 25 103q28 76 77 145q46 66 97 116q29 27 57 47q14 10 28 15q13 6 25 -2q19 -11 19 -35
q-1 -21 -7 -61q-13 -80 -49 -214q-6 -24 -45 -161q-3 -12 2 -21q24 -40 28 -46q3 -3 4 -5q1 0 8 7q75 100 150 188q47 54 135 166l73 90q1 2 4 5q1 1 4 1q1 0 1 -1q11 -6 4 -16q-4 -6 -14 -17.5t-14 -17.5l-104 -133l-86 -104q-96 -118 -142 -179l-3 -4q-2 -3 1 -8
q18 -24 36 -32q35 -16 75 -13q53 4 107 40q31 20 69 58q64 66 123 143q4 5 11 14.5t8 10.5q3 5 7 1l5 -3q4 -4 1 -8q-16 -26 -25 -38q-59 -78 -128 -146q-36 -36 -72 -58q-37 -21 -66 -26q-54 -11 -98 10q-40 19 -59 37q-4 4 -9 -1l-46 -66q-30 -44 -55 -89q-10 -19 -17 -48
q-3 -11 -7.5 -32l-6.5 -30q-4 -14 -7 -21q-4 -5 -9 -3zM175 4q3 2 8 11l14.5 21l11.5 17l41 59q4 5 1 11q-16 22 -27 43q-3 3 -4 3q-2 -1 -4 -8q-39 -130 -41 -157z" />
    <glyph glyph-name="L" unicode="L" horiz-adv-x="369" 
d="M395 -91q-24 5 -43 13q-92 36 -161 78q-6 3 -17 9t-15 8q-10 7 -21 -1q-20 -15 -46 -20q-22 -6 -43 3q-11 3 -21 9q-6 3 -9 9q-3 10 5 17q9 6 22 8q27 5 59 -1l12 -3q10 -3 17 4q14 17 27 38q18 32 37 77q41 99 59 170q14 50 26 120q8 46 13 103q3 77 -15 136
q-6 16 -11 23q-3 6 -10 8q-13 4 -27 1q-23 -4 -46 -19q-24 -18 -41 -36q-52 -58 -85 -130q-23 -52 -34 -89q-12 -42 -11 -72q1 -59 35 -109q2 -2 2 -3q19 -29 53 -10l9 6q4 0 5 -2v-4q-9 -11 -27 -13q-25 -1 -46 18q-6 5 -9 12q-46 66 -37 144q4 46 33 118q35 87 104 159
q29 29 58 41q10 5 25 7q21 4 39 -9q33 -22 42 -59q12 -43 13 -79q3 -44 -4 -97q-10 -83 -34 -175q-25 -99 -74 -209q-16 -39 -35 -63l-14 -17q1 -3 7 -5q31 -15 56 -30q66 -38 119 -58q47 -19 86 -16q40 3 41 3q46 6 70 43q18 28 21 55q2 16 -4 25v3q7 1 12 -6q7 -9 7 -17
q2 -35 -12 -56q-5 -8 -15 -22q-20 -27 -55 -35q-55 -9 -92 -3zM60 4q28 1 53 20q3 3 3 5q0 1 -4 3q-2 0 -5.5 0.5t-5.5 0.5q-26 3 -47 -1q-8 -2 -14 -6q-5 -4 -5 -9.5t6 -9.5q4 -2 8 -2q3 -1 11 -1z" />
    <glyph glyph-name="M" unicode="M" horiz-adv-x="696" 
d="M101 -3q-12 2 -14.5 5t-3.5 15q-1 14 4 56q7 58 29 153q15 62 53 184q37 125 51 179q8 28 13 65q0 13 -1 15q-4 1 -15 -6q-27 -16 -55 -46q-89 -94 -130 -209q-15 -41 -20 -77q-3 -27 2 -50q3 -15 11 -25q10 -13 25 -12h4q1 0 4 1q4 1 6 -2q-2 -2 -5.5 -2h-4.5
q-7 0 -11 1q-21 2 -32 20q-8 15 -10 35q-4 32 7 76q28 121 111 221q36 42 74 71q3 3 10.5 7.5t10.5 6.5q14 6 35 -5q5 -2 5 -10q1 -10 -1 -30q-2 -19 -12 -62q-16 -65 -56 -195l-50 -177q-19 -83 -28 -146l-3 -29q7 4 9 13q14 29 38 89q33 88 89 222q25 65 52 121
q40 83 74 129q16 22 38 48q7 8 17 15q6 5 16 2q13 -4 16.5 -10.5t1.5 -20.5q-4 -20 -11 -49q-12 -48 -47 -153q-32 -94 -47 -142q-23 -72 -38 -163q0 -2 -1 -6t-1 -6q0 -13 1 -14q3 1 8 12q17 33 47 103l50 115q16 35 37 68q14 20 22 30l7 7q9 9 14.5 9.5t17.5 -4.5
q5 -3 7 -10q3 -12 2 -21l-9 -71q-4 -47 2 -74q1 -14 10 -28q12 -19 34 -20q24 0 49 15q24 16 47 40q25 25 47 50l5 5q9 9 17 1q1 -1 0 -4q-4 -4 -5 -6l-46 -50q-20 -22 -46 -41q-37 -26 -78 -13l-12 3q-27 9 -38 38q-5 15 -5 29q-3 26 1 63q6 44 8 66q1 6 1 17q0 1 -2 3h-3
l-1 -1q-12 -11 -21 -24q-23 -32 -47 -80l-17 -39l-20 -47l-17 -40q-36 -83 -50 -109q-10 -18 -11 -19q-4 -5 -12 -4q-12 2 -14.5 5t-2.5 15q0 14 7 63q13 82 57 215q4 11 24 70t30 91q19 53 31 113q0 5 1 8q0 1 -1.5 2t-2.5 0q-5 -3 -13 -11q-29 -30 -54 -68
q-34 -52 -73 -134q-38 -86 -76 -184q-14 -33 -38 -95.5l-31 -80.5q-8 -21 -26 -61l-9 -15q-5 -6 -12 -5z" />
    <glyph glyph-name="N" unicode="N" horiz-adv-x="660" 
d="M381 -74l-8 3q-15 3 -20 20q-7 22 -9 48q-4 53 5 111q7 51 21 103q21 86 64 174q14 29 42 82t38 74q41 84 49 105q6 18 7 28q0 7 -7 5t-17 -9q-36 -22 -72 -60q-55 -57 -124 -159q-77 -116 -138 -245l-45 -89q-5 -12 -12 -20q-3 -3 -7 -2q-16 7 -17 10t1 15q13 96 49 224
q27 97 44 164q15 63 16 104q1 16 -2 35q-2 12 -5 14t-16 -1q-3 -1 -19 -9q-58 -30 -103 -93q-50 -67 -75 -168q-9 -35 -8 -67q0 -24 8 -50q5 -14 15 -23q6 -4 10 -4q6 0 5 -3q0 -1 -7 1q-22 6 -31 26q-6 16 -8 25q-11 47 0 93q17 87 57 155q45 76 120 121q21 10 30 12h7
q22 -5 36 -19q5 -5 9 -24q4 -23 -2 -70q-4 -38 -22 -107l-53 -199q-9 -33 -23 -99v-3t-1 -3h3q3 5 9 17l68 132q76 141 161 251q48 60 91 99q12 11 38 29q7 6 17 9q10 5 19 -1q20 -10 17 -33q-1 -12 -9 -34q-10 -26 -40 -93l-26.5 -54.5l-31.5 -64.5l-26 -55
q-40 -89 -61 -185q-12 -53 -18 -105q-7 -65 1 -108q1 -2 2.5 -7.5t2.5 -8.5q2 -3 6 -2q3 1 14 7q18 12 48 42q34 35 67 85l69 111q32 55 83 131q5 9 12 15q3 3 7 2q8 -2 3 -7q-2 -2 -22 -34l-37 -59l-91 -148q-41 -67 -86 -115q-18 -19 -36 -32q-1 -1 -3 -2.5t-4.5 -3
t-3.5 -2.5q-12 -6 -25 -2z" />
    <glyph glyph-name="O" unicode="O" horiz-adv-x="432" 
d="M75 -48q-26 10 -42 38q-17 28 -24 68q-11 57 -8 125q7 143 78 268q24 43 54 76q17 19 32 27q7 5 9 11q1 3 6 16.5t9 20.5q26 59 68 94q26 22 62 31q31 7 54 -5q36 -17 52 -50q14 -36 17 -70v-26q0 -46 -12 -104q-22 -104 -78 -222q-51 -106 -100 -179q-39 -58 -85 -92
q-21 -16 -42 -26q-25 -11 -50 -1zM85 -42q10 0 22 5q14 5 43 24q43 32 82 87q24 34 56 90q63 117 93 200q36 103 44 194q3 45 -5 82q-6 32 -22 56q-10 16 -31 19q-22 2 -41 -4q-39 -11 -72 -47t-58 -101q-2 -5 2 -9q3 -3 1 -11q0 -2 -2 -2l-2 1q0 1 -0.5 3.5t-1.5 3.5
q-3 -1 -5 -8q-22 -61 -32 -120q-4 -30 -3 -47q0 -9 1 -14q4 -4 7 -2q9 5 15 13l6 9q3 0 4 -1q8 -4 5 -12q-5 -13 -17 -19q-4 -3 -11 -3q-10 2 -17.5 9.5t-8.5 16.5q-1 8 -1 23q0 22 8 64q4 22 16 66q2 6 0 9q-5 -2 -11 -10q-24 -29 -42 -60q-68 -115 -79 -268q-1 -14 -1 -82
q1 -32 8 -70q9 -39 22 -61q8 -12 13 -18t15 -6z" />
    <glyph glyph-name="P" unicode="P" horiz-adv-x="573" 
d="M123 -51q-16 5 -17 7.5t-1 13.5q2 59 6 87q1 15 5 45q0 4 -1 5.5t-5 0.5q-20 -2 -36 1q-20 2 -44 18q-11 8 -13.5 24.5t4.5 25.5q8 14 30 27q4 3 11 -2q2 -2 0 -4q-4 -4 -7 -6l-13 -12q-9 -11 -9 -26t9 -26q3 -4 9 -6q8 -2 13 -2q24 -2 48 3q7 1 9 9q15 82 48 196l43 137
q35 118 43 154q11 42 17 79q4 30 3 46q0 12 -5 27q-3 7 -11 7t-22 -6q-16 -6 -39 -23q-36 -28 -71 -73q-61 -80 -96 -178q-21 -63 -18 -129q1 -24 9 -48q7 -21 22 -34q-3 -1 -8 1q-11 8 -20 27q-7 12 -10 30q-9 37 -4 88q4 50 30 115q30 75 74 135q37 48 74 79q18 14 28 19
t19 8q23 8 39 -4l7 -4q22 -11 24 -39q3 -22 -1 -52q-8 -49 -25 -113q-16 -65 -46 -157q-37 -118 -54 -186q-13 -49 -20 -83l-1 -1q0 -2 -1 -7.5t0 -8.5q4 -1 6 -0.5t5.5 2t5.5 1.5q2 2 5 2q8 3 11 11l28 73q62 150 139 264q53 78 117 144q34 35 67 54q27 17 52 22q18 5 34 2
q13 -2 21 -8q8 -5 13 -10q20 -15 20 -40q1 -18 -5 -39q-9 -35 -34 -80q-57 -99 -131 -172q-77 -76 -128 -116q-76 -60 -152 -101q-21 -11 -23 -11q-13 -5 -17 -18l-22 -69l-24 -75q-1 -3 -3.5 -9t-3.5 -9q-2 -5 -7 -3zM200 153q1 1 3 1t3 1q12 8 23 13q55 33 115 80
q64 51 125 112q49 49 71 76q35 44 68 101q22 38 34 69q9 22 12 47q1 15 -3 28q-4 12 -18 15q-19 4 -39 -2q-34 -8 -66 -31q-22 -15 -44 -37q-49 -47 -92 -106q-54 -69 -102 -159q-49 -93 -88 -198q-4 -6 -2 -10zM135 20q4 6 17.5 48t15.5 50q-3 0 -5.5 -0.5t-5.5 -1.5t-5 -1
q-9 -1 -10 -11l-6 -48l-3 -31q0 -5 2 -5z" />
    <glyph glyph-name="Q" unicode="Q" horiz-adv-x="554" 
d="M648 -102q-32 -1 -76 4q-29 4 -46 7t-51 11q-93 23 -173 67l-28 15q-6 3 -11 0q-20 -15 -44 -24q-40 -18 -74 -21q-57 -5 -104 23q-5 3 -13 11q-13 13 -11 30t16 28q13 10 30 13q29 5 70 -2q46 -7 100 -32q15 -6 16 -6q3 0 16 11q44 39 86 99q45 66 83 151q30 68 49 146
q18 72 11 143q-3 38 -18 72q-12 31 -52 38q-30 4 -62 -5q-52 -15 -104 -54q-77 -57 -142 -143q-44 -64 -60 -99q-32 -68 -43 -135q-5 -31 -2 -51q2 -17 7 -25q2 -3 0 -6q-15 12 -17 43q-3 35 7 76q27 115 98 212q62 85 142 145q45 34 94 51q33 10 59 9q20 -2 34 -8
q33 -17 54 -41q7 -9 10 -16q19 -39 23 -78q9 -74 -12 -153q-15 -56 -31 -98q-31 -75 -63 -128q-32 -55 -63 -93q-37 -44 -72 -71q-4 -2 -5 -5l3 -3q66 -34 89 -43q33 -12 99 -30q41 -10 101 -17q26 -3 52 -3q72 -1 128 47q16 15 28 34q2 3 8.5 15.5t9.5 19.5q2 9 2 11l-1 1
q-3 3 0 4q1 1 6 -2l3 -2q6 -3 8 -5.5t2 -5t-2 -9.5q-25 -81 -104 -111q-24 -10 -60 -12zM125 -33q55 7 113 45q3 1 4 5l-5 3q-47 23 -91 31q-38 5 -64 3q-22 -2 -37 -14q-25 -19 -8 -47q9 -13 23 -18q33 -11 65 -8z" />
    <glyph glyph-name="R" unicode="R" horiz-adv-x="752" 
d="M147 -46q-13 3 -13 18q-2 29 1 53q8 68 35 155l21 66q4 10 -2 20q-7 10 -13 25q-2 4 -4 12q0 6 5 8t15 4q14 2 23 4q2 3 3.5 6.5t3 8t2.5 6.5l76 197q44 111 77 207l9 30q0 2 -1 2q0 1 -2 1l-14 -9q-26 -18 -76 -60q-79 -70 -141 -151q-76 -100 -116 -200
q-16 -39 -22 -76q-3 -23 0 -46q2 -27 21 -43q-9 0 -19 12q-7 7 -11 22q-8 25 -4 62q6 39 28 96q48 114 133 215q90 106 192 179l18 11q11 8 22 -1l5 -3q5 -4 5 -11q0 -8 -3 -17q-5 -18 -22 -65q-49 -137 -91 -239l-45 -116q0 -1 -1.5 -4t-2 -4.5t0.5 -3.5q2 -3 13 0
q20 4 49 11q9 1 14 11q15 28 47 82q52 88 111 151q41 44 81 71q14 10 36 22q13 5 16 7q25 8 42 -7q11 -9 11 -21q0 -15 -2 -22q-5 -27 -22 -57q-21 -37 -51 -69q-78 -83 -157 -130q-51 -29 -97 -43q-10 -3 -14 -11q-35 -68 -59 -123q-4 -8 2 -15q22 -19 32 -27
q40 -29 88 -46q37 -13 86 -5q28 4 69 22q48 23 93 59q56 42 103 99q20 24 30 37q3 1 4 4q7 7 15 1q4 -4 1 -6l-1 -2q-55 -71 -97 -110q-68 -61 -137 -95q-43 -23 -97 -26q-35 0 -71 14q-67 28 -118 73q-7 5 -8 5q-2 -1 -7 -12q-35 -82 -55 -135q-14 -36 -22 -54
q-1 -3 -4.5 -10l-5.5 -11q-3 -5 -11 -3zM336 346q8 3 10 4q34 13 78 39q78 48 147 122q38 42 57 83q14 28 17 57q0 9 -1 14q-1 7 -9 7q-5 0 -7 -1q-12 -1 -25 -8q-29 -15 -51 -31q-52 -39 -102 -102q-54 -66 -115 -177q-2 -5 -2 -6q1 0 3 -1zM243 203q1 -2 3 0l3 6
q18 41 49 102q3 9 3 11q-3 -1 -6 -1q-22 -4 -56 -11q-6 -1 -9 -7q-5 -16 -17 -48q-3 -7 2 -15q17 -25 24 -34q2 -2 4 -3zM198 271q2 3 10 25q2 6 1 7.5t-8 0.5q-6 0 -9 -1q-8 -3 -5 -10q3 -12 11 -22zM149 -23q4 1 6 6q2 4 10 22l40 99l33 79q4 8 -2 15q-14 14 -24 30l-3 3
q-2 2 -4 -1l-3 -8q-23 -75 -31 -104q-15 -55 -21 -113q-1 -9 -1 -28z" />
    <glyph glyph-name="S" unicode="S" horiz-adv-x="741" 
d="M308 -37q-32 -8 -58 10q-14 10 -16 29q-1 15 7 32q12 24 30 45q30 37 81 75q83 59 141 88q12 5 12 17v29q-1 19 -14 35q-11 12 -26 17q-32 8 -61 4q-32 -3 -107 -24q-47 -12 -141 -38q-32 -9 -63 -12h-30q-24 1 -48 22q-8 6 -12 22q-6 20 1 48q6 26 24 60q47 93 107 162
q58 68 138 112q42 24 96 37q32 6 47 7q22 2 42 -3q49 -13 66 -56q13 -32 7 -67q-8 -50 -24 -85q-13 -31 -36 -57q-7 -9 -15 -13h-3q-2 1 -1 4l2 2q42 45 59 118q3 17 7 44q3 35 -14 69q-6 9 -7 10q-7 13 -24 16q-20 5 -45 2q-91 -13 -169 -68q-72 -50 -133 -132
q-51 -68 -87 -144q-12 -30 -16 -52q-2 -14 3 -32q3 -10 13 -11q24 -4 50 -1q39 4 96 20l150 40q34 8 59 11q28 2 48 -2q30 -6 56 -30q21 -20 23 -49v-8q1 -8 9 -5l6 3q106 44 146 57q28 10 65 19q9 2 11.5 1.5t9.5 -8.5q-1 -2 -12 -5q-54 -15 -85 -26q-92 -34 -136 -55
l-6 -3q-9 -2 -12 -14q-9 -38 -35 -85q-37 -64 -78 -112q-26 -29 -49 -46q-26 -19 -49 -24zM271 -28q21 0 45 12q26 14 45 33q29 26 57 66q46 63 69 117q8 18 9 24q-4 0 -14 -5q-45 -25 -85 -53q-40 -27 -62 -47q-41 -34 -66 -72q-14 -22 -17 -34q-5 -16 1 -30q5 -12 18 -11z
" />
    <glyph glyph-name="T" unicode="T" horiz-adv-x="276" 
d="M116 -58q-1 0 -3 0.5t-3 0.5q-11 4 -12.5 6.5t0.5 12.5q2 11 6.5 48t7.5 57l23 114q8 41 25.5 115.5l23.5 101.5q9 36 31 108l33 101q0 2 1 5.5t2 4.5q1 3 -3 5h-2q-91 -6 -141 -22q-28 -9 -52 -26q-11 -7 -22 -18q-12 -14 -15 -23q-8 -18 1 -33.5t28 -19.5q15 -3 19 -4
q-11 -3 -18 0q-24 7 -36 23q-16 19 -7 41q7 17 24 33q16 15 41 28q36 17 87 27q13 2 92 10h5q7 0 9 6l3 10q18 48 30 71l10 19q1 2 3 4q3 3 7 2q3 -3 1 -6q-4 -9 -22 -54q-10 -30 -14 -44q-3 -7 5 -7h54h46q39 -1 115 3q69 4 111 13q28 5 65 19q33 13 60 47q5 7 1 12
q-1 2 3 4q2 0 8 -4q8 -6 8.5 -10t-4.5 -13q-22 -31 -49 -45q-30 -16 -75 -26q-28 -6 -84 -12q-73 -6 -155 -4h-104h-2q-8 0 -9.5 -1t-3.5 -10q-1 -1 -1 -2q-34 -108 -66 -252l-43 -188q-17 -81 -26 -140l-12 -66q0 -4 -2 -16q0 -3 -3 -6z" />
    <glyph glyph-name="U" unicode="U" horiz-adv-x="870" 
d="M180 -9l-2 1h-2q-19 5 -22 28q-4 23 -2 56q4 42 14 94q28 131 82 263l74 175q12 28 32 86q8 24 11 43q2 14 -1 23q-2 6 -7 5q-8 0 -16 -3q-28 -8 -55 -26q-48 -31 -105 -82q-57 -52 -97 -118q-36 -58 -54 -111q-15 -47 -15 -86q-1 -38 14 -77q10 -28 30 -43l2 -3l-1 -1
q-11 3 -23 17q-14 15 -22 38q-22 52 -12 112q11 73 55 152q42 73 112 138q52 49 106 83q28 16 50 23l14 3q14 2 22 -6l5 -3q23 -12 20 -44q-1 -10 -7 -32q-8 -30 -21 -61q-9 -25 -28 -69.5l-24 -56.5q-44 -104 -63 -157q-35 -100 -56 -200q-8 -38 -12 -78q-3 -24 -1 -54
l3 -15q1 -7 8 -4q10 4 15 7q19 11 37 29q20 18 43 49l107 149l151 225q52 76 97 125q28 30 45 43q19 13 32 18q22 8 33 -11q2 -3 2 -9q1 -9 -2 -20q-13 -44 -33 -82l-62 -117q-51 -100 -73 -185q-10 -42 -14 -76q-2 -15 1 -36q1 -7 7 -17q6 -13 20 -11q17 2 32 7q23 8 51 27
q60 41 113 103l83 96q8 8 12 13q6 6 7.5 6t9.5 -5q-1 -4 -9 -12l-79 -93q-46 -52 -72 -75q-22 -21 -57 -47q-35 -24 -59 -29q-27 -7 -47 5l-7 3q-29 14 -32 49q-1 19 2 44q6 47 27 111q11 32 39 94q21 44 62 115q38 68 57 113q4 10 5 15q2 4 2 9q1 5 -0.5 6t-5.5 0
q-5 -1 -20 -9q-28 -16 -57 -49q-38 -40 -79 -99l-122 -180l-150 -215q-24 -33 -45 -55q-15 -16 -34 -29q-7 -5 -16 -10q-11 -4 -23 0z" />
    <glyph glyph-name="V" unicode="V" horiz-adv-x="687" 
d="M212 -125q-7 1 -13 11l-6 24q-3 20 -3 70q0 44 13 128q13 81 47 241q18 88 24 129q4 20 8 62q2 19 -1 35q-3 13 -6 14.5t-15 -3.5q-9 -4 -25 -14q-36 -25 -76 -66q-49 -51 -83 -108q-36 -63 -48 -110q-12 -52 -10 -87q2 -28 14 -47q8 -12 14.5 -14.5t22.5 1.5q21 7 40 23
q11 11 16 17q5 2 6 2q3 -2 0 -8l-3 -3q-18 -22 -43 -34q-15 -9 -37 -3.5t-33 25.5q-12 22 -15 55q-1 23 4 54q13 84 67 164q54 81 130 142q9 7 27 19q9 5 22 10q11 3 27.5 -3t22.5 -15q5 -8 7 -19q3 -17 2 -30q-2 -34 -14 -100q-9 -54 -33 -160l-33 -163q-14 -90 -15 -137
q-2 -33 1 -60q0 -15 6 -32q2 -7 7 -3q10 6 14 9q19 15 36 39q15 19 30 44q66 114 103 198l3 6q4 7 3 9t-9 5q-3 1 -5 2q-25 10 -36 35q-11 24 -13 52q-3 55 14 123q21 87 65 156q23 36 49 62q17 15 27 21l11 6q25 12 52 -8q4 -3 8 -13q4 -12 2 -31q-4 -29 -14 -66
q-16 -55 -46 -133q-37 -97 -75 -181q0 -2 -1.5 -5.5t-2.5 -5.5q0 -1 -1.5 -4l-2 -4t1.5 -4q2 -2 13 0q32 5 55 14q57 22 98 47q24 15 57 45l39 34q4 4 8 3q11 -4 3 -10q-58 -58 -92 -81q-57 -37 -118 -56q-30 -9 -59 -8q-10 1 -11 0t-6 -10q-25 -55 -44 -91
q-48 -92 -76 -136q-22 -36 -48 -59q-1 0 -2.5 -2t-2.5 -2q-14 -10 -21 -11t-22 4zM416 195q5 0 7 3q1 2 2.5 5.5t1.5 4.5l22 49q39 92 68 171q29 84 40 132q8 34 8 50q0 17 -3 26q-4 7 -11 6q-11 -1 -22 -9q-8 -4 -22 -16q-26 -23 -49 -58q-47 -71 -66 -152
q-16 -65 -17 -116q0 -14 1 -23q3 -26 13 -47q9 -15 18 -21q6 -4 9 -5z" />
    <glyph glyph-name="W" unicode="W" horiz-adv-x="852" 
d="M882 334q1 -3 -4 -5q-7 -5 -8 -5q-57 -30 -109 -38q-32 -6 -63 11q-4 1 -8 5q-4 1 -6 -2q-2 -2 -4 -7l-30 -52q-27 -46 -77 -109q-18 -21 -38 -37q-16 -11 -33 -17q-13 -4 -26.5 1t-21.5 17q-4 6 -8 20q-8 29 -4 69q2 20 1 26q-1 -1 -7 -9q-32 -52 -116 -179l-73 -107
q-18 -26 -43 -53q-8 -10 -14 -14q-9 -6 -18 -2l-2 1h-3q-13 3 -18 17q-8 17 -9 34q-2 23 2 68q4 54 14 118q21 131 53 242q24 88 64 182q12 29 67 147l13 28q1 1 1.5 3.5t0.5 3.5t-1 1q-1 1 -2 1q-4 -2 -6 -4q-76 -54 -121 -93q-96 -87 -156 -188q-27 -46 -42 -90
q-11 -28 -14 -65q-1 -14 2 -31q0 -1 2 -7q7 -19 27 -15q12 1 25 8q4 2 6 2l1 -2v-1q-25 -18 -50 -10q-14 6 -20 20q-3 7 -5 22q-3 38 10 78q18 57 52 115q47 79 128 157q52 48 127 101q4 2 11.5 7.5l11.5 8.5l10 6q7 3 13 -1q14 -8 9 -23q-7 -22 -10 -28q-32 -66 -47 -100
q-75 -165 -111 -326q-19 -82 -28 -145q-4 -26 -13 -92q-6 -52 -6 -79q0 -23 4 -42q2 -9 6 -18q4 -4 6 -1q8 5 15 14q34 37 55 69l193 291q15 25 19 48q11 57 23 95q17 56 44 90q5 8 14 15q11 9 20 2q1 -1 2 -1q2 -1 3 -1q7 -4 7 -12q1 -9 -2 -21q-4 -15 -16 -43
q-18 -38 -60 -110q-2 -5 -7 -12.5t-6 -9.5q-8 -12 -9 -24q-8 -56 -10 -84q-2 -32 6 -54q2 -8 4 -13q4 -9 7 -10t12 2q23 6 47 27q14 12 27 29q62 76 98 146q1 2 11 19q2 5 -1 8q-22 27 -22 72q0 34 12 79q15 47 37 81q4 6 14 18q5 5 13 10q13 6 26 -1q25 -12 26 -40
q0 -16 -5 -36q-7 -30 -31 -86q-30 -64 -47 -95q-4 -8 -3 -10.5t9 -5.5q27 -11 60 -4q45 8 97 33l13 6q5 3 8 0q2 -1 5 -4zM689 343l39 81q15 31 28 72q7 29 6 39v12q0 9 -5 17q-4 9 -14 6q-9 -3 -16 -10q-9 -7 -16 -20q-26 -41 -39 -98q-10 -45 -6 -80q4 -22 9 -33q3 -5 6 0
q2 2 4.5 7zM520 425q-21 -38 -33 -93q-4 -10 -8 -30q5 7 10 17q36 64 51 98q10 25 14 45q2 3 0 6q0 2 -3 1l-9 -9q-12 -14 -22 -35z" />
    <glyph glyph-name="X" unicode="X" horiz-adv-x="604" 
d="M24 -155q-13 -8 -24 4q-1 1 0 3.5t2 2.5q7 -1 22 10q50 37 80 79q13 17 29 45q72 130 81 148q0 2 2 4q6 9 3 20q-4 19 -10 57q-5 41 -7 95q-2 39 -2 112v90q0 62 -9 110q-4 22 -9 32q-5 13 -19 7q-9 -4 -18 -13q-28 -27 -51 -66q-55 -97 -74 -195q-9 -44 -7 -92
q1 -20 8 -43q10 -26 28 -36q-3 -1 -8 1q-13 7 -23 23q-9 15 -15 43q-5 33 -2 74q11 117 73 231q23 41 55 73q10 10 17 13q15 8 28 0q2 -1 6.5 -3.5t6.5 -4.5q12 -7 17 -22q8 -17 11 -40q4 -28 6 -59q3 -36 3 -143q0 -55 3 -111q4 -64 9 -96q1 -1 1 -4q0 -1 0.5 -2t1.5 0
q3 0 3 2q2 2 4 6l78 151q45 86 82 140q44 62 89 107q19 21 42 35q23 16 51 20q8 1 23 1q7 0 7 -3q0 -2 -7 -4q-44 -4 -84 -41q-28 -27 -65 -75q-49 -63 -99 -158l-113 -216q-4 -9 -3 -19q11 -52 31 -94q8 -18 19 -30q8 -8 21 -7q22 4 46 17q20 12 36 27q36 34 89 98
q62 76 110 153q12 18 18 26q3 4 5 5.5t4 1t8 -3.5l-3 -6q-1 -2 -8 -12l-11 -16q-83 -129 -170 -224q-26 -29 -49 -46q-22 -17 -42 -25q-24 -8 -36 -5q-31 10 -43 25q-13 15 -24 41q-6 14 -16 42q-2 6 -4 7l-7 -10l-72 -130q-24 -42 -56 -74q-26 -26 -69 -53z" />
    <glyph glyph-name="Y" unicode="Y" horiz-adv-x="702" 
d="M732 331q1 -3 -3 -5l-14 -8q-52 -22 -128 -79l-116 -90q-7 -6 -34 -26q-7 -4 -12 -17l-30 -82q-22 -55 -49 -102q-30 -49 -71 -77q-20 -15 -48 -23q-19 -4 -39 6q-10 5 -10 16q-1 7 1 17q5 18 14 34q28 48 66 91q41 47 116 111q11 10 28 23q7 5 10 15q7 20 14 43l15 51.5
t13 43.5q2 9 5 19t7 22t6 19q2 9 2 11q-2 0 -10 -8q-48 -52 -75 -76q-38 -35 -71 -57q-32 -23 -81 -44q-22 -8 -35 -8q-26 0 -48 19q-8 6 -13 19q-5 15 -5 28q-3 40 4 88q15 117 66 274l24 74q1 1 1 4t1 5v2h-3l-7 -6q-105 -93 -170 -222q-26 -52 -35 -94q-4 -21 -6 -42
q-2 -22 4 -40q1 -6 5 -11q10 -21 30 -18q3 0 4 -1q1 0 1 -1q0 -2 -3 -2q-28 -1 -42 23q-9 13 -11 34q-3 47 13 96q18 55 52 115q48 84 117 150l43 40q9 9 13 9t16 -8q5 -2 5 -9q-2 -12 -4 -17q-5 -19 -17 -55q-36 -110 -54 -184q-18 -77 -25 -142q-4 -33 -3 -64q2 -19 5 -29
q1 -5 7 -15q7 -10 20 -10q15 1 35 8q52 18 103 58q67 52 135 128q16 20 24 28q7 11 12 21q13 40 33 93q14 37 38 75q10 17 26 33l8 8q12 7 15.5 6.5t15.5 -8.5q4 -3 4 -8q0 -10 -3 -19q-6 -21 -24 -52q-15 -27 -47 -72q-3 -5 -41 -56q-6 -8 -9 -16q-36 -114 -52 -171
l-15 -48q-2 -10 -4 -14q5 -1 10 4l70 55q74 56 114 80q15 9 45 24.5l34 17.5q6 2 9 0q6 -2 8 -5zM538 461v-6h2q6 8 8 12q38 51 58 92q12 26 15 40q0 2 1 4l-1 1h-3l-7 -6q-17 -19 -31 -43q-20 -35 -42 -94zM475 345h1q-1 1 -1 0zM394 80q2 5 1 7q-4 0 -8 -4l-24 -21
q-66 -58 -95 -92q-37 -42 -58 -77q-10 -16 -14 -32q-3 -11 -3 -19q1 -16 16 -13q3 1 7 2.5t6 1.5q23 8 40 21q37 28 65 75q32 54 67 151z" />
    <glyph glyph-name="Z" unicode="Z" horiz-adv-x="802" 
d="M59 -37q-27 -5 -53 16q-8 7 -5 19q3 7 9 13q10 13 30 21q15 7 49 11q24 3 73 -1q9 -1 17 5q46 39 93 91l181 213q83 101 130 153q88 97 169 158q1 1 2.5 2t3 2.5t1.5 2.5q-3 3 -9 1q-172 -34 -257 -54q-48 -11 -98 -30q-101 -40 -182 -103q-42 -33 -62 -67
q-20 -31 -21 -56q-1 -15 5 -29q9 -18 29 -18q3 0 9.5 0.5t9.5 0.5q2 0 2 -1q1 -1 -1 -3q-12 -4 -24 -1q-42 12 -43 52q0 19 9 42q14 31 40 61q29 30 60 53q97 71 208 103q78 21 154 36q9 2 164 33q3 1 8 1t8 1q14 3 28 -13q2 -4 -1 -5q-4 -6 -10 -10q-9 -8 -26.5 -22
t-20.5 -16q-59 -51 -122 -117q-37 -39 -129 -149l-199 -233q-36 -42 -78 -78q-1 -1 -2 -2.5t-2.5 -2.5t-2.5 -2v-1q0 -3 5 -3q16 -2 130 -23q58 -9 77 -9q105 -2 190 62q46 33 97 93q22 26 74 102l41 62q4 4 5 6q2 3 4 1q9 -3 5 -12q0 -1 -1 -2.5l-2 -3t-1 -2.5
q-56 -92 -100 -148q-40 -54 -91 -97q-71 -61 -162 -74q-39 -6 -85 1q-51 8 -98 18q-36 8 -85 13q-19 3 -21 2q-4 -2 -17 -12q-46 -31 -80 -43q-22 -7 -29 -8zM25 -25q14 -2 26 1q35 8 74 33q15 8 28 19q-2 1 -2 2h-4q-39 4 -80 -5q-15 -5 -27 -12q-10 -6 -18 -15
q-4 -6 -5 -10q-4 -12 8 -13z" />
    <glyph glyph-name="bracketleft" unicode="[" horiz-adv-x="295" 
d="M94 -47q-28 4 -47 11q-8 3 -7 12q0 4 2 10q30 99 52 229l32 190q4 23 13 68.5t13 68.5q3 16 9.5 47.5t9.5 47.5l9 40q0 2 1 5t2 5q4 11 7.5 13.5t14.5 2.5q25 0 49 -3q8 -2 10 -2l1 -2l-1 -2q-1 0 -4 -0.5t-4 -1.5h-37h-10q-7 -2 -8 -7q-3 -5 -4 -11q-5 -23 -13 -69
q-15 -85 -23 -139q-10 -56 -14 -84l-15 -88l-20 -117q-13 -69 -33 -144q-1 -5 -15 -52l-1 -7q-1 -7 4 -10q17 -7 25 1q7 6 14 -1q2 -2 1 -4q0 -5 -4 -6q-3 -1 -9 -1z" />
    <glyph glyph-name="backslash" unicode="\" horiz-adv-x="343" 
d="M306 77q-8 -3 -12 5l-2 3q-47 103 -78 162l-59 117l-63 114q-18 32 -48 98q-4 8 -4 12q0 1 2 3q2 1 4 -1l3 -4l22 -39l50 -93l54 -93q73 -134 128 -253q6 -14 8 -21q4 -7 -5 -10z" />
    <glyph glyph-name="bracketright" unicode="]" horiz-adv-x="295" 
d="M100 -47q-25 0 -49 3q-8 2 -10 2l-1 2l1 2q1 0 4 0.5t4 1.5h37h10q7 2 8 7q2 5 4 11q5 23 13 69q15 85 23 139q10 56 14 84l15 88l20 117q13 69 33 144q1 5 15 52l1 7q1 7 -4 10q-17 7 -25 -1q-7 -6 -14 1q-3 2 -1 4q0 5 4 6q3 1 9 1q28 -4 47 -11q8 -3 7 -12
q0 -4 -2 -10q-30 -99 -52 -229l-32 -190q-4 -23 -13 -68.5t-13 -68.5q-3 -16 -9.5 -47.5t-9.5 -47.5l-9 -40q-1 -1 -2 -4.5t-1 -5.5q-4 -11 -7.5 -13.5t-14.5 -2.5z" />
    <glyph glyph-name="asciicircum" unicode="^" horiz-adv-x="301" 
d="M45 616q-3 -1 -4 0.5t-1 5.5q2 24 12 48q15 36 46 80q15 20 47 32q13 3 20 -7q6 -8 8 -12l36 -59q26 -42 58 -79l2 -2q3 -3 2 -6q-5 -5 -8 -1l-9 6q-4 4 -26 28q-21 24 -57 78q-4 5 -20 28q-2 4 -9 11q-5 5 -10 0q-1 -1 -2.5 -2t-2.5 -2.5t-2 -2.5q-39 -50 -58 -101
q-6 -15 -9 -30q-3 -10 -13 -13z" />
    <glyph glyph-name="underscore" unicode="_" horiz-adv-x="260" 
d="M230 12q-17 12 -49 12q-48 2 -121 -3q-8 -2 -11 -2q-8 -1 -9 7q-1 6 6 9q15 3 29 3q60 4 89 5q20 0 30 -1l15 -3q19 -8 21 -27z" />
    <glyph glyph-name="grave" unicode="`" horiz-adv-x="115" 
d="M77 721q-4 -4 -6 2t-9 15t-7 10l-12 21q-2 4 -3 5q0 2 5 7q3 1 6 -2q16 -18 33 -46q3 -4 -1 -8z" />
    <glyph glyph-name="a" unicode="a" 
d="M140 245q-16 -11 -37 3q-4 2 -7 11q-3 11 -1 34q5 33 20 70q3 11 2 12q-1 0 -7 -6l-55 -67l-22 -24q-1 -1 -7 -5q-13 -9 -23 2q-3 3 -3 7l3 14q14 38 41 65q5 5 11 8q8 7 22 3l5 -2q9 -3 10.5 -2.5t7.5 7.5l29 36q1 2 4 5q6 6 13 2q5 -3 4 -8t-5 -15q-18 -44 -26 -75
q-9 -31 -8 -52q0 -10 2 -15q1 -5 6 -3q7 1 17 7q20 13 37 30q11 11 31 33q4 3 10 9q5 5 10 2q7 -3 1 -8q-40 -43 -49 -51q-16 -15 -27 -22zM19 284q4 2 14 12q3 3 52 61q5 7 -4 10q-6 1 -11 -2q-6 -2 -15 -11q-23 -27 -37 -63q-2 -3 1 -7z" />
    <glyph glyph-name="b" unicode="b" horiz-adv-x="220" 
d="M6 128q-13 0 -17 11q0 1 -3 14q-2 15 2 47q9 78 40 178q40 123 106 231q23 38 43 61q12 15 23 24q9 8 21 12q9 4 15 -2h2q15 -9 12 -25q-1 -14 -6 -28l-22 -51q-30 -61 -69 -121q-76 -125 -108 -171q-9 -13 -23 -41q-7 -12 -10 -29q-8 -44 -10 -66q-2 -28 2 -27
q2 1 15 22q28 56 34 67q12 23 29 47q12 16 20 23q8 8 18 3q15 -7 16 -19q2 -8 2 -13q2 -6 6 -2q10 10 37 30q15 12 49 30q11 7 20 -2q-2 -4 -8 -6q-21 -10 -67 -44q-11 -9 -32 -30q-5 -5 -8 -15q-6 -35 -27 -64q-3 -4 -10 -11q-5 -5 -11 -2q-13 5 -10 19q4 16 16 35
q6 10 22 28q8 10 8 20q0 18 -1 26q0 5 -2 9t-4 2q-5 -3 -12 -10q-14 -17 -27 -38q-15 -23 -39 -73l-18 -34q-2 -4 -8 -12q-3 -3 -6 -3zM29 302q2 1 5 6l19 30q63 99 120 201q29 50 49 97q10 22 14 40q1 5 1 15q0 5 -6 4q-7 -3 -13 -9q-8 -6 -20 -20q-24 -28 -45 -64
q-79 -130 -123 -289q-2 -9 -1 -11zM96 183q11 13 12 24q-12 -13 -12 -24z" />
    <glyph glyph-name="c" unicode="c" horiz-adv-x="124" 
d="M31 237q-15 -9 -35 4q-4 3 -6 9q-2 8 -2 12t2 14q9 44 42 74q16 12 25 14q15 5 26 -3q4 -2 4 -6q0 -1 -1 -3v-1q-3 -1 -5 1q-1 2 -1 4q-3 4 -7 3q-11 -2 -20 -9q-14 -11 -24 -25q-19 -28 -25 -62v-4q0 -14 4 -16t14 3q19 8 37 23q54 42 74 56l12 8q1 1 8 -1q3 -3 0 -5
l-2 -3l-86 -66l-20 -14q-7 -4 -14 -7z" />
    <glyph glyph-name="d" unicode="d" horiz-adv-x="219" 
d="M83 244q0 -2 -6 -53q-2 -18 3 -35q4 -14 15 -5q8 6 22 20q43 50 70 91l35 52l12 16q4 5 10 2q4 -2 2 -5v-1q-11 -15 -31.5 -48t-32.5 -49q-23 -31 -50 -62q-14 -16 -23 -23q-11 -8 -24 -5t-18 15q-4 10 -6 31q0 22 3 43q5 40 12 77q2 8 0 12q-2 -1 -6 -5l-27 -30
q-2 -2 -12 -10q-8 -5 -14 -1l-6 3q-8 3 -8 10q0 11 1 17q6 29 23 48l8 8q10 7 22 4q13 -5 21 -13q8 5 12 20q5 25 10 40q7 28 20 59q28 67 61 127q15 27 31 44q11 11 18 15q13 8 27 -6q2 -1 2 -8q1 -5 -4 -21q-7 -21 -22 -51q-15 -32 -60 -106q-40 -62 -61 -92
q-7 -9 -10 -23q-14 -60 -19 -102zM122 421q-3 -8 -1 -12q5 7 5 8l43 66q34 53 51 87q18 38 24 58q2 8 2 13t-4 3t-10 -8q-11 -11 -23 -28q-15 -22 -39 -70q-32 -67 -48 -117zM71 336q2 4 1 8q-10 20 -25 6l-4 -3q-18 -22 -25 -56v-5l2 -3h4l2 2q17 15 45 51z" />
    <glyph glyph-name="e" unicode="e" horiz-adv-x="165" 
d="M35 237q-13 2 -28 16q-6 6 -6 16q-3 15 2 32q5 19 17 43q17 35 37 57q14 14 19 17q4 4 9 6q7 3 15.5 -1t10.5 -11q1 -4 0 -8q-2 -9 -12 -25q-17 -25 -43 -48q-2 -2 -25 -19q-4 -3 -8 -11q-6 -18 -4 -41q1 -14 15 -11q16 2 24 5q12 5 29 15q31 19 79 58l8 6q7 5 9.5 5
t11.5 -7q-2 -2 -4.5 -3.5t-3.5 -2.5q-56 -49 -98 -72q-22 -13 -42 -16q-6 -1 -12 0zM36 330q2 -1 5 2q22 20 32 32q16 20 22 32q5 8 5 15q0 5 -4 3q-7 -3 -17 -13q-25 -28 -43 -67q-1 -3 0 -4z" />
    <glyph glyph-name="f" unicode="f" horiz-adv-x="124" 
d="M-27 45q-5 2 -3 8l3 31q9 69 21 134q5 31 17 93q1 1 1 5q2 5 -4 5h-8q-3 0 -3 4q0 1 2 3q4 2 6 2q11 1 14 15q22 83 24 89q26 88 41 130q18 46 30 68q5 11 15 22q3 4 9 10q10 9 20 6t14 -15q2 -8 2 -12q1 -27 -7 -57q-18 -62 -55 -118q-2 -5 -5 -6q-1 -1 -4 -1q-2 2 -1 3
q1 4 5 10q24 40 38 78q13 34 17 63q1 11 1 33q0 3 -1 4q-3 8 -4 8q-2 1 -7 -4q-5 -4 -13 -16q-10 -17 -17 -32q-18 -42 -35 -97q-26 -78 -45 -156l-3 -15q-2 -5 4 -5q7 0 29 0.5t34 1.5q1 0 38 3q7 1 10 -9q-34 -4 -51 -5q-9 -1 -25 -1h-33q-7 -1 -9 -2t-3 -9
q-3 -12 -7.5 -33.5l-6.5 -30.5q-9 -51 -22 -136l-6 -34q0 -2 -1.5 -10t-1.5 -12v-7q-2 -8 -4.5 -8.5t-9.5 2.5z" />
    <glyph glyph-name="g" unicode="g" horiz-adv-x="227" 
d="M251 331q10 -4 2 -12l-26 -22q-74 -63 -140 -137q-10 -11 -16 -25q-30 -68 -74 -157q-24 -47 -45 -72q-12 -14 -19 -20q-12 -8 -23 -2q-11 4 -10 16q0 8 3 16q5 18 17 40q26 47 68 104l64 81q4 4 8 12l103 226q6 10 6 16q-1 1 -7 -2q-22 -18 -32 -27q-30 -26 -60 -48
q-8 -6 -26 -16q-13 -7 -25 2q-5 5 -4 10q0 4 2 12q14 32 41 53q11 8 22 9q17 3 29 -10q-22 8 -41 -8q-25 -19 -38 -52q-1 -2 -1 -5t3 -3q7 3 14 8q25 16 59 44q31 24 61 52q1 1 7 5q7 7 16 1q5 -5 4 -9q-1 -5 -5 -15q-14 -36 -46 -106q-26 -54 -38 -81q-5 -9 -3 -13l18.5 19
l18.5 19l79 75q13 13 25 21q4 3 9 1zM31 93v1q0 -1 -1 -1h1zM29 82q4 7 1 11l-29 -40q-42 -56 -67 -101q-14 -26 -18 -41q-3 -8 -3 -16l1 -2q2 -2 4 0q8 5 16 15q10 11 26 37q19 31 51 99z" />
    <glyph glyph-name="h" unicode="h" horiz-adv-x="202" 
d="M-13 99q-12 4 -12 17q-1 12 1 36q9 67 29 138q32 113 44 146q35 108 89 195q16 25 29 39q6 8 15 12q9 6 18 0l3 -3q10 -6 8 -17q-2 -16 -7 -28q-8 -25 -30 -73q-28 -60 -86 -155l-56 -95q-7 -9 -10 -23q-20 -72 -27 -121q-5 -31 -4 -42q3 3 8 13q12 30 20 44q5 12 15 25
q9 11 16.5 11.5t20.5 -9.5q1 -1 6 -8l6 -9q7 -9 18 -4q12 7 20 15q15 13 32 36q12 15 50 70l17 22q2 4 9 2q5 -3 2 -7q-3 -5 -30.5 -45.5t-44.5 -60.5q-18 -23 -30 -32q-5 -4 -15 -10q-10 -3 -19 0q-18 5 -25 20l-3 4q-4 7 -6 7.5t-9 -5.5q-4 -4 -12 -16q-14 -23 -29 -63
l-9 -22q-3 -7 -12 -4zM41 350q4 2 8 10l56 98q42 72 71 144q2 4 18 44q5 18 5 23l-1 2q0 1 -1 1h-4q-7 -4 -13 -12q-14 -15 -28 -40q-32 -52 -63 -125q-14 -33 -46 -135q-3 -8 -2 -10z" />
    <glyph glyph-name="i" unicode="i" horiz-adv-x="147" 
d="M63 415q-8 3 -8 10q3 10 8 16q2 4 7 2q1 0 3 -2q-1 -1 -1 -3q-5 -5 -2 -10q2 -3 0 -6q-1 -7 -7 -7zM54 244q-14 -5 -31 3q-9 5 -11 16l-2 14q3 41 21 77q4 6 7 9q2 2 5 1t5 -3v-4q-16 -25 -22 -81q-2 -12 1 -21q3 -5 8 -5q3 0 18 5q24 14 36 22l68 53q3 3 5 4q6 6 14 -1
q1 0 1.5 -1t-0.5 -2l-4 -4q-56 -46 -93 -69q-15 -9 -26 -13z" />
    <glyph glyph-name="j" unicode="j" horiz-adv-x="104" 
d="M56 412q-3 0 -6 2.5t-2 4.5q0 16 9 26q1 1 3 1q1 0 4 -3v-6q6 -8 -2 -21q-3 -5 -6 -4zM129 331q8 -3 3 -8q-13 -13 -35 -37.5t-31 -33.5l-75 -92q-7 -11 -10 -24q-18 -64 -34 -105q-28 -78 -59 -127q-4 -10 -12 -18q-4 -8 -11 -14q-12 -12 -26 -1q-2 2 -4 8q-1 9 3 27
q2 12 16 49q16 41 57 109l53 80q7 9 11 21q26 77 44 146q3 13 11 39q0 1 1 3.5t1 3.5q2 2 3 2q4 -2 5 -3q0 -2 -0.5 -4t-0.5 -3l-39 -149v-5q4 1 8 7q9 12 83 99q12 13 30 28q3 3 8 2zM-48 95q2 6 0 8l-30 -47q-30 -46 -47 -86q-18 -40 -24 -67q-3 -11 -3 -21l1 -2h3
q0 1 4 5.5t6 7.5q14 19 27 47q25 52 56 133z" />
    <glyph glyph-name="k" unicode="k" horiz-adv-x="187" 
d="M-12 130l-7 3q-3 1 -3 5l2 11l9 48q3 9 -5 14q-9 6 -15 15q-1 2 -1 5q2 3 5 3q3 -1 7 -1q13 -1 15 0.5t4 13.5q17 78 30 121q39 128 85 222q15 31 38 69q16 24 25 34q10 10 16 13q9 4 17 -1q1 -1 3.5 -2.5t3.5 -3.5q5 -3 5 -9t-2 -18q-6 -22 -21 -57q-36 -78 -81 -150
l-75 -125q-8 -16 -10 -24l-15 -69q-1 -2 -1 -7l1 -1h2q5 7 5 8q9 16 22 35q6 9 20 25q6 6 9 8q14 12 29 1q4 -1 4 -8q1 -4 -1 -10q-5 -14 -13 -24q-8 -13 -25 -28q-16 -13 -31 -17q-9 -3 -14 -12l-5 -10q-2 -5 4 -5q14 -1 32 6t41 23q52 39 82 72l23 26q5 5 13 2q3 -2 1 -6
q-27 -38 -70 -76q-33 -28 -57 -42q-37 -22 -70 -13q-5 1 -7 -3q-12 -28 -14 -41l-3 -16q-1 -6 -7 -4zM53 382q5 2 7 8l27 47q63 106 98 181q16 36 22 60q2 10 2 15q0 1 -1.5 2t-2.5 0q-3 -1 -12 -10q-8 -9 -22 -29q-23 -38 -42 -78q-36 -72 -75 -191v-2q0 -2 -1 -3zM42 246
q8 2 16 10q24 21 33 42q4 7 1 11q-7 -3 -17 -15q-18 -19 -33 -48zM-9 218q2 -1 2 2q0 5 -5 4q-2 0 -2 -1q-2 -5 5 -5z" />
    <glyph glyph-name="l" unicode="l" horiz-adv-x="117" 
d="M166 683q12 -8 11 -22q-1 -11 -5 -26q-6 -19 -26 -69q-53 -120 -104 -212q-6 -10 -7 -17q-17 -67 -24 -131q-6 -42 -6 -83q0 -8 1 -11q0 -1 2 -7q3 1 10 11q19 27 49 85l33 65q28 53 29 55q1 3 5 9q5 6 12 1q2 -2 1 -3q0 -2 -1 -3l-65 -129q-32 -60 -51 -88l-9 -12
q-5 -8 -14 -5q-1 0 -2.5 0.5t-2.5 1.5q-6 1 -8 8l-3 14q-1 11 1 66q5 50 19 123q25 113 61 216q9 27 29 79q15 40 35 68q10 13 13 15q8 7 17 1zM163 663q3 8 -1 9q-2 0 -7 -5q-1 -1 -7 -10q-16 -22 -29 -54q-35 -87 -64 -188q-2 -7 -1 -11h-1l-1 -1q2 0 2 1q2 2 4.5 6.5
t3.5 5.5q15 30 53 115q24 53 38 94q9 28 10 38z" />
    <glyph glyph-name="m" unicode="m" horiz-adv-x="258" 
d="M20 244q-10 3 -10 13q-2 20 1 35q5 43 22 93q1 3 5 14q2 4 6 3q4 -2 4 -6q-1 -2 -1.5 -5t-0.5 -5q-2 -8 -6.5 -27.5t-6.5 -30.5q-7 -35 -8 -62q0 -3 1 -4t4 2q1 2 6.5 11t7.5 14l41 76l11.5 21t8.5 16q2 3 10 14q10 14 23 2q3 -2 3 -6q0 -6 -2 -14q-6 -20 -16 -58
q-2 -12 -2 -14q2 -1 4 1q6 6 8 9q14 14 29 1q3 -3 3 -5q0 -1 3 -14q2 -13 5 -19q4 -13 17 -13q10 0 20 5q22 8 40 23l24 18q7 5 12 1q4 -3 1 -6q-10 -11 -23 -21q-13 -12 -37 -23q-22 -12 -46 -1q-16 7 -21 13.5t-8 23.5v7l-3 3q-2 0 -3 -1q-3 -3 -11 -13q-3 -3 -7 -8.5
t-7 -7.5q-3 -5 -8 -2l-4 1q-7 4 -8.5 6t-0.5 10q0 8 7 36q2 10 8 30q3 10 4 13q-2 0 -8 -6l-25 -45l-38 -71q-6 -11 -14 -23q-6 -7 -14 -4z" />
    <glyph glyph-name="n" unicode="n" horiz-adv-x="201" 
d="M16 248q-10 3 -9 12q0 7 2 23q13 70 42 128l5 9q3 3 6 2q3 -3 2 -6q-4 -6 -15 -34q-19 -47 -28 -102q0 -8 1 -10q2 2 4.5 7t4.5 7l27 48q6 10 15 21q5 5 11 2q10 -3 12 -14q1 -4 2.5 -12t2.5 -12q1 -12 8 -23q4 -8 13 -8q34 3 59 20l21 15q13 10 14 11q7 6 15 -1
q1 -3 -4 -5q-12 -12 -19 -17q-29 -26 -70 -31q-15 -1 -34 9q-10 7 -13 19q-4 9 -6 28q0 1 -0.5 3t-0.5 3t-1.5 2t-2.5 0q-4 -4 -10 -12q-6 -9 -15.5 -26t-13.5 -23q-13 -23 -14 -25l-5 -6q-3 -3 -6 -2z" />
    <glyph glyph-name="o" unicode="o" horiz-adv-x="155" 
d="M49 253q-18 -14 -33 5q-4 5 -6 17q0 21 7 38q6 13 3 23q-3 9 2 19q11 35 42 53l6 3q15 5 24 2t21 -15q4 -4 4 -12q2 -14 -1 -23q-6 -27 -19 -48q-1 -1 -2 -4t-2 -5q-3 -3 -1 -4q1 -1 5 -1q20 4 41 14l32 17q9 4 13 -6q0 -3 -3 -6l-21 -13q-31 -17 -70 -19q-8 3 -15 -8
q-14 -18 -27 -27zM69 301q6 -3 11 4q11 19 18 37q9 29 9 43q0 3 -2 11q0 6 -6 6q-11 0 -21 -7q-28 -17 -40 -50q-2 -5 2 -8q5 -4 1 -10q-1 -1 -1 -2q-5 -11 6 -16q11 -7 23 -8zM34 258q22 12 34 33l-5 3q-11 4 -25 14q-3 3 -5 -1q-9 -23 -6 -45q0 -6 7 -4z" />
    <glyph glyph-name="p" unicode="p" horiz-adv-x="220" 
d="M248 332q2 -2 2 -3q0 -2 -2 -2q-15 -6 -41 -11q-44 -10 -85 -33q-8 -5 -16 -15q-13 -18 -32 -36q-2 -4 -7 -6q-4 -2 -8 -1q-13 4 -6 16q6 10 19 21q1 0 5.5 4t7.5 6q13 8 21 25q12 26 14 35v5q0 2 -3 2q-2 -1 -4 -2.5l-4.5 -3.5t-3.5 -3q-20 -20 -41 -53
q-27 -43 -56 -107q-20 -46 -33 -91q-5 -14 -16 -64l-9 -42q0 -5 -3 -5q-6 -1 -11 2l-1 4q2 14 4 21q15 82 38 176q28 106 57 203q2 8 6.5 21.5l5.5 16.5l3 6q1 1 4 1q1 0 2 -1t0 -2q0 -7 -1 -10q-2 -5 -54 -212q-3 -12 -4 -13q4 0 5 2l5 11q24 52 42 81q19 32 40 57
q10 10 16 15q9 6 19 2q13 -6 12 -21q-1 -5 -4 -13.5l-4 -11.5q2 -2 7 0q6 2 20 8q13 6 80 23q8 2 14 -2z" />
    <glyph glyph-name="q" unicode="q" horiz-adv-x="200" 
d="M58 -71q-15 -4 -24 9q-7 10 -7 24q-3 24 1 57q6 54 20 113q2 14 -1 20q-1 2 -1 6q-3 13 6 21q8 6 14 25q18 53 44 114q2 4 19 44q2 3 4 11q-5 -1 -9 -7l-44 -46q-10 -12 -34 -32q-8 -7 -17 -11q-11 -5 -18 1l-4 3q-8 7 -7 14q0 9 3 16q11 32 33 51q12 9 26 13q13 2 23 -4
l15 -10q41 46 53 56q1 -1 2 -1q11 -7 11.5 -10t-3.5 -15q-50 -118 -64 -158q-2 -4 -4 -10q-1 -2 1 -6v-1q2 3 6 7l104 101q3 2 8 7q8 5 14 0l2 -2q0 -1 -1 -2.5t-2 -2.5l-136 -130q-9 -7 -10 -15l-9 -36q-3 -9 0 -23q22 -71 6 -149q-2 -10 -8 -28l-6 -10q-4 -4 -6 -4z
M20 288q5 2 13 8q19 14 59 56q3 4 0 9q-4 5 -10 5q-17 -2 -31 -14q-24 -21 -34 -58v-3q-1 -3 3 -3zM50 -59q11 14 17 55q8 63 -4 96q-1 -1 -4 -9q-1 -8 -4.5 -28l-5.5 -31q-5 -35 -4 -62q2 -15 5 -21z" />
    <glyph glyph-name="r" unicode="r" horiz-adv-x="189" 
d="M57 165q-3 2 -5 9q-3 15 0 31q5 32 21 79l24 65q3 5 2 9q-2 0 -13 -6q-41 -19 -46 -21q-16 -7 -23 -3q-4 3 -8 4q-11 6 -9 18l3 18q11 44 31 81q13 20 19 25q9 7 19 1q11 -7 11 -22q-1 -6 -5 -23q-6 -21 -21 -54q-1 -3 -5 -10t-5 -11v-4h4q26 12 38 18l13 6q4 3 9 0
q9 -5 10 -6.5t-1 -14.5q-5 -15 -17 -45q-22 -60 -29 -102q-2 -8 -4 -26q0 -3 2 -4q1 -1 5 1l13 13q8 8 53 64l55 70l6 7q5 5 11 2q6 -2 2 -8q-2 -4 -4 -6l-90 -116q-9 -11 -25 -29q-1 -1 -3.5 -4t-3.5 -4q-11 -9 -15 -9t-19 7zM18 340q2 -1 8 1q4 1 6 8q13 27 23 52
q4 10 10 30q5 15 5 26v5q0 3 -2 4l-5 -2q-9 -9 -15 -21q-25 -46 -32 -96q0 -6 2 -7z" />
    <glyph glyph-name="s" unicode="s" horiz-adv-x="151" 
d="M-10 62q-5 3 -5 8q0 9 2 14q4 16 18 46q25 45 50 78q8 11 9 22q2 30 1 45q-2 14 -6 21q-5 12 -16 16q-7 1 -16 7q-9 5 -6 15l1 7q14 31 32 48l12 9q4 2 7 2l2 -1q2 -1 2 -2q0 -2 -2 -4q-20 -16 -36 -50q-1 -3 -4 -13q-4 -10 6 -13q5 -4 11 -5q22 -12 25 -37q1 -5 2 -16
t1 -12q0 -3 2 -3l2 1l5 5q17 20 74 77l4 3q4 4 8 1q8 -4 2 -10l-56 -57q-7 -7 -19.5 -21.5t-17.5 -19.5t-7 -17q-8 -69 -58 -135q-2 -2 -3 -4q-10 -12 -26 -5zM3 83q16 16 33 52q14 30 16 41q-2 0 -6 -4q-23 -35 -35 -62q-1 -4 -3.5 -11t-4.5 -10q-2 -4 0 -6z" />
    <glyph glyph-name="t" unicode="t" horiz-adv-x="145" 
d="M-26 -64q-4 2 -5 2q-8 0 -12 10q-2 8 -4 24q-1 36 5 76q9 58 28 139l42 171q14 54 40 130q5 15 4 16.5t-17 -0.5q-76 -10 -114 -12q-31 -2 -52 3q-18 3 -34 13q-11 9 -14 15q-3 8 5 13q3 0 5 -1v-4q-3 -3 -4 -6q-2 -3 2 -7q1 0 2.5 -1t2.5 -2t2 -1q8 -4 24 -8
q22 -3 40 -2q37 2 131 17l23 3q5 1 7 6l3 11q6 16 15.5 46.5l13.5 42.5q1 2 2.5 5.5t1.5 4.5q2 2 4 2q3 0 4 -3q1 -4 -1 -12l-9 -34q-2 -9 -6.5 -25.5t-6.5 -24.5q-2 -10 -2 -12q2 -1 9 -1l73 12l78 9q121 15 146 19q29 4 46 5q16 1 38 -4q10 -3 11 -12l3 -13q0 -10 -4 -15
q-2 -2 -5 -2t-3 4q-2 8 1 13q4 5 -4 7q-23 5 -40 4l-101 -15l-50 -6q-19 -2 -55.5 -6.5l-53.5 -6.5l-85 -12h-5q-6 -1 -9 -8l-9 -31q-22 -74 -47 -182q-6 -28 -20 -83.5l-21 -83.5q-14 -60 -20 -112q-3 -24 -1 -52l1 -7q2 -2 4 -1q3 3 4 5q11 13 22 34q28 53 62 131
q59 137 80 179q7 16 16 32q2 6 10 3q4 0 2 -4l-2 -4l-123 -276q-29 -60 -37 -74q-11 -19 -20 -30q-2 -3 -6 -7q-5 -5 -11 -4z" />
    <glyph glyph-name="u" unicode="u" 
d="M103 192q-14 4 -20 9q-3 3 -3 6q-3 8 -1 18q5 35 13 61q0 2 1.5 7t2.5 9q-3 -1 -8 -9q-3 -3 -28 -37q-12 -16 -23 -23q-16 -12 -31 2q-3 2 -5 9q-2 12 -1 18q1 26 13 54q1 6 5 11q3 5 9 2q4 -4 2 -6q-9 -23 -13 -64q-2 -16 3 -22q4 1 18 12q9 8 21 24l54 76q0 1 3 4.5
t4 5.5q3 3 8 1q9 -4 5 -13q-16 -42 -26 -80q-6 -24 -9 -50q-1 -2 -1 -8q2 -7 7 -4q2 1 6 5q12 8 17 13q28 27 45 50l37 47l4 4q6 8 14 2q3 -3 2 -6l-4 -6q-39 -54 -84 -98q-16 -14 -25 -19q-8 -6 -12 -5z" />
    <glyph glyph-name="v" unicode="v" horiz-adv-x="200" 
d="M9 209q-14 8 -14 17q0 12 1 18q8 50 26 90l9 14q1 3 6 1q4 -2 2 -7q-10 -21 -19 -54q-8 -30 -11 -55v-4q0 -5 1 -6q2 -2 7 3q10 9 22 27q16 23 36 61l3.5 7l3.5 7q4 7 12 3q8 -3 7 -11t0 -15q0 -2 0.5 -6t0.5 -5q1 -4 7 -4q9 0 21 5q27 10 56 26q8 4 22 12q11 6 18 -2
q2 -1 4 -3q-1 -3 -5 -5q-34 -21 -76 -39l-21 -6q-12 -3 -21 3q-17 7 -23 17q-2 0 -6 -7q-5 -7 -13 -21.5t-13 -21.5q-9 -15 -21 -27l-6 -7q-12 -7 -16 -5z" />
    <glyph glyph-name="w" unicode="w" horiz-adv-x="245" 
d="M105 217q-3 0 -7 2q-7 3 -8 9q-3 10 -3 21q1 30 10 74q5 14 4 18q0 1 0.5 1t0.5 1t-1 0v-2q-4 -1 -6 -8l-27 -55q-9 -23 -22 -43q-6 -10 -10 -14q-5 -5 -13.5 -3t-11.5 9q-3 12 -3 14q-3 43 16 94q2 6 5 8h4q2 0 2 -3q0 -1 -1 -3v-2q-8 -24 -11 -56q-3 -26 -1 -45
q0 -4 2 -5t5 2q7 10 8 11q11 17 18 34l32 69l24 46q1 2 2.5 4t2.5 4q4 2 5 1q4 -2 7 -4q5 -2 3 -5q0 -4 -2 -14l-7.5 -30.5l-8.5 -34.5q-8 -37 -8 -70q0 -1 0.5 -4t0.5 -5q2 -2 4 -1q1 1 2.5 3t3 4.5t2.5 3.5q3 6 16 34l20 45l3 6q2 5 7 5q4 0 8 -2q23 -5 42 -5q15 -1 35 6
l9 3q10 5 17 -2q0 -3 -4 -5q-32 -15 -72 -7q-4 1 -10.5 2t-9.5 2q-10 2 -14 -6q-2 -3 -7 -16q-7 -15 -19 -45q-6 -16 -14 -28q-1 -2 -4 -5.5t-3 -4.5q-6 -6 -13 -3z" />
    <glyph glyph-name="x" unicode="x" horiz-adv-x="160" 
d="M-49 132q-1 -2 -5 -1.5t-5 3.5q-1 1 0 4q6 10 10 14l63 84q3 5 9 13t7 9q6 7 3 15q-10 38 -12 48q-1 3 -1 10q-2 5 1 7q4 2 9 -3l3 -6q4 -12 10 -32q2 -8 5 -12q2 1 8 9q23 31 44 55q7 9 16 16q2 2 4 2q3 2 5 -2q1 -1 0 -4q-4 -4 -6 -7q-26 -29 -62 -80q-5 -9 -2 -16
q6 -16 10 -24q3 -9 9 -15q4 -4 7 -2q3 1 11 6q8 6 20 20q15 18 32 43q8 11 22 33q1 1 7 10q4 5 7 5.5t10 -3.5l-3 -5q-15 -24 -33 -48l-33 -45q-7 -9 -18 -19q-12 -9 -27 -5q-20 7 -30 26l-6 12l-7 -7l-79 -105z" />
    <glyph glyph-name="y" unicode="y" horiz-adv-x="161" 
d="M-75 -123q-13 -8 -27 1q-4 1 -6 7q-3 10 -1 22q4 22 16 52q18 46 53 104q43 71 89 126q8 13 8 15q28 84 41 126q2 8 2 9q-2 -1 -10 -8q-15 -17 -35 -36q-2 -2 -6.5 -5.5t-6.5 -5.5q-7 -6 -17 -0.5t-9 15.5v6q2 15 11 36q3 6 6 7q1 2 3 0t2 -3q0 -3 -2 -5q-6 -18 -9 -36
v-11q0 -2 1.5 -2.5t3.5 0.5q5 3 13 9q15 14 27 27q1 1 22 25q3 4 10 11q7 8 16 1q4 -4 2 -8l-3 -16l-24 -83q-2 -8 -2 -11q2 -1 6 3q24 24 36 37q9 10 46 45q3 3 8 0q4 -3 1 -7q-9 -8 -26 -25q-50 -50 -73 -76q-8 -10 -11 -20q-24 -82 -36 -109q-34 -86 -68 -152
q-15 -28 -33 -49q-9 -11 -18 -16zM-89 -117q7 4 17 16q17 20 31 51q41 80 74 175q10 30 11 36q-3 -1 -7 -5q-49 -68 -76 -114q-35 -65 -48 -104q-6 -16 -9 -35q0 -15 1 -18q2 -5 6 -2z" />
    <glyph glyph-name="z" unicode="z" horiz-adv-x="195" 
d="M68 184q-12 -1 -27 2q-20 5 -24 5q-13 0 -19 -4q-5 -4 -11 1l-3 3q-6 5 -1 10l63 77l60 75l4 7q-4 0 -8 -2q-3 -2 -4 -2q-23 -14 -54 -25q-15 -8 -26 -1q-9 7 -6 22q6 28 24 46q2 2 6 4q5 4 12 0q12 -8 9 -22q0 -2 -8 -23q3 -4 6 -1l48 25q2 1 7.5 4t8.5 5q7 4 14 -1
q7 -6 7.5 -9t-3.5 -12q-4 -7 -9 -14t-11.5 -15t-9.5 -13q-49 -63 -89 -109q-9 -10 -8.5 -12t13.5 -5q29 -8 54 6q15 8 41 30q17 15 45 49q13 14 37 42l5 5q4 4 8 1l3 -3q4 -3 1 -8q-18 -24 -28 -35q-30 -36 -47 -53q-18 -20 -37 -32q-24 -17 -43 -18zM33 344q4 1 7 6
q10 20 14 38v1l-1 3h-4q-16 -15 -22 -42q-1 -4 1 -6t5 0z" />
    <glyph glyph-name="braceleft" unicode="{" horiz-adv-x="326" 
d="M109 -54q-20 0 -37 7q-19 9 -25 29q-4 9 -6 29q-2 31 7 83q13 68 47 156q12 34 16 52q2 19 -1 29q0 7 -6 5q-7 -2 -20 7q-4 2 0 4q15 10 17 12q12 11 22 29q18 32 26 73q3 17 7 47t6 42q7 51 21 87q12 30 36 60q8 10 17 15q11 8 23 8h23q10 -2 14 -9q-9 1 -25 -1
q-15 -3 -28 -14q-10 -11 -17 -23q-25 -41 -35 -94q-4 -22 -8 -64q-4 -47 -7 -67q-6 -38 -27 -73q-12 -20 -28 -31q-6 -3 -1 -6q11 -9 13 -30q1 -7 -4 -33q-5 -19 -15 -44q-25 -71 -37 -128q-10 -56 -9 -85q2 -19 6 -35q1 -9 8 -17q1 -3 5 -7q10 -9 20 1l6 9q3 3 7 3
q9 -2 10.5 -4.5t-2.5 -10.5q-6 -12 -19 -11z" />
    <glyph glyph-name="bar" unicode="|" horiz-adv-x="130" 
d="M47 -42q-7 1 -7 8v26q0 18 8 167q6 90 8 131q12 174 20 266q4 43 10 129l3 27q0 4 3 4q4 2 6 -2q0 -1 1 -3.5t1 -3.5q0 -7 -1 -20t-1 -19q-6 -132 -8 -198q-2 -34 -4 -102q-1 -30 -5 -90q-2 -28 -5.5 -84t-5.5 -84q-2 -41 -8 -121q-1 -8 -1 -25q0 -6 -6 -6h-8z" />
    <glyph glyph-name="braceright" unicode="}" horiz-adv-x="326" 
d="M54 -54q-10 2 -14 9q9 -1 25 1q15 3 28 14q10 11 17 23q25 41 35 94q4 22 8 64q4 47 7 67q6 38 27 73q12 20 28 31q6 3 1 6q-11 9 -13 30q-1 7 4 33q5 19 15 44q25 71 37 128q10 56 9 85q-2 19 -6 35q-1 9 -8 17q-1 3 -5 7q-10 9 -20 -1l-6 -9q-3 -3 -7 -3
q-9 2 -10.5 4.5t2.5 10.5q6 12 19 11q20 0 37 -7q19 -9 25 -29q4 -9 6 -29q2 -31 -7 -83q-13 -68 -47 -156q-12 -34 -16 -52q-2 -19 1 -29q0 -7 6 -5q7 2 20 -7q4 -2 0 -4q-15 -10 -17 -12q-12 -11 -22 -29q-18 -32 -26 -73q-3 -17 -7 -47t-6 -42q-7 -51 -21 -87
q-12 -30 -36 -60q-8 -10 -17 -15q-11 -8 -23 -8h-23z" />
    <glyph glyph-name="asciitilde" unicode="~" horiz-adv-x="378" 
d="M89 276q-25 0 -37 18l-6 9q-8 10 -5 27q0 6 2 7q3 1 7 -6q8 -12 25 -20q11 -6 25 -4q23 3 53 15l54 27q12 7 38 21q28 13 48 13q25 2 43 -12q14 -12 11 -30q0 -3 -2 -3q-1 -1 -3 1q-11 24 -42 24q-20 1 -44 -9q-7 -3 -51 -29l-46 -26q-32 -17 -59 -22q-2 0 -6 -0.5
t-5 -0.5z" />
    <glyph glyph-name="exclamdown" unicode="&#xa1;" horiz-adv-x="251" 
d="M191 497q-1 0 -2 1q-2 0 -2 1q0 2 1 3l7 6q5 5 5 7.5t-7 5.5q-12 5 -9 17q1 8 10 19q3 5 10 3q6 -2 10 -4q4 -1 6 -8v-3l1 -2q0 -23 -17 -40q-6 -6 -13 -6zM206 530q0 1 0.5 3t0.5 3q1 3 1 8q0 2 -2 2h-2q-6 -8 2 -16zM45 -219q-5 2 -5 6t1 5q7 28 18 80.5t16 73.5
q8 34 20.5 98.5t18.5 91.5l42 198q2 11 8 34t8 35q6 26 5 39q3 1 10 -1q8 -2 7 -10l-3 -29q-3 -25 -8.5 -52.5t-13 -61.5l-11.5 -52q-4 -19 -11.5 -57.5t-11.5 -57.5q-27 -125 -34 -150q-10 -35 -37 -142l-5.5 -18.5t-4.5 -15.5q-1 -2 -2.5 -5.5t-1.5 -4.5q-2 -5 -5 -4z" />
    <glyph glyph-name="cent" unicode="&#xa2;" horiz-adv-x="491" 
d="M115 -36q-2 0 -5 2.5t-2 4.5q0 8 1 12q5 15 7 19q8 21 35 77q2 6 4 9q0 2 -1 3l-2 1l-9 -3q-22 -4 -31 -4q-17 2 -28 8l-11 8q-24 12 -30 43q-4 16 -3 31q-1 21 7 55q12 53 39 113q28 65 64 116q38 55 84 89q45 33 88 48q14 4 21 5q10 3 14 10q11 25 30 59l14 26l6 9
q2 5 6 1q3 -2 2 -6q0 -1 -2 -5l-39 -77q-3 -4 -4 -8q-1 -3 3 -5h7q39 0 65 -34q24 -32 12 -70q-4 -12 -18 -32q-2 -2 -4 -1q-2 2 -2 3q0 4 4 12q9 17 11 32q5 27 -12 58q-5 8 -14 12q-12 4 -18 5q-19 2 -34 -1q-11 0 -14 -10l-6 -12q-1 -3 -5 -1q-5 5 -3 11q1 3 -0.5 4
t-4.5 0q-2 -1 -7 -2.5t-7 -2.5q-50 -24 -91 -60q-45 -41 -82 -102q-51 -84 -79 -182q-11 -41 -10 -78q2 -22 10 -39q6 -14 21 -14q21 -1 44 7q11 4 31 14q10 7 11 9q4 10 12 6q4 0 6 3q80 48 140 95q31 25 43 45q3 5 9 2q6 -4 3 -12q-9 -20 -24 -33q-23 -21 -48 -39
q-60 -46 -132 -88q-9 -5 -14 -16l-38 -82q-10 -19 -16 -43q-3 -5 -4 -5z" />
    <glyph glyph-name="sterling" unicode="&#xa3;" horiz-adv-x="511" 
d="M315 -74q-26 -2 -50 4q-66 12 -121 44l-6 3q-5 3 -10 0t-15 -7q-28 -9 -55 1q-23 8 -17 31q4 14 18 13q12 0 27 -5q11 -3 31 -13q8 -3 12 2q8 9 20 31q16 30 35 87q19 54 36 133l26 104v3q2 7 1.5 9t-2.5 3t-8 0q-10 0 -30 -0.5t-30 -0.5q-13 0 -15 1t-4 3t0 4q2 1 7 1
q38 4 58 4q4 0 12 0.5t13 0.5q4 0 6 6t7 25q36 124 65 196q23 56 47 90q11 16 22 25q12 9 25 9q8 0 15 -4q18 -10 26 -19q16 -15 20 -45q2 -20 -4 -35q-10 -36 -40 -64q-6 -6 -10 -7q-2 0 -4 2q-1 1 0 3q8 8 16 19q24 33 28 71q2 30 -14 54q-12 18 -33 8q-10 -5 -16 -14
q-13 -14 -27 -39q-16 -30 -37 -85q-32 -87 -53 -168q-7 -18 -5 -26q3 -1 25 -1h62q4 0 16 -2q6 0 10 -9q2 -4 -2 -4h-11q-15 2 -45 2h-53q-8 0 -10 -8q-25 -100 -27 -109q-26 -101 -39 -139q-13 -37 -27 -68q-18 -38 -36 -56q-4 -5 1 -8q67 -36 107 -44q73 -17 128 31
q40 37 62 70q6 9 11 23q6 18 -2 32l-2 4q-2 2 0 3q1 1 4 1q7 -1 12 -8q11 -14 6 -34q-3 -11 -11 -25q-14 -22 -35 -45q-14 -16 -36 -35q-34 -28 -75 -29zM73 -28q21 0 40 13q5 3 0 6q-22 12 -34 17q-1 0 -3.5 0.5t-3.5 1.5q-6 0 -10 -3q-10 -8 -6 -22q5 -15 17 -13z" />
    <glyph glyph-name="yen" unicode="&#xa5;" horiz-adv-x="434" 
d="M403 698q2 -4 1 -7t-2.5 -8t-2.5 -7q-26 -65 -60 -133q-53 -103 -129 -273l-38 -86q-5 -12 -5 -14q2 -1 11 -1l27.5 4t31.5 6q4 0 7 -4t-2 -6q-10 -5 -21 -6q-8 -1 -24.5 -2.5t-24.5 -2.5l-8 -2q-4 0 -5 -3q-12 -26 -17 -40q5 -1 25 2l48 3q3 2 6 0q7 0 7 -8q-1 -2 -7 -4
l-35 -3l-41 -3q-11 -2 -15 -12l-49 -120l-18 -44q-3 -7 -11 -6q-6 2 -4 8l33 90q9 22 25 66l3 7q2 5 -3 5l-18 -3q-7 -2 -23 -4q-4 -2 -8 1q-2 2 -2 4q0 3 2 3q4 2 7 2l43 9q11 2 15 11q2 6 12 29q2 6 -4 6l-42 -6q-7 -2 -25 -4q-6 -2 -6 -3q-2 -3 -6 -2q-6 2 -7 7q0 4 3 4
q5 2 13 4q19 2 73 11q9 0 13 9l62 134l62 139q6 15 20 43q5 9 4 13q3 1 1 5q0 -4 -1 -5t-11 -16q-47 -79 -85 -137q-37 -53 -65 -85q-7 -9 -24 -24q-14 -12 -31 -6q-1 0 -4 0.5t-4 1.5q-12 4 -18 16l-6 22q-6 28 -6 70q-1 29 5 89q11 100 48 235q8 28 15 41q1 3 3.5 7.5
t3.5 5.5q4 4 8 1q3 -2 2 -6q-7 -12 -16 -53q-10 -41 -24 -123q-12 -68 -16 -119q-4 -66 -4 -100q2 -36 5 -53q2 -12 7 -23q1 -4 6 -2q9 4 17 12q18 16 40 43q39 47 105 149q32 52 101 177l38 70l6 10q1 3 6 1z" />
    <glyph glyph-name="brokenbar" unicode="&#xa6;" horiz-adv-x="271" 
d="M171 421q-4 2 -6 2q-4 3 -4 7q1 2 1 5t1 4q19 94 57 235q2 6 12 38q4 5 5 5q5 -2 4 -9q0 -5 -1 -8l-36 -159l-18 -84l-9 -33q0 -5 -6 -3zM50 -66q-4 2 -7 2q-1 0 -3 5v2q1 2 1 3q9 53 21 101q29 109 37 134l13 40q0 1 2 4t2 5q2 2 5 1q5 0 5 -4q0 -2 -2 -8
q-9 -38 -23 -91q-20 -78 -32 -146l-10 -43q-2 -6 -9 -5z" />
    <glyph glyph-name="dieresis" unicode="&#xa8;" horiz-adv-x="160" 
d="M53 735q-3 0 -4 1q-5 2 -6 5q-6 4 -1 11q5 8 7 9q6 6 11 3q9 -3 7 -10q0 -7 -4.5 -12.5t-9.5 -6.5zM112 731q-6 3 -8 8q-1 2 -1 4q3 10 10 15q3 1 7 0q2 -1 10 -11l-1 -3q-5 -10 -13 -13q-2 -2 -4 0z" />
    <glyph glyph-name="guillemotleft" unicode="&#xab;" horiz-adv-x="268" 
d="M194 241q10 -3 13 -12q1 -6 -6 -6q-24 3 -48 12q-37 17 -80 47q-20 15 -32 46q-3 14 7 21l12 8l59 35q36 22 79 58q0 2 2 2q3 3 6 2q5 -3 1 -7l-6 -9q-8 -10 -28 -26q-26 -22 -77 -58q-13 -8 -29 -19q-4 -3 -11 -10q-4 -5 0 -9q3 -4 7 -7q53 -41 101 -59zM219 267
q12 -5 19 -22q0 -5 -4 -3q-1 0 -3 1t-3 1l-88 40q-2 1 -5.5 3t-5.5 3q-18 7 -27 32q-1 1 -1 4v1q-1 6 3 10q3 4 11 12q32 24 47 37l43 36q3 3 5 1t2 -4q2 -9 -4 -12q-2 -1 -5 -4q-16 -18 -66 -63q-14 -12 -20 -19q-2 -4 1 -7l16 -8z" />
    <glyph glyph-name="logicalnot" unicode="&#xac;" horiz-adv-x="511" 
d="M438 239q-17 4 -13 20q2 12 4 19q9 33 30 89q2 5 2 6.5t0.5 4t-1 2.5t-3.5 0.5t-7 0.5q-10 0 -41.5 -0.5t-48.5 -1.5q-18 0 -38.5 -1t-45.5 -2.5t-39 -2.5q-23 -2 -73 -4q-16 -1 -47.5 -3.5t-46.5 -3.5q-14 0 -22 -1q-3 0 -5 1q-4 2 -3 5q0 4 3 4q1 0 2.5 0.5t2.5 0.5
q6 1 18 2.5t17 1.5q33 4 109 10q17 1 53.5 3.5t55.5 3.5q96 6 145 5q18 0 26 -1q8 0 9 -8q0 -4 -2 -12q-10 -27 -28 -81q-11 -31 -12 -52l-1 -2v-3z" />
    <glyph glyph-name="macron" unicode="&#xaf;" horiz-adv-x="140" 
d="M68 730q-15 0 -22 1q-4 0 -6 6q0 4 2 4h2l60 3q3 0 4 -2q2 -2 2 -6q-1 -1 -3 -2l-1 -1z" />
    <glyph glyph-name="degree" unicode="&#xb0;" horiz-adv-x="189" 
d="M77 628q-7 0 -9 2q-24 14 -28 35q-2 17 4 31q13 37 49 60q10 6 18 7q17 4 28 -11q1 -1 2 -3t2 -3.5t2 -2.5q14 -11 14 -31q0 -29 -14 -47q-15 -21 -33 -30q-18 -10 -35 -7zM75 641q13 -1 29 9q19 13 30 29q11 18 11 43q0 10 -7 13t-4 11q3 7 -5 9q-5 0 -7 -1
q-8 -2 -15 -5q-42 -26 -52 -71q-2 -6 -2 -18q1 -12 5 -15.5t17 -3.5z" />
    <glyph glyph-name="acute" unicode="&#xb4;" horiz-adv-x="115" 
d="M48 714l-5 5q-4 2 -2 7q16 26 33 47q5 2 6 1q5 -5 5 -7q-1 0 -1 -2q0 -1 -1 -2l-13 -21q-1 -2 -7 -11t-8 -15q-2 -4 -7 -2z" />
    <glyph glyph-name="paragraph" unicode="&#xb6;" horiz-adv-x="302" 
d="M54 -69q-8 1 -6 9q6 41 20 123q32 166 47 250l3 18q-27 5 -42 21q-15 15 -27 37q-7 12 -9 39q-1 16 3 48q12 72 43 143q22 49 52 79q16 16 39 27q14 7 33 4q7 -1 7 -8q0 -5 -2 -15q-8 -53 -30 -157l-29 -148l-28 -146l-34 -175q-9 -45 -25 -137q0 -2 -1 -4l-1.5 -6t-2 -3
t-3.5 -0.5t-7 1.5zM115 341q5 -2 6 3l3 13q13 72 35 162q12 53 38 157l9 39q0 3 -1 4.5t-4 0.5q-2 -1 -6 -2.5t-6 -2.5q-25 -13 -40 -31q-27 -31 -44 -72q-21 -47 -32 -105q-9 -41 -9 -80q0 -42 29 -76q4 -4 7 -4zM123 -26q-6 0 -8 1q-7 1 -7 8q0 4 2 12.5t2 13.5
q3 18 32 165q8 42 26 128q36 174 57 261q10 42 28 126q1 5 3.5 14t3.5 12q0 4 3 4q5 0 6 -3q0 -5 1 -7q-3 -13 -7 -39l-37 -194l-17 -101l-18 -88l-34 -165q-4 -22 -13 -62.5t-12 -56.5q-1 -4 -2.5 -12t-2.5 -12q-2 -6 -6 -5z" />
    <glyph glyph-name="periodcentered" unicode="&#xb7;" horiz-adv-x="96" 
d="M49 307q-1 0 -3 1q-6 2 -6 8q-1 14 5 28q4 8 5 12q10 -2 12.5 -4.5t3.5 -10.5q0 -13 -3 -27q-4 -10 -14 -7z" />
    <glyph glyph-name="cedilla" unicode="&#xb8;" horiz-adv-x="156" 
d="M71 -102q-17 -2 -30 10q-3 3 0 8q1 0 1 1q8 6 11.5 6t9.5 -7q4 -3 7 -2q27 8 42 38q0 1 0.5 3t0.5 3q0 6 -5 4q-3 0 -11 -2l-26 -12l-12 -6q-5 -3 -10.5 -1t-7.5 7q-1 1 -1 5q8 26 19 45q4 4 6 3q5 -3 5 -6q0 -4 -2 -8l-3.5 -11t-4.5 -12q-1 -3 0 -7q3 1 8 3t6 3
q3 1 7.5 3t8.5 3.5t8 2.5q13 2 22 -7t5 -22q-5 -17 -20.5 -30.5t-33.5 -14.5z" />
    <glyph glyph-name="guillemotright" unicode="&#xbb;" horiz-adv-x="268" 
d="M237 349q3 -14 -7 -21l-12 -8l-59 -35q-36 -22 -79 -58q0 -2 -2 -2q-3 -3 -6 -2q-5 3 -1 7l6 9q8 10 28 26q26 22 77 58q13 8 29 19q4 3 11 10q4 4 0 9q-3 4 -7 7q-53 41 -101 59l-30 9q-10 3 -13 12q-1 6 6 6q24 -3 48 -12q37 -17 80 -47q20 -15 32 -46zM116 291
l-43 -36q-3 -3 -5 -1t-2 4q-2 9 4 12q2 1 5 4q16 18 66 63q14 12 20 19q2 4 -1 7q-2 1 -4.5 2.5t-4 2t-3.5 1.5l-4 2l-85 39q-12 5 -19 22q0 5 4 3q1 -1 3 -1t3 -1l88 -40q2 -1 5.5 -3t5.5 -3q18 -7 27 -32q1 -1 1 -4v-1q1 -6 -3 -10q-3 -4 -11 -12q-32 -24 -47 -37z" />
    <glyph glyph-name="questiondown" unicode="&#xbf;" horiz-adv-x="372" 
d="M302 538q-10 2 -12.5 4.5t-3.5 10.5q0 13 3 27q4 10 14 7q1 0 3 -1q6 -2 6 -8q1 -14 -5 -28q-4 -8 -5 -12zM92 -269q-8 0 -14 3q-37 20 -38 54q0 19 4 32q11 54 37 110q37 86 78 164q38 74 56 127q10 26 26 80q25 89 34 125q1 6 3.5 17t4.5 16q1 4 5 4l1 -1q13 -2 11 -16
q-2 -16 -8 -38q-29 -122 -41 -163q-17 -57 -49 -124l-93 -193q-30 -65 -41 -108q-8 -30 -7 -47q0 -9 3 -17q1 -6 8 -8q8 -1 22 1q46 9 87 37q40 27 74 80q42 62 64 130q8 28 11 52q3 19 -1 35q-3 10 -14 19q16 -2 22 -16q5 -13 5 -24q1 -27 -7 -60q-15 -62 -50 -123
q-21 -37 -40 -61q-46 -58 -122 -81q-20 -6 -31 -6z" />
    <glyph glyph-name="Agrave" unicode="&#xc0;" horiz-adv-x="493" 
d="M482 686q-4 -4 -6 2t-9 15t-7 10l-12 21q-2 4 -3 5q0 2 5 7q3 1 6 -2q16 -18 33 -46q3 -4 -1 -8zM352 -167q-15 -3 -23 8q-15 20 -19 40q-11 46 -5 98q16 130 66 319q1 6 5 18q1 7 -6 7h-67q-16 -2 -26 -1q-9 0 -13 -9q-12 -24 -18 -35l-79 -144q-13 -22 -41 -64
q-16 -21 -30 -34q-12 -12 -25 -19q-12 -7 -33 -4q-8 2 -14 9q-20 25 -23 55q-2 5 1 8q0 1 2 1t3 -1v-3q3 -25 21 -52q9 -13 15 -14t19 6t28 24q20 20 45 62q24 39 78 140l30 58l3 7q4 7 -6 7h-3q-17 -1 -52 -2.5t-52 -2.5q-29 -2 -44 -5h-9q-4 0 -4 3q0 4 2 4q3 2 9 4
q3 0 12.5 2t14.5 2q29 3 82 7l51 3q10 0 16 10q36 70 112 206q28 50 58 89q1 1 20 23q4 4 7 6q8 5 15 0q2 -1 6 -5q5 -2 5 -9q1 -11 -2 -24q-5 -25 -19 -73l-56 -202q-3 -11 -1.5 -13t13.5 -2h88q10 1 13 -10q0 -2 1 -5q-28 -2 -62 -2q-18 -1 -52 -1q-7 0 -8 -1t-3 -8
q-7 -24 -19 -72q-18 -66 -34 -145q-14 -72 -19 -124q-5 -50 4 -88q8 -26 16 -38q3 -3 5 0q3 4 9 4q5 0 5 -5q-2 -11 -13 -13zM281 337h6q28 2 76 2h6.5t5 0.5t3.5 0t3 0.5t2 1.5t1.5 2.5t0.5 3t1 5t2 7q42 148 65 222l8.5 29l7.5 26l3 18q0 2 -1 2h-3q-12 -11 -22 -24
q-29 -37 -52 -79l-111 -203q-1 -2 -2 -5t-2 -4q-1 -2 2 -4z" />
    <glyph glyph-name="Aacute" unicode="&#xc1;" horiz-adv-x="493" 
d="M498 693l-5 5q-4 2 -2 7q16 26 33 47q5 2 6 1q5 -5 5 -7q-1 0 -1 -2q0 -1 -1 -2l-13 -21q-1 -2 -7 -11t-8 -15q-2 -4 -7 -2zM352 -167q-15 -3 -23 8q-15 20 -19 40q-11 46 -5 98q16 130 66 319q1 6 5 18q1 7 -6 7h-67q-16 -2 -26 -1q-9 0 -13 -9q-12 -24 -18 -35
l-79 -144q-13 -22 -41 -64q-16 -21 -30 -34q-12 -12 -25 -19q-12 -7 -33 -4q-8 2 -14 9q-20 25 -23 55q-2 5 1 8q0 1 2 1t3 -1v-3q3 -25 21 -52q9 -13 15 -14t19 6t28 24q20 20 45 62q24 39 78 140l30 58l3 7q4 7 -6 7h-3q-17 -1 -52 -2.5t-52 -2.5q-29 -2 -44 -5h-9
q-4 0 -4 3q0 4 2 4q3 2 9 4q3 0 12.5 2t14.5 2q29 3 82 7l51 3q10 0 16 10q36 70 112 206q28 50 58 89q1 1 20 23q4 4 7 6q8 5 15 0q2 -1 6 -5q5 -2 5 -9q1 -11 -2 -24q-5 -25 -19 -73l-56 -202q-3 -11 -1.5 -13t13.5 -2h88q10 1 13 -10q0 -2 1 -5q-28 -2 -62 -2
q-18 -1 -52 -1q-7 0 -8 -1t-3 -8q-7 -24 -19 -72q-18 -66 -34 -145q-14 -72 -19 -124q-5 -50 4 -88q8 -26 16 -38q3 -3 5 0q3 4 9 4q5 0 5 -5q-2 -11 -13 -13zM281 337h6q28 2 76 2h6.5t5 0.5t3.5 0t3 0.5t2 1.5t1.5 2.5t0.5 3t1 5t2 7q42 148 65 222l8.5 29l7.5 26l3 18
q0 2 -1 2h-3q-12 -11 -22 -24q-29 -37 -52 -79l-111 -203q-1 -2 -2 -5t-2 -4q-1 -2 2 -4z" />
    <glyph glyph-name="Acircumflex" unicode="&#xc2;" horiz-adv-x="493" 
d="M514 684q-4 1 -8 7l-15 28l-3 6q-2 1 -3 0l-6 -6l-9.5 -13t-9.5 -14l-6 -6q-2 -2 -5 1q-2 2 -2 5q0 1 2 5q6 9 18 25q14 22 14 24l3 3q1 3 5 1l5 -5q20 -41 25 -56q0 -5 -1 -5h-4zM352 -167q-15 -3 -23 8q-15 20 -19 40q-11 46 -5 98q16 130 66 319q1 6 5 18q1 7 -6 7
h-67q-16 -2 -26 -1q-9 0 -13 -9q-12 -24 -18 -35l-79 -144q-13 -22 -41 -64q-16 -21 -30 -34q-12 -12 -25 -19q-12 -7 -33 -4q-8 2 -14 9q-20 25 -23 55q-2 5 1 8q0 1 2 1t3 -1v-3q3 -25 21 -52q9 -13 15 -14t19 6t28 24q20 20 45 62q24 39 78 140l30 58l3 7q4 7 -6 7h-3
q-17 -1 -52 -2.5t-52 -2.5q-29 -2 -44 -5h-9q-4 0 -4 3q0 4 2 4q3 2 9 4q3 0 12.5 2t14.5 2q29 3 82 7l51 3q10 0 16 10q36 70 112 206q28 50 58 89q1 1 20 23q4 4 7 6q8 5 15 0q2 -1 6 -5q5 -2 5 -9q1 -11 -2 -24q-5 -25 -19 -73l-56 -202q-3 -11 -1.5 -13t13.5 -2h88
q10 1 13 -10q0 -2 1 -5q-28 -2 -62 -2q-18 -1 -52 -1q-7 0 -8 -1t-3 -8q-7 -24 -19 -72q-18 -66 -34 -145q-14 -72 -19 -124q-5 -50 4 -88q8 -26 16 -38q3 -3 5 0q3 4 9 4q5 0 5 -5q-2 -11 -13 -13zM281 337h6q28 2 76 2h6.5t5 0.5t3.5 0t3 0.5t2 1.5t1.5 2.5t0.5 3t1 5t2 7
q42 148 65 222l8.5 29l7.5 26l3 18q0 2 -1 2h-3q-12 -11 -22 -24q-29 -37 -52 -79l-111 -203q-1 -2 -2 -5t-2 -4q-1 -2 2 -4z" />
    <glyph glyph-name="Atilde" unicode="&#xc3;" horiz-adv-x="493" 
d="M473 691q-16 -7 -24 8q-4 7 -6 17q0 4 3 4t4 -1l3 -8q3 -5 8 -5q8 1 18 9l12 10q9 6 18 -2q8 -7 10 -24q-2 1 -5 7q-8 10 -18 3l-9 -9q-6 -6 -14 -9zM352 -167q-15 -3 -23 8q-15 20 -19 40q-11 46 -5 98q16 130 66 319q1 6 5 18q1 7 -6 7h-67q-16 -2 -26 -1q-9 0 -13 -9
q-12 -24 -18 -35l-79 -144q-13 -22 -41 -64q-16 -21 -30 -34q-12 -12 -25 -19q-12 -7 -33 -4q-8 2 -14 9q-20 25 -23 55q-2 5 1 8q0 1 2 1t3 -1v-3q3 -25 21 -52q9 -13 15 -14t19 6t28 24q20 20 45 62q24 39 78 140l30 58l3 7q4 7 -6 7h-3q-17 -1 -52 -2.5t-52 -2.5
q-29 -2 -44 -5h-9q-4 0 -4 3q0 4 2 4q3 2 9 4q3 0 12.5 2t14.5 2q29 3 82 7l51 3q10 0 16 10q36 70 112 206q28 50 58 89q1 1 20 23q4 4 7 6q8 5 15 0q2 -1 6 -5q5 -2 5 -9q1 -11 -2 -24q-5 -25 -19 -73l-56 -202q-3 -11 -1.5 -13t13.5 -2h88q10 1 13 -10q0 -2 1 -5
q-28 -2 -62 -2q-18 -1 -52 -1q-7 0 -8 -1t-3 -8q-7 -24 -19 -72q-18 -66 -34 -145q-14 -72 -19 -124q-5 -50 4 -88q8 -26 16 -38q3 -3 5 0q3 4 9 4q5 0 5 -5q-2 -11 -13 -13zM281 337h6q28 2 76 2h6.5t5 0.5t3.5 0t3 0.5t2 1.5t1.5 2.5t0.5 3t1 5t2 7q42 148 65 222l8.5 29
l7.5 26l3 18q0 2 -1 2h-3q-12 -11 -22 -24q-29 -37 -52 -79l-111 -203q-1 -2 -2 -5t-2 -4q-1 -2 2 -4z" />
    <glyph glyph-name="Adieresis" unicode="&#xc4;" horiz-adv-x="493" 
d="M447 696q-3 0 -4 1q-5 2 -6 5q-6 4 -1 11q5 8 7 9q6 6 11 3q9 -3 7 -10q0 -7 -4.5 -12.5t-9.5 -6.5zM506 692q-6 3 -8 8q-1 2 -1 4q3 10 10 15q3 1 7 0q2 -1 10 -11l-1 -3q-5 -10 -13 -13q-2 -2 -4 0zM352 -167q-15 -3 -23 8q-15 20 -19 40q-11 46 -5 98q16 130 66 319
q1 6 5 18q1 7 -6 7h-67q-16 -2 -26 -1q-9 0 -13 -9q-12 -24 -18 -35l-79 -144q-13 -22 -41 -64q-16 -21 -30 -34q-12 -12 -25 -19q-12 -7 -33 -4q-8 2 -14 9q-20 25 -23 55q-2 5 1 8q0 1 2 1t3 -1v-3q3 -25 21 -52q9 -13 15 -14t19 6t28 24q20 20 45 62q24 39 78 140l30 58
l3 7q4 7 -6 7h-3q-17 -1 -52 -2.5t-52 -2.5q-29 -2 -44 -5h-9q-4 0 -4 3q0 4 2 4q3 2 9 4q3 0 12.5 2t14.5 2q29 3 82 7l51 3q10 0 16 10q36 70 112 206q28 50 58 89q1 1 20 23q4 4 7 6q8 5 15 0q2 -1 6 -5q5 -2 5 -9q1 -11 -2 -24q-5 -25 -19 -73l-56 -202q-3 -11 -1.5 -13
t13.5 -2h88q10 1 13 -10q0 -2 1 -5q-28 -2 -62 -2q-18 -1 -52 -1q-7 0 -8 -1t-3 -8q-7 -24 -19 -72q-18 -66 -34 -145q-14 -72 -19 -124q-5 -50 4 -88q8 -26 16 -38q3 -3 5 0q3 4 9 4q5 0 5 -5q-2 -11 -13 -13zM281 337h6q28 2 76 2h6.5t5 0.5t3.5 0t3 0.5t2 1.5t1.5 2.5
t0.5 3t1 5t2 7q42 148 65 222l8.5 29l7.5 26l3 18q0 2 -1 2h-3q-12 -11 -22 -24q-29 -37 -52 -79l-111 -203q-1 -2 -2 -5t-2 -4q-1 -2 2 -4z" />
    <glyph glyph-name="Aring" unicode="&#xc5;" horiz-adv-x="493" 
d="M488 688q-19 11 -11 32q3 6 8 11q9 9 18 -1q1 -1 1 -5q-2 -3 -4 -1q-4 1 -6 -3q-4 -3 -5 -8q-3 -11 -1 -12q3 -2 12 5q13 12 12 24q-1 3 -1 5q0 3 2 3t2 -1q15 -12 7 -29q-7 -15 -25 -20q-5 -2 -9 0zM352 -167q-15 -3 -23 8q-15 20 -19 40q-11 46 -5 98q16 130 66 319
q1 6 5 18q1 7 -6 7h-67q-16 -2 -26 -1q-9 0 -13 -9q-12 -24 -18 -35l-79 -144q-13 -22 -41 -64q-16 -21 -30 -34q-12 -12 -25 -19q-12 -7 -33 -4q-8 2 -14 9q-20 25 -23 55q-2 5 1 8q0 1 2 1t3 -1v-3q3 -25 21 -52q9 -13 15 -14t19 6t28 24q20 20 45 62q24 39 78 140l30 58
l3 7q4 7 -6 7h-3q-17 -1 -52 -2.5t-52 -2.5q-29 -2 -44 -5h-9q-4 0 -4 3q0 4 2 4q3 2 9 4q3 0 12.5 2t14.5 2q29 3 82 7l51 3q10 0 16 10q36 70 112 206q28 50 58 89q1 1 20 23q4 4 7 6q8 5 15 0q2 -1 6 -5q5 -2 5 -9q1 -11 -2 -24q-5 -25 -19 -73l-56 -202q-3 -11 -1.5 -13
t13.5 -2h88q10 1 13 -10q0 -2 1 -5q-28 -2 -62 -2q-18 -1 -52 -1q-7 0 -8 -1t-3 -8q-7 -24 -19 -72q-18 -66 -34 -145q-14 -72 -19 -124q-5 -50 4 -88q8 -26 16 -38q3 -3 5 0q3 4 9 4q5 0 5 -5q-2 -11 -13 -13zM281 337h6q28 2 76 2h6.5t5 0.5t3.5 0t3 0.5t2 1.5t1.5 2.5
t0.5 3t1 5t2 7q42 148 65 222l8.5 29l7.5 26l3 18q0 2 -1 2h-3q-12 -11 -22 -24q-29 -37 -52 -79l-111 -203q-1 -2 -2 -5t-2 -4q-1 -2 2 -4z" />
    <glyph glyph-name="AE" unicode="&#xc6;" horiz-adv-x="742" 
d="M822 682q19 -6 30 -32v-4q-3 -17 -13 -28q-4 -6 -8 0q-5 8 0 16q3 4 7 16q1 5 -4 8q-15 7 -33 7q-20 1 -48 -4q-76 -11 -204 -43l-84 -21q-1 0 -3 -0.5t-3 -0.5q-7 0 -12 -9q-29 -65 -35 -80q-41 -106 -52 -139q-5 -12 -9 -29h12q16 0 51 0.5t64 1t31 0.5q10 1 13 -10
q0 -2 1 -5q-28 -2 -62 -2q-18 -1 -91 -1h-24l-4 -14q-10 -31 -23 -85q-14 -59 -22 -130q-7 -58 4 -103q6 -24 16 -42q5 -10 15 -20q7 -7 21 -9q35 -1 72 10q14 4 58 25q52 28 110 76q43 36 107 104q4 5 12.5 13.5l12.5 12.5q1 1 4 3.5t4 3.5q5 5 8 4q6 0 10 -5
q-17 -16 -49 -50.5l-49 -51.5q-71 -68 -123 -101q-52 -32 -81 -42q-40 -14 -78 -13q-47 2 -72 43q-17 28 -21 63q-8 43 -1 100q8 96 43 208h-17q-16 -2 -26 -1q-9 0 -13 -9q-12 -24 -18 -35l-79 -144q-13 -22 -41 -64q-16 -21 -30 -34q-12 -12 -25 -19q-12 -7 -33 -4
q-8 2 -14 9q-20 25 -23 55q-2 5 1 8q0 1 2 1t3 -1v-3q3 -25 21 -52q9 -13 15 -14t19 6t28 24q20 20 45 62q24 39 78 140l30 58l3 7q4 7 -6 7h-3q-17 -1 -52 -2.5t-52 -2.5q-29 -2 -44 -5h-9q-4 0 -4 3q0 4 2 4q3 2 9 4q3 0 12.5 2t14.5 2q29 3 82 7l51 3q10 0 16 10
q36 70 112 206q12 22 19 32l-17 -3q-40 -7 -68 -7q-12 0 -24 3q-25 5 -35 23v1q20 -15 49 -15q31 0 66 8q8 1 23.5 5t17.5 4q13 21 27 38q1 1 20 23q4 4 7 6q8 5 15 0q2 0 2 -3l4 4q2 2 4 0q2 0 2 -3q1 -1 -2 -9l-14 -26q-6 -11 -7 -14q1 -1 8 -1l75 21q62 18 145 35
q36 8 81 13q26 2 49 -4zM447 619q8 16 23 37h-2q-12 -11 -22 -24q-7 -8 -19 -26q1 1 3 1q10 1 17 12zM427 584q3 5 -3 5q-1 -1 -5 -1t-5 -1q-14 -22 -20 -34l-111 -203q-1 -2 -2 -5t-2 -4q-1 -2 2 -4h6q2 0 15.5 0.5t22.5 0.5q31 95 90 220z" />
    <glyph glyph-name="Ccedilla" unicode="&#xc7;" horiz-adv-x="521" 
d="M543 343q7 -2 8 -5q-2 -3 -15 -19l-73 -72l-76 -79q-68 -71 -119 -114q-32 -27 -63 -46q-22 -12 -34 -16q-21 -8 -42 -6v-1q0 -4 -2 -8l-3.5 -11t-4.5 -12q-1 -3 0 -7q3 1 8 3t6 3q3 1 7.5 3t8.5 3.5t8 2.5q13 2 22 -7t5 -22q-5 -17 -20.5 -30.5t-33.5 -14.5
q-17 -2 -30 10q-3 3 0 8q1 0 1 1q8 6 11.5 6t9.5 -7q4 -3 7 -2q27 8 42 38q0 1 0.5 3t0.5 3q0 6 -5 4q-3 0 -11 -2l-26 -12l-12 -6q-5 -3 -10.5 -1t-7.5 7q-1 1 -1 5q8 26 19 45q-1 0 -2.5 0.5t-2.5 0.5q-26 6 -37 13q-48 26 -66 79q-14 41 -9 93q6 58 21 111
q32 121 104 216q46 62 112 111q52 38 117 42q20 3 37 -11q6 -5 9 -13q4 -12 1 -25q-3 -15 -11 -33q-29 -64 -84 -111l-10 -7q-2 -2 -6 -2l-2 1v2l6 6q60 51 89 125q3 8 7 26q1 11 -2 23q-3 9 -12 9q-7 1 -22 -1q-59 -14 -104 -49q-53 -43 -96 -98q-45 -57 -77 -131
q-32 -77 -46 -164q-6 -39 -5 -74q2 -45 19 -77q20 -34 53 -51q16 -9 38 -4q24 4 53 19q33 19 73 52q47 41 119 116l97 100l52 54q1 2 4 5t8 2z" />
    <glyph glyph-name="Egrave" unicode="&#xc8;" horiz-adv-x="492" 
d="M380 695q-4 -4 -6 2t-9 15t-7 10l-12 21q-2 4 -3 5q0 2 5 7q3 1 6 -2q16 -18 33 -46q3 -4 -1 -8zM121 -91q-47 2 -72 43q-17 28 -21 63q-8 43 -1 100q8 85 36 183q4 16 1 18q-2 1 -15 0q-9 0 -10 1q-3 3 -2 5q0 2 3 2q10 3 21 3q10 0 13 10q27 85 91 221l12 26q3 5 -3 5
l-47 -9q-40 -7 -68 -7q-12 0 -24 3q-25 5 -35 23v1q20 -15 49 -15q31 0 66 8q11 2 32.5 7t32.5 7q10 1 17 12q11 22 29 45q1 2 5 6q2 2 4 0q2 0 2 -3q1 -1 -2 -9l-14 -26q-6 -11 -7 -14q1 -1 8 -1l75 21q62 18 145 35q36 8 81 13q26 2 49 -4q19 -6 30 -32v-4q-3 -17 -13 -28
q-4 -6 -8 0q-5 8 0 16q3 4 7 16q1 5 -4 8q-15 7 -33 7q-20 1 -48 -4q-76 -11 -204 -43l-84 -21q-1 0 -3 -0.5t-3 -0.5q-7 0 -12 -9q-29 -65 -35 -80q-41 -106 -52 -139q-2 -5 -5.5 -16.5t-5.5 -17.5q0 -5 4 -5h13q77 2 93 4q50 4 75 7l70 6q40 4 60 5q5 2 8 -3q6 -9 5 -11
q0 -1 -11 -4l-82 -6q-29 -3 -87 -7q-70 -4 -106 -3h-40q-7 0 -9 -8q-10 -31 -23 -85q-14 -59 -22 -130q-7 -58 4 -103q6 -24 16 -42q5 -10 15 -20q7 -7 21 -9q35 -1 72 10q14 4 58 25q52 28 110 76q43 36 107 104q4 5 12.5 13t12.5 13q1 1 4 3.5t4 3.5q5 5 8 4q6 0 10 -5
q-17 -16 -49 -51t-49 -51q-71 -68 -123 -101q-52 -32 -81 -42q-40 -14 -78 -13z" />
    <glyph glyph-name="Eacute" unicode="&#xc9;" horiz-adv-x="492" 
d="M402 701l-5 5q-4 2 -2 7q16 26 33 47q5 2 6 1q5 -5 5 -7q-1 0 -1 -2t-1 -2l-13 -21q-1 -2 -7 -11t-8 -15q-2 -4 -7 -2zM121 -91q-47 2 -72 43q-17 28 -21 63q-8 43 -1 100q8 85 36 183q4 16 1 18q-2 1 -15 0q-9 0 -10 1q-3 3 -2 5q0 2 3 2q10 3 21 3q10 0 13 10
q27 85 91 221l12 26q3 5 -3 5l-47 -9q-40 -7 -68 -7q-12 0 -24 3q-25 5 -35 23v1q20 -15 49 -15q31 0 66 8q11 2 32.5 7t32.5 7q10 1 17 12q11 22 29 45q1 2 5 6q2 2 4 0q2 0 2 -3q1 -1 -2 -9l-14 -26q-6 -11 -7 -14q1 -1 8 -1l75 21q62 18 145 35q36 8 81 13q26 2 49 -4
q19 -6 30 -32v-4q-3 -17 -13 -28q-4 -6 -8 0q-5 8 0 16q3 4 7 16q1 5 -4 8q-15 7 -33 7q-20 1 -48 -4q-76 -11 -204 -43l-84 -21q-1 0 -3 -0.5t-3 -0.5q-7 0 -12 -9q-29 -65 -35 -80q-41 -106 -52 -139q-2 -5 -5.5 -16.5t-5.5 -17.5q0 -5 4 -5h13q77 2 93 4q50 4 75 7l70 6
q40 4 60 5q5 2 8 -3q6 -9 5 -11q0 -1 -11 -4l-82 -6q-29 -3 -87 -7q-70 -4 -106 -3h-40q-7 0 -9 -8q-10 -31 -23 -85q-14 -59 -22 -130q-7 -58 4 -103q6 -24 16 -42q5 -10 15 -20q7 -7 21 -9q35 -1 72 10q14 4 58 25q52 28 110 76q43 36 107 104q4 5 12.5 13t12.5 13
q1 1 4 3.5t4 3.5q5 5 8 4q6 0 10 -5q-17 -16 -49 -51t-49 -51q-71 -68 -123 -101q-52 -32 -81 -42q-40 -14 -78 -13z" />
    <glyph glyph-name="Ecircumflex" unicode="&#xca;" horiz-adv-x="492" 
d="M434 699q-4 1 -8 7l-15 28l-3 6q-2 2 -3 0l-6 -6q-3 -5 -9.5 -14l-9.5 -13l-6 -6q-2 -2 -5 1q-2 2 -2 5q0 1 2 5q6 9 18 25q14 22 14 24l3 3q1 3 5 1l5 -5q20 -42 25 -56q0 -4 -1 -5h-4zM121 -91q-47 2 -72 43q-17 28 -21 63q-8 43 -1 100q8 85 36 183q4 16 1 18
q-2 1 -15 0q-9 0 -10 1q-3 3 -2 5q0 2 3 2q10 3 21 3q10 0 13 10q27 85 91 221l12 26q3 5 -3 5l-47 -9q-40 -7 -68 -7q-12 0 -24 3q-25 5 -35 23v1q20 -15 49 -15q31 0 66 8q11 2 32.5 7t32.5 7q10 1 17 12q11 22 29 45q1 2 5 6q2 2 4 0q2 0 2 -3q1 -1 -2 -9l-14 -26
q-6 -11 -7 -14q1 -1 8 -1l75 21q62 18 145 35q36 8 81 13q26 2 49 -4q19 -6 30 -32v-4q-3 -17 -13 -28q-4 -6 -8 0q-5 8 0 16q3 4 7 16q1 5 -4 8q-15 7 -33 7q-20 1 -48 -4q-76 -11 -204 -43l-84 -21q-1 0 -3 -0.5t-3 -0.5q-7 0 -12 -9q-29 -65 -35 -80q-41 -106 -52 -139
q-2 -5 -5.5 -16.5t-5.5 -17.5q0 -5 4 -5h13q77 2 93 4q50 4 75 7l70 6q40 4 60 5q5 2 8 -3q6 -9 5 -11q0 -1 -11 -4l-82 -6q-29 -3 -87 -7q-70 -4 -106 -3h-40q-7 0 -9 -8q-10 -31 -23 -85q-14 -59 -22 -130q-7 -58 4 -103q6 -24 16 -42q5 -10 15 -20q7 -7 21 -9
q35 -1 72 10q14 4 58 25q52 28 110 76q43 36 107 104q4 5 12.5 13t12.5 13q1 1 4 3.5t4 3.5q5 5 8 4q6 0 10 -5q-17 -16 -49 -51t-49 -51q-71 -68 -123 -101q-52 -32 -81 -42q-40 -14 -78 -13z" />
    <glyph glyph-name="Edieresis" unicode="&#xcb;" horiz-adv-x="492" 
d="M370 708q-3 0 -4 1q-5 2 -6 5q-6 4 -1 11q5 8 7 9q6 6 11 3q9 -3 7 -10q0 -7 -4.5 -12.5t-9.5 -6.5zM429 704q-6 3 -8 8q-1 2 -1 4q3 10 10 15q3 1 7 0q2 -1 10 -11l-1 -3q-5 -10 -13 -13q-2 -2 -4 0zM121 -91q-47 2 -72 43q-17 28 -21 63q-8 43 -1 100q8 85 36 183
q4 16 1 18q-2 1 -15 0q-9 0 -10 1q-3 3 -2 5q0 2 3 2q10 3 21 3q10 0 13 10q27 85 91 221l12 26q3 5 -3 5l-47 -9q-40 -7 -68 -7q-12 0 -24 3q-25 5 -35 23v1q20 -15 49 -15q31 0 66 8q11 2 32.5 7t32.5 7q10 1 17 12q11 22 29 45q1 2 5 6q2 2 4 0q2 0 2 -3q1 -1 -2 -9
l-14 -26q-6 -11 -7 -14q1 -1 8 -1l75 21q62 18 145 35q36 8 81 13q26 2 49 -4q19 -6 30 -32v-4q-3 -17 -13 -28q-4 -6 -8 0q-5 8 0 16q3 4 7 16q1 5 -4 8q-15 7 -33 7q-20 1 -48 -4q-76 -11 -204 -43l-84 -21q-1 0 -3 -0.5t-3 -0.5q-7 0 -12 -9q-29 -65 -35 -80
q-41 -106 -52 -139q-2 -5 -5.5 -16.5t-5.5 -17.5q0 -5 4 -5h13q77 2 93 4q50 4 75 7l70 6q40 4 60 5q5 2 8 -3q6 -9 5 -11q0 -1 -11 -4l-82 -6q-29 -3 -87 -7q-70 -4 -106 -3h-40q-7 0 -9 -8q-10 -31 -23 -85q-14 -59 -22 -130q-7 -58 4 -103q6 -24 16 -42q5 -10 15 -20
q7 -7 21 -9q35 -1 72 10q14 4 58 25q52 28 110 76q43 36 107 104q4 5 12.5 13t12.5 13q1 1 4 3.5t4 3.5q5 5 8 4q6 0 10 -5q-17 -16 -49 -51t-49 -51q-71 -68 -123 -101q-52 -32 -81 -42q-40 -14 -78 -13z" />
    <glyph glyph-name="Igrave" unicode="&#xcc;" horiz-adv-x="299" 
d="M308 721q-4 -4 -6 2t-9 15t-7 10l-12 21q-2 4 -3 5q0 2 5 7q3 1 6 -2q16 -18 33 -46q3 -4 -1 -8zM59 -50q-12 -4 -28 1q-24 7 -29 34q0 2 -1 6t-1 6q-1 20 21 34q7 5 12 -3q1 -2 0 -3q-1 -2 -5 -6q-16 -15 -10 -37q4 -12 8 -19q3 -6 9 -4q8 1 22 9q22 15 41 39
q21 26 41 71q33 72 66 175q43 134 67 247q17 79 25 140q3 25 1 42q-1 5 -7 4q-4 -1 -15 -10q-15 -11 -52 -48q-55 -57 -89 -111q-53 -81 -76 -167q-8 -29 -8 -53q0 -26 5 -41q10 -25 35 -15l12 6q4 2 5 -1t-1 -5q-9 -7 -21 -9q-27 -3 -39 23q-7 14 -9 38q-1 34 11 78
q40 140 132 240q38 42 67 68l18 15q2 2 13 7q8 3 14 -1l15 -10q5 -4 9 -15q3 -15 1 -44q-6 -54 -22 -129q-27 -133 -82 -296q-29 -83 -53 -136q-18 -38 -35 -62q-19 -25 -41 -43q-16 -12 -26 -15z" />
    <glyph glyph-name="Iacute" unicode="&#xcd;" horiz-adv-x="299" 
d="M319 714l-5 5q-4 2 -2 7q16 26 33 47q5 2 6 1q5 -5 5 -7l-1 -2q-1 -1 -1 -2l-13 -21q-1 -2 -7 -11t-8 -15q-2 -4 -7 -2zM59 -50q-12 -4 -28 1q-24 7 -29 34q0 2 -1 6t-1 6q-1 20 21 34q7 5 12 -3q1 -2 0 -3q-1 -2 -5 -6q-16 -15 -10 -37q4 -12 8 -19q3 -6 9 -4q8 1 22 9
q22 15 41 39q21 26 41 71q33 72 66 175q43 134 67 247q17 79 25 140q3 25 1 42q-1 5 -7 4q-4 -1 -15 -10q-15 -11 -52 -48q-55 -57 -89 -111q-53 -81 -76 -167q-8 -29 -8 -53q0 -26 5 -41q10 -25 35 -15l12 6q4 2 5 -1t-1 -5q-9 -7 -21 -9q-27 -3 -39 23q-7 14 -9 38
q-1 34 11 78q40 140 132 240q38 42 67 68l18 15q2 2 13 7q8 3 14 -1l15 -10q5 -4 9 -15q3 -15 1 -44q-6 -54 -22 -129q-27 -133 -82 -296q-29 -83 -53 -136q-18 -38 -35 -62q-19 -25 -41 -43q-16 -12 -26 -15z" />
    <glyph glyph-name="Icircumflex" unicode="&#xce;" horiz-adv-x="299" 
d="M337 720q-4 1 -8 7l-15 28l-3 6q-1 1 -3 0l-6 -6l-9.5 -13t-9.5 -14l-6 -6q-2 -2 -5 1q-2 2 -2 5q0 1 2 5q6 9 18 25q14 22 14 24l3 3q1 3 5 1l5 -5q20 -41 25 -56q0 -5 -1 -5h-4zM59 -50q-12 -4 -28 1q-24 7 -29 34q0 2 -1 6t-1 6q-1 20 21 34q7 5 12 -3q1 -2 0 -3
q-1 -2 -5 -6q-16 -15 -10 -37q4 -12 8 -19q3 -6 9 -4q8 1 22 9q22 15 41 39q21 26 41 71q33 72 66 175q43 134 67 247q17 79 25 140q3 25 1 42q-1 5 -7 4q-4 -1 -15 -10q-15 -11 -52 -48q-55 -57 -89 -111q-53 -81 -76 -167q-8 -29 -8 -53q0 -26 5 -41q10 -25 35 -15l12 6
q4 2 5 -1t-1 -5q-9 -7 -21 -9q-27 -3 -39 23q-7 14 -9 38q-1 34 11 78q40 140 132 240q38 42 67 68l18 15q2 2 13 7q8 3 14 -1l15 -10q5 -4 9 -15q3 -15 1 -44q-6 -54 -22 -129q-27 -133 -82 -296q-29 -83 -53 -136q-18 -38 -35 -62q-19 -25 -41 -43q-16 -12 -26 -15z" />
    <glyph glyph-name="Idieresis" unicode="&#xcf;" horiz-adv-x="299" 
d="M274 723q-3 0 -4 1q-5 2 -6 5q-6 4 -1 11q5 8 7 9q6 6 11 3q9 -3 7 -10q0 -7 -4.5 -12.5t-9.5 -6.5zM333 719q-6 3 -8 8q-1 2 -1 4q3 10 10 15q3 1 7 0q2 -1 10 -11l-1 -3q-5 -10 -13 -13q-2 -2 -4 0zM59 -50q-12 -4 -28 1q-24 7 -29 34q0 2 -1 6t-1 6q-1 20 21 34
q7 5 12 -3q1 -2 0 -3q-1 -2 -5 -6q-16 -15 -10 -37q4 -12 8 -19q3 -6 9 -4q8 1 22 9q22 15 41 39q21 26 41 71q33 72 66 175q43 134 67 247q17 79 25 140q3 25 1 42q-1 5 -7 4q-4 -1 -15 -10q-15 -11 -52 -48q-55 -57 -89 -111q-53 -81 -76 -167q-8 -29 -8 -53q0 -26 5 -41
q10 -25 35 -15l12 6q4 2 5 -1t-1 -5q-9 -7 -21 -9q-27 -3 -39 23q-7 14 -9 38q-1 34 11 78q40 140 132 240q38 42 67 68l18 15q2 2 13 7q8 3 14 -1l15 -10q5 -4 9 -15q3 -15 1 -44q-6 -54 -22 -129q-27 -133 -82 -296q-29 -83 -53 -136q-18 -38 -35 -62q-19 -25 -41 -43
q-16 -12 -26 -15z" />
    <glyph glyph-name="Eth" unicode="&#xd0;" horiz-adv-x="733" 
d="M763 333q2 -4 -2 -4l-38 -9q-111 -25 -167 -46q-37 -14 -98 -42q-6 -2 -11 -9q-54 -91 -140 -172q-90 -85 -195 -135q-27 -14 -54 -20q-21 -3 -23 -3q-14 -1 -30 8q-5 3 -5 10q0 8 5 15q3 6 17 27q34 42 76 76q57 47 126 91q87 57 151 90l50 25q9 4 15 13q22 37 50 94
q30 58 67 142q22 54 29 83q4 22 4 33q0 2 -1 6t-1 6q-2 11 -6.5 15t-15.5 5q-14 2 -27 -3q-24 -6 -58 -24q-62 -36 -112 -88q-72 -75 -134 -172q3 0 8 -1.5t6 -1.5q19 -8 21 -27q-18 12 -46 12q-32 -49 -57 -102l-18 -33q-3 -5 -7 -11q-5 -9 -10 -9.5t-13 4.5q-4 2 -6 9
q-1 6 -1 17q0 34 10 76q4 24 12 48q-12 0 -34 -2q-8 -2 -11 -2q-8 -1 -9 7q-1 6 6 9q15 3 29 3q4 1 11.5 1t11.5 1q16 56 44 126l44 109q22 58 31 88q4 10 2 14l-11 -8q-19 -18 -67 -75q-56 -69 -98 -136q-36 -60 -54 -110q-8 -21 -11 -42q-2 -9 -2 -27q2 -13 5 -18
q11 -28 36 -19q1 1 3 1l2 -2v-2q-1 0 -2.5 -1.5t-2.5 -1.5q-8 -4 -21 0q-27 11 -33 43q-3 14 1 43q7 35 25 73q34 77 84 145q48 67 105 126q5 6 16 17q1 1 6.5 6t9.5 7q9 6 21 0q15 -9 10 -24q-5 -21 -7 -28q-11 -35 -46 -123q-38 -89 -62 -164q-4 -9 -5 -16q28 2 43 2h15
q57 91 118 159q44 46 69 66q52 41 99 61q11 5 33 11q12 2 19 1q12 0 22 -8q2 -2 10 -8q12 -11 14 -28q4 -26 -6 -57q-9 -36 -24 -68q-47 -108 -83 -178l-20 -36q0 -3 1 -3q0 -1 1 -1t1 1l9 3q71 33 162 56q42 12 63 17q5 2 40 7q11 3 16 -8zM137 202l42 76l29 50
q-35 0 -52 -1q-10 -29 -21 -84l-6 -42v-7q4 1 8 8zM399 186q2 2 7.5 10t8.5 13q-1 0 -11 -3q-27 -13 -79 -43q-102 -60 -150 -95q-75 -52 -114 -95q-26 -28 -39 -48q-6 -10 -7 -17q-1 -6 5 -6q6 -1 18 1q26 6 61 22q86 41 175 120q63 57 125 141z" />
    <glyph glyph-name="Ntilde" unicode="&#xd1;" horiz-adv-x="660" 
d="M402 718q-16 -7 -24 8q-4 7 -6 17q0 4 3 4t4 -1l3 -8q2 -5 8 -5q8 1 18 9l12 10q9 6 18 -2q8 -7 10 -24q-2 1 -5 7q-7 11 -18 3l-9 -9q-6 -6 -14 -9zM381 -74l-8 3q-15 3 -20 20q-7 22 -9 48q-4 53 5 111q7 51 21 103q21 86 64 174q14 29 42 82t38 74q41 84 49 105
q6 18 7 28q0 7 -7 5t-17 -9q-36 -22 -72 -60q-55 -57 -124 -159q-77 -116 -138 -245l-45 -89q-5 -12 -12 -20q-3 -3 -7 -2q-16 7 -17 10t1 15q13 96 49 224q27 97 44 164q15 63 16 104q1 16 -2 35q-2 12 -5 14t-16 -1q-3 -1 -19 -9q-58 -30 -103 -93q-50 -67 -75 -168
q-9 -35 -8 -67q0 -24 8 -50q5 -14 15 -23q6 -4 10 -4q6 0 5 -3q0 -1 -7 1q-22 6 -31 26q-6 16 -8 25q-11 47 0 93q17 87 57 155q45 76 120 121q21 10 30 12h7q22 -5 36 -19q5 -5 9 -24q4 -23 -2 -70q-4 -38 -22 -107l-53 -199q-9 -33 -23 -99v-3t-1 -3h3q3 5 9 17l68 132
q76 141 161 251q48 60 91 99q12 11 38 29q7 6 17 9q10 5 19 -1q20 -10 17 -33q-1 -12 -9 -34q-10 -26 -40 -93l-26.5 -54.5l-31.5 -64.5l-26 -55q-40 -89 -61 -185q-12 -53 -18 -105q-7 -65 1 -108q1 -2 2.5 -7.5t2.5 -8.5q2 -3 6 -2q3 1 14 7q18 12 48 42q34 35 67 85
l69 111q32 55 83 131q5 9 12 15q3 3 7 2q8 -2 3 -7q-2 -2 -22 -34l-37 -59l-91 -148q-41 -67 -86 -115q-18 -19 -36 -32q-1 -1 -3 -2.5t-4.5 -3t-3.5 -2.5q-12 -6 -25 -2z" />
    <glyph glyph-name="Ograve" unicode="&#xd2;" horiz-adv-x="432" 
d="M387 741q-4 -4 -6 2t-9 15t-7 10l-12 21q-2 4 -3 5q0 2 5 7q3 1 6 -2q16 -18 33 -46q3 -4 -1 -8zM75 -48q-26 10 -42 38q-17 28 -24 68q-11 57 -8 125q7 143 78 268q24 43 54 76q17 19 32 27q7 5 9 11q1 3 6 16.5t9 20.5q26 59 68 94q26 22 62 31q31 7 54 -5
q36 -17 52 -50q14 -36 17 -70v-26q0 -46 -12 -104q-22 -104 -78 -222q-51 -106 -100 -179q-39 -58 -85 -92q-21 -16 -42 -26q-25 -11 -50 -1zM85 -42q10 0 22 5q14 5 43 24q43 32 82 87q24 34 56 90q63 117 93 200q36 103 44 194q3 45 -5 82q-6 32 -22 56q-10 16 -31 19
q-22 2 -41 -4q-39 -11 -72 -47t-58 -101q-2 -5 2 -9q3 -3 1 -11q0 -2 -2 -2l-2 1q0 1 -0.5 3.5t-1.5 3.5q-3 -1 -5 -8q-22 -61 -32 -120q-4 -30 -3 -47q0 -9 1 -14q4 -4 7 -2q9 5 15 13l6 9q3 0 4 -1q8 -4 5 -12q-5 -13 -17 -19q-4 -3 -11 -3q-10 2 -17.5 9.5t-8.5 16.5
q-1 8 -1 23q0 22 8 64q4 22 16 66q2 6 0 9q-5 -2 -11 -10q-24 -29 -42 -60q-68 -115 -79 -268q-1 -14 -1 -82q1 -32 8 -70q9 -39 22 -61q8 -12 13 -18t15 -6z" />
    <glyph glyph-name="Oacute" unicode="&#xd3;" horiz-adv-x="432" 
d="M386 736l-5 5q-4 2 -2 7q16 26 33 47q5 2 6 1q5 -5 5 -7q-1 -1 -1 -2t-1 -2l-13 -21q-1 -1 -7 -10.5t-8 -15.5q-2 -4 -7 -2zM75 -48q-26 10 -42 38q-17 28 -24 68q-11 57 -8 125q7 143 78 268q24 43 54 76q17 19 32 27q7 5 9 11q1 3 6 16.5t9 20.5q26 59 68 94
q26 22 62 31q31 7 54 -5q36 -17 52 -50q14 -36 17 -70v-26q0 -46 -12 -104q-22 -104 -78 -222q-51 -106 -100 -179q-39 -58 -85 -92q-21 -16 -42 -26q-25 -11 -50 -1zM85 -42q10 0 22 5q14 5 43 24q43 32 82 87q24 34 56 90q63 117 93 200q36 103 44 194q3 45 -5 82
q-6 32 -22 56q-10 16 -31 19q-22 2 -41 -4q-39 -11 -72 -47t-58 -101q-2 -5 2 -9q3 -3 1 -11q0 -2 -2 -2l-2 1q0 1 -0.5 3.5t-1.5 3.5q-3 -1 -5 -8q-22 -61 -32 -120q-4 -30 -3 -47q0 -9 1 -14q4 -4 7 -2q9 5 15 13l6 9q3 0 4 -1q8 -4 5 -12q-5 -13 -17 -19q-4 -3 -11 -3
q-10 2 -17.5 9.5t-8.5 16.5q-1 8 -1 23q0 22 8 64q4 22 16 66q2 6 0 9q-5 -2 -11 -10q-24 -29 -42 -60q-68 -115 -79 -268q-1 -14 -1 -82q1 -32 8 -70q9 -39 22 -61q8 -12 13 -18t15 -6z" />
    <glyph glyph-name="Ocircumflex" unicode="&#xd4;" horiz-adv-x="432" 
d="M414 747q-4 1 -8 7l-15 28l-3 6q-2 2 -3 0l-6 -6q-3 -5 -9.5 -14l-9.5 -13l-6 -6q-2 -2 -5 1q-2 2 -2 5q0 1 2 5q6 9 18 25q14 22 14 24l3 3q1 3 5 1l5 -5q20 -42 25 -56q0 -4 -1 -5h-4zM75 -48q-26 10 -42 38q-17 28 -24 68q-11 57 -8 125q7 143 78 268q24 43 54 76
q17 19 32 27q7 5 9 11q1 3 6 16.5t9 20.5q26 59 68 94q26 22 62 31q31 7 54 -5q36 -17 52 -50q14 -36 17 -70v-26q0 -46 -12 -104q-22 -104 -78 -222q-51 -106 -100 -179q-39 -58 -85 -92q-21 -16 -42 -26q-25 -11 -50 -1zM85 -42q10 0 22 5q14 5 43 24q43 32 82 87
q24 34 56 90q63 117 93 200q36 103 44 194q3 45 -5 82q-6 32 -22 56q-10 16 -31 19q-22 2 -41 -4q-39 -11 -72 -47t-58 -101q-2 -5 2 -9q3 -3 1 -11q0 -2 -2 -2l-2 1q0 1 -0.5 3.5t-1.5 3.5q-3 -1 -5 -8q-22 -61 -32 -120q-4 -30 -3 -47q0 -9 1 -14q4 -4 7 -2q9 5 15 13l6 9
q3 0 4 -1q8 -4 5 -12q-5 -13 -17 -19q-4 -3 -11 -3q-10 2 -17.5 9.5t-8.5 16.5q-1 8 -1 23q0 22 8 64q4 22 16 66q2 6 0 9q-5 -2 -11 -10q-24 -29 -42 -60q-68 -115 -79 -268q-1 -14 -1 -82q1 -32 8 -70q9 -39 22 -61q8 -12 13 -18t15 -6z" />
    <glyph glyph-name="Otilde" unicode="&#xd5;" horiz-adv-x="432" 
d="M368 748q-16 -7 -24 8q-4 7 -6 17q0 4 3 4t4 -1l3 -8q2 -5 8 -5q8 1 18 9l12 10q9 6 18 -2q8 -7 10 -24q-2 1 -5 7q-7 11 -18 3l-9 -9q-6 -6 -14 -9zM75 -48q-26 10 -42 38q-17 28 -24 68q-11 57 -8 125q7 143 78 268q24 43 54 76q17 19 32 27q7 5 9 11q1 3 6 16.5
t9 20.5q26 59 68 94q26 22 62 31q31 7 54 -5q36 -17 52 -50q14 -36 17 -70v-26q0 -46 -12 -104q-22 -104 -78 -222q-51 -106 -100 -179q-39 -58 -85 -92q-21 -16 -42 -26q-25 -11 -50 -1zM85 -42q10 0 22 5q14 5 43 24q43 32 82 87q24 34 56 90q63 117 93 200q36 103 44 194
q3 45 -5 82q-6 32 -22 56q-10 16 -31 19q-22 2 -41 -4q-39 -11 -72 -47t-58 -101q-2 -5 2 -9q3 -3 1 -11q0 -2 -2 -2l-2 1q0 1 -0.5 3.5t-1.5 3.5q-3 -1 -5 -8q-22 -61 -32 -120q-4 -30 -3 -47q0 -9 1 -14q4 -4 7 -2q9 5 15 13l6 9q3 0 4 -1q8 -4 5 -12q-5 -13 -17 -19
q-4 -3 -11 -3q-10 2 -17.5 9.5t-8.5 16.5q-1 8 -1 23q0 22 8 64q4 22 16 66q2 6 0 9q-5 -2 -11 -10q-24 -29 -42 -60q-68 -115 -79 -268q-1 -14 -1 -82q1 -32 8 -70q9 -39 22 -61q8 -12 13 -18t15 -6z" />
    <glyph glyph-name="Odieresis" unicode="&#xd6;" horiz-adv-x="432" 
d="M336 755q-3 0 -4 1q-5 2 -6 5q-6 4 -1 11q5 8 7 9q6 6 11 3q9 -3 7 -10q0 -7 -4.5 -12.5t-9.5 -6.5zM395 751q-6 3 -8 8q-1 2 -1 4q3 10 10 15q3 1 7 0q2 -1 10 -11l-1 -3q-5 -10 -13 -13q-2 -2 -4 0zM75 -48q-26 10 -42 38q-17 28 -24 68q-11 57 -8 125q7 143 78 268
q24 43 54 76q17 19 32 27q7 5 9 11q1 3 6 16.5t9 20.5q26 59 68 94q26 22 62 31q31 7 54 -5q36 -17 52 -50q14 -36 17 -70v-26q0 -46 -12 -104q-22 -104 -78 -222q-51 -106 -100 -179q-39 -58 -85 -92q-21 -16 -42 -26q-25 -11 -50 -1zM85 -42q10 0 22 5q14 5 43 24
q43 32 82 87q24 34 56 90q63 117 93 200q36 103 44 194q3 45 -5 82q-6 32 -22 56q-10 16 -31 19q-22 2 -41 -4q-39 -11 -72 -47t-58 -101q-2 -5 2 -9q3 -3 1 -11q0 -2 -2 -2l-2 1q0 1 -0.5 3.5t-1.5 3.5q-3 -1 -5 -8q-22 -61 -32 -120q-4 -30 -3 -47q0 -9 1 -14q4 -4 7 -2
q9 5 15 13l6 9q3 0 4 -1q8 -4 5 -12q-5 -13 -17 -19q-4 -3 -11 -3q-10 2 -17.5 9.5t-8.5 16.5q-1 8 -1 23q0 22 8 64q4 22 16 66q2 6 0 9q-5 -2 -11 -10q-24 -29 -42 -60q-68 -115 -79 -268q-1 -14 -1 -82q1 -32 8 -70q9 -39 22 -61q8 -12 13 -18t15 -6z" />
    <glyph glyph-name="multiply" unicode="&#xd7;" horiz-adv-x="270" 
d="M203 234q-16 18 -25 27q-3 4 -10 11l-36 35q-5 5 -10 2l-11 -8.5l-11 -8.5l-37 -28q-2 -1 -11 -7q-6 -4 -9 -1q-6 10 0 14l47 38q6 4 18 13q4 4 0 8l-36 33q-2 2 -2 1q-5 1 -8.5 4.5t-7 9t-5.5 7.5q-6 5 0 16q1 1 3 1q3 -1 6.5 -3.5t5.5 -3.5q6 -6 19.5 -17.5t19.5 -17.5
q10 -11 21 -18q4 -5 10 -2l19 14q65 44 75 50q1 1 2.5 2t2.5 2q4 2 6 1q3 -6 0 -9q-4 -5 -9 -9q-27 -23 -54 -41q-8 -7 -28 -21q-6 -4 0 -10l28 -28q22 -22 31 -35q6 -9 0 -21q-2 -2 -4 0z" />
    <glyph glyph-name="Oslash" unicode="&#xd8;" horiz-adv-x="432" 
d="M425 672q14 -36 17 -70v-26q0 -46 -12 -104q-22 -104 -78 -222q-51 -106 -100 -179q-39 -58 -85 -92q-21 -16 -42 -26q-25 -11 -50 -1q-26 10 -42 38l-2 3q-2 -5 -6.5 -14.5t-6.5 -14.5l-2 -3q-4 -8 -12 -5q-9 2 -5 10q2 7 8 21l13 28q-8 24 -11 43q-11 57 -8 125
q7 143 78 268q24 43 54 76q17 19 32 27q7 5 9 11q1 3 6 16.5t9 20.5q26 59 68 94q26 22 62 31q31 7 54 -5q6 -2 20 -12q10 16 14 24l3 4q2 2 4 1q2 -2 2 -3q0 -4 -4 -12l-10 -21q13 -12 23 -31zM27 113q1 -32 8 -68q52 107 100 195l54 93l196 362q3 5 5 10q-10 9 -23 10
q-22 2 -41 -4q-39 -11 -72 -47t-58 -101q-2 -5 2 -9q3 -3 1 -11q0 -2 -2 -2l-2 1q0 1 -0.5 3.5t-1.5 3.5q-3 -1 -5 -8q-22 -61 -32 -120q-4 -30 -3 -47q0 -9 1 -14q4 -4 7 -2q9 5 15 13l6 9q3 0 4 -1q8 -4 5 -12q-5 -13 -17 -19q-4 -3 -11 -3q-10 2 -17.5 9.5t-8.5 16.5
q-1 8 -1 23q0 22 8 64q4 22 16 66q2 6 0 9q-5 -2 -11 -10q-24 -29 -42 -60q-68 -115 -79 -268q-1 -14 -1 -82zM425 558q3 45 -5 82q-6 32 -22 56l-180 -339l-63 -114l-59 -117q-30 -57 -54 -109q6 -19 15 -35q8 -12 13 -18t15 -6t22 5q14 5 43 24q43 32 82 87q24 34 56 90
q63 117 93 200q36 103 44 194z" />
    <glyph glyph-name="Ugrave" unicode="&#xd9;" horiz-adv-x="870" 
d="M180 -9l-2 1h-2q-19 5 -22 28q-4 23 -2 56q4 42 14 94q28 131 82 263l74 175q12 28 32 86q8 24 11 43q2 14 -1 23q-2 6 -7 5q-8 0 -16 -3q-28 -8 -55 -26q-48 -31 -105 -82q-57 -52 -97 -118q-36 -58 -54 -111q-15 -47 -15 -86q-1 -38 14 -77q10 -28 30 -43l2 -3l-1 -1
q-11 3 -23 17q-14 15 -22 38q-22 52 -12 112q11 73 55 152q42 73 112 138q52 49 106 83q28 16 50 23l14 3q14 2 22 -6l5 -3q23 -12 20 -44q-1 -10 -7 -32q-8 -30 -21 -61q-9 -25 -28 -69.5l-24 -56.5q-44 -104 -63 -157q-35 -100 -56 -200q-8 -38 -12 -78q-3 -24 -1 -54
l3 -15q1 -7 8 -4q10 4 15 7q19 11 37 29q20 18 43 49l107 149l151 225q52 76 97 125q28 30 45 43q19 13 32 18q22 8 33 -11q2 -3 2 -9q1 -9 -2 -20q-13 -44 -33 -82l-62 -117q-51 -100 -73 -185q-10 -42 -14 -76q-2 -15 1 -36q1 -7 7 -17q6 -13 20 -11q17 2 32 7q23 8 51 27
q60 41 113 103l83 96q8 8 12 13q6 6 7.5 6t9.5 -5q-1 -4 -9 -12l-79 -93q-46 -52 -72 -75q-22 -21 -57 -47q-35 -24 -59 -29q-27 -7 -47 5l-7 3q-29 14 -32 49q-1 19 2 44q6 47 27 111q11 32 39 94q21 44 62 115q38 68 57 113q4 10 5 15q2 4 2 9q1 5 -0.5 6t-5.5 0
q-5 -1 -20 -9q-28 -16 -57 -49q-38 -40 -79 -99l-122 -180l-150 -215q-24 -33 -45 -55q-15 -16 -34 -29q-7 -5 -16 -10q-11 -4 -23 0zM535 721q-4 -4 -6 2t-9 15t-7 10l-12 21q-2 4 -3 5q0 2 5 7q3 1 6 -2q16 -18 33 -46q3 -4 -1 -8z" />
    <glyph glyph-name="Uacute" unicode="&#xda;" horiz-adv-x="870" 
d="M555 728l-5 5q-4 2 -2 7q16 26 33 47q5 2 6 1q5 -5 5 -7q0 -1 -1 -2t-1 -2l-13 -21q-1 -2 -7 -11t-8 -15q-2 -4 -7 -2zM180 -9l-2 1h-2q-19 5 -22 28q-4 23 -2 56q4 42 14 94q28 131 82 263l74 175q12 28 32 86q8 24 11 43q2 14 -1 23q-2 6 -7 5q-8 0 -16 -3
q-28 -8 -55 -26q-48 -31 -105 -82q-57 -52 -97 -118q-36 -58 -54 -111q-15 -47 -15 -86q-1 -38 14 -77q10 -28 30 -43l2 -3l-1 -1q-11 3 -23 17q-14 15 -22 38q-22 52 -12 112q11 73 55 152q42 73 112 138q52 49 106 83q28 16 50 23l14 3q14 2 22 -6l5 -3q23 -12 20 -44
q-1 -10 -7 -32q-8 -30 -21 -61q-9 -25 -28 -69.5l-24 -56.5q-44 -104 -63 -157q-35 -100 -56 -200q-8 -38 -12 -78q-3 -24 -1 -54l3 -15q1 -7 8 -4q10 4 15 7q19 11 37 29q20 18 43 49l107 149l151 225q52 76 97 125q28 30 45 43q19 13 32 18q22 8 33 -11q2 -3 2 -9
q1 -9 -2 -20q-13 -44 -33 -82l-62 -117q-51 -100 -73 -185q-10 -42 -14 -76q-2 -15 1 -36q1 -7 7 -17q6 -13 20 -11q17 2 32 7q23 8 51 27q60 41 113 103l83 96q8 8 12 13q6 6 7.5 6t9.5 -5q-1 -4 -9 -12l-79 -93q-46 -52 -72 -75q-22 -21 -57 -47q-35 -24 -59 -29
q-27 -7 -47 5l-7 3q-29 14 -32 49q-1 19 2 44q6 47 27 111q11 32 39 94q21 44 62 115q38 68 57 113q4 10 5 15q2 4 2 9q1 5 -0.5 6t-5.5 0q-5 -1 -20 -9q-28 -16 -57 -49q-38 -40 -79 -99l-122 -180l-150 -215q-24 -33 -45 -55q-15 -16 -34 -29q-7 -5 -16 -10q-11 -4 -23 0z
" />
    <glyph glyph-name="Ucircumflex" unicode="&#xdb;" horiz-adv-x="870" 
d="M591 720q-4 1 -8 7l-15 28l-3 6q-1 1 -3 0l-6 -6l-9.5 -13t-9.5 -14l-6 -6q-2 -2 -5 1q-2 2 -2 5q0 1 2 5q6 9 18 25q14 22 14 24l3 3q1 3 5 1l5 -5q20 -41 25 -56q0 -5 -1 -5h-4zM180 -9l-2 1h-2q-19 5 -22 28q-4 23 -2 56q4 42 14 94q28 131 82 263l74 175q12 28 32 86
q8 24 11 43q2 14 -1 23q-2 6 -7 5q-8 0 -16 -3q-28 -8 -55 -26q-48 -31 -105 -82q-57 -52 -97 -118q-36 -58 -54 -111q-15 -47 -15 -86q-1 -38 14 -77q10 -28 30 -43l2 -3l-1 -1q-11 3 -23 17q-14 15 -22 38q-22 52 -12 112q11 73 55 152q42 73 112 138q52 49 106 83
q28 16 50 23l14 3q14 2 22 -6l5 -3q23 -12 20 -44q-1 -10 -7 -32q-8 -30 -21 -61q-9 -25 -28 -69.5l-24 -56.5q-44 -104 -63 -157q-35 -100 -56 -200q-8 -38 -12 -78q-3 -24 -1 -54l3 -15q1 -7 8 -4q10 4 15 7q19 11 37 29q20 18 43 49l107 149l151 225q52 76 97 125
q28 30 45 43q19 13 32 18q22 8 33 -11q2 -3 2 -9q1 -9 -2 -20q-13 -44 -33 -82l-62 -117q-51 -100 -73 -185q-10 -42 -14 -76q-2 -15 1 -36q1 -7 7 -17q6 -13 20 -11q17 2 32 7q23 8 51 27q60 41 113 103l83 96q8 8 12 13q6 6 7.5 6t9.5 -5q-1 -4 -9 -12l-79 -93
q-46 -52 -72 -75q-22 -21 -57 -47q-35 -24 -59 -29q-27 -7 -47 5l-7 3q-29 14 -32 49q-1 19 2 44q6 47 27 111q11 32 39 94q21 44 62 115q38 68 57 113q4 10 5 15q2 4 2 9q1 5 -0.5 6t-5.5 0q-5 -1 -20 -9q-28 -16 -57 -49q-38 -40 -79 -99l-122 -180l-150 -215
q-24 -33 -45 -55q-15 -16 -34 -29q-7 -5 -16 -10q-11 -4 -23 0z" />
    <glyph glyph-name="Udieresis" unicode="&#xdc;" horiz-adv-x="870" 
d="M180 -9l-2 1h-2q-19 5 -22 28q-4 23 -2 56q4 42 14 94q28 131 82 263l74 175q12 28 32 86q8 24 11 43q2 14 -1 23q-2 6 -7 5q-8 0 -16 -3q-28 -8 -55 -26q-48 -31 -105 -82q-57 -52 -97 -118q-36 -58 -54 -111q-15 -47 -15 -86q-1 -38 14 -77q10 -28 30 -43l2 -3l-1 -1
q-11 3 -23 17q-14 15 -22 38q-22 52 -12 112q11 73 55 152q42 73 112 138q52 49 106 83q28 16 50 23l14 3q14 2 22 -6l5 -3q23 -12 20 -44q-1 -10 -7 -32q-8 -30 -21 -61q-9 -25 -28 -69.5l-24 -56.5q-44 -104 -63 -157q-35 -100 -56 -200q-8 -38 -12 -78q-3 -24 -1 -54
l3 -15q1 -7 8 -4q10 4 15 7q19 11 37 29q20 18 43 49l107 149l151 225q52 76 97 125q28 30 45 43q19 13 32 18q22 8 33 -11q2 -3 2 -9q1 -9 -2 -20q-13 -44 -33 -82l-62 -117q-51 -100 -73 -185q-10 -42 -14 -76q-2 -15 1 -36q1 -7 7 -17q6 -13 20 -11q17 2 32 7q23 8 51 27
q60 41 113 103l83 96q8 8 12 13q6 6 7.5 6t9.5 -5q-1 -4 -9 -12l-79 -93q-46 -52 -72 -75q-22 -21 -57 -47q-35 -24 -59 -29q-27 -7 -47 5l-7 3q-29 14 -32 49q-1 19 2 44q6 47 27 111q11 32 39 94q21 44 62 115q38 68 57 113q4 10 5 15q2 4 2 9q1 5 -0.5 6t-5.5 0
q-5 -1 -20 -9q-28 -16 -57 -49q-38 -40 -79 -99l-122 -180l-150 -215q-24 -33 -45 -55q-15 -16 -34 -29q-7 -5 -16 -10q-11 -4 -23 0zM515 731q-3 0 -4 1q-5 2 -6 5q-6 4 -1 11q5 8 7 9q6 6 11 3q9 -3 7 -10q0 -7 -4.5 -12.5t-9.5 -6.5zM574 727q-6 3 -8 8q-1 2 -1 4
q3 10 10 15q3 1 7 0q2 -1 10 -11l-1 -3q-5 -10 -13 -13q-2 -2 -4 0z" />
    <glyph glyph-name="Yacute" unicode="&#xdd;" horiz-adv-x="702" 
d="M444 719q-4 2 -2 7q16 26 33 47q5 2 6 1q5 -5 5 -7l-1 -2q-1 -1 -1 -2l-13 -21q-1 -2 -7 -11t-8 -15q-2 -4 -7 -2zM732 331q1 -3 -3 -5l-14 -8q-52 -22 -128 -79l-116 -90q-7 -6 -34 -26q-7 -4 -12 -17l-30 -82q-22 -55 -49 -102q-30 -49 -71 -77q-20 -15 -48 -23
q-19 -4 -39 6q-10 5 -10 16q-1 7 1 17q5 18 14 34q28 48 66 91q41 47 116 111q11 10 28 23q7 5 10 15q7 20 14 43l15 51.5t13 43.5q2 9 5 19t7 22t6 19q2 9 2 11q-2 0 -10 -8q-48 -52 -75 -76q-38 -35 -71 -57q-32 -23 -81 -44q-22 -8 -35 -8q-26 0 -48 19q-8 6 -13 19
q-5 15 -5 28q-3 40 4 88q15 117 66 274l24 74q1 1 1 4t1 5v2h-3l-7 -6q-105 -93 -170 -222q-26 -52 -35 -94q-4 -21 -6 -42q-2 -22 4 -40q1 -6 5 -11q10 -21 30 -18q3 0 4 -1q1 0 1 -1q0 -2 -3 -2q-28 -1 -42 23q-9 13 -11 34q-3 47 13 96q18 55 52 115q48 84 117 150l43 40
q9 9 13 9t16 -8q5 -2 5 -9q-2 -12 -4 -17q-5 -19 -17 -55q-36 -110 -54 -184q-18 -77 -25 -142q-4 -33 -3 -64q2 -19 5 -29q1 -5 7 -15q7 -10 20 -10q15 1 35 8q52 18 103 58q67 52 135 128q16 20 24 28q7 11 12 21q13 40 33 93q14 37 38 75q10 17 26 33l8 8q12 7 15.5 6.5
t15.5 -8.5q4 -3 4 -8q0 -10 -3 -19q-6 -21 -24 -52q-15 -27 -47 -72q-3 -5 -41 -56q-6 -8 -9 -16q-36 -114 -52 -171l-15 -48q-2 -10 -4 -14q5 -1 10 4l70 55q74 56 114 80q15 9 45 24.5l34 17.5q6 2 9 0q6 -2 8 -5zM538 461v-6h2q6 8 8 12q38 51 58 92q12 26 15 40q0 2 1 4
l-1 1h-3l-7 -6q-17 -19 -31 -43q-20 -35 -42 -94zM475 345h1q-1 1 -1 0zM394 80q2 5 1 7q-4 0 -8 -4l-24 -21q-66 -58 -95 -92q-37 -42 -58 -77q-10 -16 -14 -32q-3 -11 -3 -19q1 -16 16 -13q3 1 7 2.5t6 1.5q23 8 40 21q37 28 65 75q32 54 67 151z" />
    <glyph glyph-name="Thorn" unicode="&#xde;" horiz-adv-x="573" 
d="M123 -51q-16 5 -17 7.5t-1 13.5q2 59 6 87q1 15 5 45q0 4 -1 5.5t-5 0.5q-20 -2 -36 1q-20 2 -44 18q-11 8 -13.5 24.5t4.5 25.5q8 14 30 27q4 3 11 -2q2 -2 0 -4q-4 -4 -7 -6l-13 -12q-9 -11 -9 -26t9 -26q3 -4 9 -6q8 -2 13 -2q24 -2 48 3q7 1 9 9q15 82 48 196l43 137
q35 118 43 154q11 42 17 79q4 30 3 46q0 12 -5 27q-3 7 -11 7t-22 -6q-16 -6 -39 -23q-36 -28 -71 -73q-61 -80 -96 -178q-21 -63 -18 -129q1 -24 9 -48q7 -21 22 -34q-3 -1 -8 1q-11 8 -20 27q-7 12 -10 30q-9 37 -4 88q4 50 30 115q30 75 74 135q37 48 74 79q18 14 28 19
t19 8q23 8 39 -4l7 -4q22 -11 24 -39q3 -22 -1 -52q-8 -49 -25 -113q-16 -65 -46 -157q-37 -118 -54 -186q-13 -49 -20 -83l-1 -1q0 -2 -1 -7.5t0 -8.5q4 -1 6 -0.5t5.5 2t5.5 1.5q2 2 5 2q8 3 11 11l28 73q62 150 139 264q53 78 117 144q34 35 67 54q27 17 52 22q18 5 34 2
q13 -2 21 -8q8 -5 13 -10q20 -15 20 -40q1 -18 -5 -39q-9 -35 -34 -80q-57 -99 -131 -172q-77 -76 -128 -116q-76 -60 -152 -101q-21 -11 -23 -11q-13 -5 -17 -18l-22 -69l-24 -75q-1 -3 -3.5 -9t-3.5 -9q-2 -5 -7 -3zM200 153q1 1 3 1t3 1q12 8 23 13q55 33 115 80
q64 51 125 112q49 49 71 76q35 44 68 101q22 38 34 69q9 22 12 47q1 15 -3 28q-4 12 -18 15q-19 4 -39 -2q-34 -8 -66 -31q-22 -15 -44 -37q-49 -47 -92 -106q-54 -69 -102 -159q-49 -93 -88 -198q-4 -6 -2 -10zM135 20q4 6 17.5 48t15.5 50q-3 0 -5.5 -0.5t-5.5 -1.5t-5 -1
q-9 -1 -10 -11l-6 -48l-3 -31q0 -5 2 -5z" />
    <glyph glyph-name="germandbls" unicode="&#xdf;" horiz-adv-x="250" 
d="M-150 43q-2 0 -2 3q0 1 2 3q0 1 2 1q6 -3 12 5q10 10 14 16q26 34 57 91q44 81 88 172q30 63 82 154l64 112q20 35 46 68q20 27 43 43q6 6 15 9q7 4 14 -1l8 -5q6 -5 8 -16q0 -6 -2 -20q-10 -32 -21 -59q-23 -60 -68 -127q-57 -84 -112 -137q-5 -5 -4 -7q2 -1 5.5 -1.5
t4.5 -0.5q26 -3 42 -21t15 -44v-11v-9q3 -1 8 4l86 62q6 4 10 6q8 5 18 -2q-1 -3 -8 -8l-80 -58q-22 -18 -34 -27q-8 -7 -11 -16q-12 -33 -25 -55q-20 -32 -43 -51q-9 -9 -17 -11q-5 -2 -13 0.5t-11 7.5q-1 1 -1 9q1 5 8 18q6 11 22 31q38 42 59 60q8 6 11 18q5 17 7 40
q0 22 -11 36q-9 12 -23 13q-11 1 -33 -7q-6 -1 -14 -6q-9 -6 -15 2q-3 2 -1 4l4 4q50 44 104 115q28 37 57 83q41 65 68 146q5 16 4 28q0 6 -5 3q-7 -3 -14 -8q-17 -12 -33 -31q-25 -29 -56 -81q-9 -14 -69 -122q-29 -50 -93 -176q-47 -90 -88 -158q-18 -32 -44 -66
q-14 -16 -20 -20q-10 -6 -17 -5zM58 117q1 -2 3 0q6 3 11 8q27 24 50 69q2 3 0 5h-2q-37 -35 -55 -64l-8 -15q0 -2 1 -3z" />
    <glyph glyph-name="agrave" unicode="&#xe0;" 
d="M93 430q-4 -4 -6 2t-9 15t-7 10l-12 21q-2 4 -3 5q0 2 5 7q3 1 6 -2q16 -18 33 -46q3 -4 -1 -8zM140 245q-16 -11 -37 3q-4 2 -7 11q-3 11 -1 34q5 33 20 70q3 11 2 12q-1 0 -7 -6l-55 -67l-22 -24q-1 -1 -7 -5q-13 -9 -23 2q-3 3 -3 7l3 14q14 38 41 65q5 5 11 8
q8 7 22 3l5 -2q9 -3 10.5 -2.5t7.5 7.5l29 36q1 2 4 5q6 6 13 2q5 -3 4 -8t-5 -15q-18 -44 -26 -75q-9 -31 -8 -52q0 -10 2 -15q1 -5 6 -3q7 1 17 7q20 13 37 30q11 11 31 33q4 3 10 9q5 5 10 2q7 -3 1 -8q-40 -43 -49 -51q-16 -15 -27 -22zM19 284q4 2 14 12q3 3 52 61
q5 7 -4 10q-6 1 -11 -2q-6 -2 -15 -11q-23 -27 -37 -63q-2 -3 1 -7z" />
    <glyph glyph-name="aacute" unicode="&#xe1;" 
d="M113 441l-5 5q-4 2 -2 7q16 26 33 47q5 2 6 1q5 -5 5 -7l-1 -2q-1 -1 -1 -2l-13 -21q-1 -2 -7 -11t-8 -15q-2 -4 -7 -2zM140 245q-16 -11 -37 3q-4 2 -7 11q-3 11 -1 34q5 33 20 70q3 11 2 12q-1 0 -7 -6l-55 -67l-22 -24q-1 -1 -7 -5q-13 -9 -23 2q-3 3 -3 7l3 14
q14 38 41 65q5 5 11 8q8 7 22 3l5 -2q9 -3 10.5 -2.5t7.5 7.5l29 36q1 2 4 5q6 6 13 2q5 -3 4 -8t-5 -15q-18 -44 -26 -75q-9 -31 -8 -52q0 -10 2 -15q1 -5 6 -3q7 1 17 7q20 13 37 30q11 11 31 33q4 3 10 9q5 5 10 2q7 -3 1 -8q-40 -43 -49 -51q-16 -15 -27 -22zM19 284
q4 2 14 12q3 3 52 61q5 7 -4 10q-6 1 -11 -2q-6 -2 -15 -11q-23 -27 -37 -63q-2 -3 1 -7z" />
    <glyph glyph-name="acircumflex" unicode="&#xe2;" 
d="M141 433q-4 1 -8 7l-15 28l-3 6q-1 2 -3 0l-6 -6l-9.5 -13t-9.5 -14l-6 -6q-2 -2 -5 1q-2 2 -2 5q0 1 2 5q6 9 18 25q14 22 14 24l3 3q1 3 5 1l5 -5q20 -42 25 -56q0 -4 -1 -5h-4zM140 245q-16 -11 -37 3q-4 2 -7 11q-3 11 -1 34q5 33 20 70q3 11 2 12q-1 0 -7 -6
l-55 -67l-22 -24q-1 -1 -7 -5q-13 -9 -23 2q-3 3 -3 7l3 14q14 38 41 65q5 5 11 8q8 7 22 3l5 -2q9 -3 10.5 -2.5t7.5 7.5l29 36q1 2 4 5q6 6 13 2q5 -3 4 -8t-5 -15q-18 -44 -26 -75q-9 -31 -8 -52q0 -10 2 -15q1 -5 6 -3q7 1 17 7q20 13 37 30q11 11 31 33q4 3 10 9
q5 5 10 2q7 -3 1 -8q-40 -43 -49 -51q-16 -15 -27 -22zM19 284q4 2 14 12q3 3 52 61q5 7 -4 10q-6 1 -11 -2q-6 -2 -15 -11q-23 -27 -37 -63q-2 -3 1 -7z" />
    <glyph glyph-name="atilde" unicode="&#xe3;" 
d="M100 430q-16 -7 -24 8q-4 7 -6 17q0 4 3 4t4 -1l3 -8q2 -5 8 -5q8 1 18 9l12 10q9 6 18 -2q8 -7 10 -24q-2 1 -5 7q-7 11 -18 3l-9 -9q-6 -6 -14 -9zM140 245q-16 -11 -37 3q-4 2 -7 11q-3 11 -1 34q5 33 20 70q3 11 2 12q-1 0 -7 -6l-55 -67l-22 -24q-1 -1 -7 -5
q-13 -9 -23 2q-3 3 -3 7l3 14q14 38 41 65q5 5 11 8q8 7 22 3l5 -2q9 -3 10.5 -2.5t7.5 7.5l29 36q1 2 4 5q6 6 13 2q5 -3 4 -8t-5 -15q-18 -44 -26 -75q-9 -31 -8 -52q0 -10 2 -15q1 -5 6 -3q7 1 17 7q20 13 37 30q11 11 31 33q4 3 10 9q5 5 10 2q7 -3 1 -8
q-40 -43 -49 -51q-16 -15 -27 -22zM19 284q4 2 14 12q3 3 52 61q5 7 -4 10q-6 1 -11 -2q-6 -2 -15 -11q-23 -27 -37 -63q-2 -3 1 -7z" />
    <glyph glyph-name="adieresis" unicode="&#xe4;" 
d="M78 445q-3 0 -4 1q-5 2 -6 5q-6 4 -1 11q5 8 7 9q6 6 11 3q9 -3 7 -10q0 -7 -4.5 -12.5t-9.5 -6.5zM137 441q-6 3 -8 8q-1 2 -1 4q3 10 10 15q3 1 7 0q3 -1 10 -11l-1 -3q-5 -10 -13 -13q-2 -2 -4 0zM140 245q-16 -11 -37 3q-4 2 -7 11q-3 11 -1 34q5 33 20 70q3 11 2 12
q-1 0 -7 -6l-55 -67l-22 -24q-1 -1 -7 -5q-13 -9 -23 2q-3 3 -3 7l3 14q14 38 41 65q5 5 11 8q8 7 22 3l5 -2q9 -3 10.5 -2.5t7.5 7.5l29 36q1 2 4 5q6 6 13 2q5 -3 4 -8t-5 -15q-18 -44 -26 -75q-9 -31 -8 -52q0 -10 2 -15q1 -5 6 -3q7 1 17 7q20 13 37 30q11 11 31 33
q4 3 10 9q5 5 10 2q7 -3 1 -8q-40 -43 -49 -51q-16 -15 -27 -22zM19 284q4 2 14 12q3 3 52 61q5 7 -4 10q-6 1 -11 -2q-6 -2 -15 -11q-23 -27 -37 -63q-2 -3 1 -7z" />
    <glyph glyph-name="aring" unicode="&#xe5;" 
d="M96 430q-19 11 -11 32q3 6 8 11q9 9 18 -1q1 -1 1 -5q-2 -3 -4 -1q-4 1 -6 -3q-4 -3 -5 -8q-3 -11 -1 -12q3 -2 12 5q13 12 12 24q-1 3 -1 5q0 3 2 3t2 -1q15 -12 7 -29q-7 -15 -25 -20q-5 -2 -9 0zM140 245q-16 -11 -37 3q-4 2 -7 11q-3 11 -1 34q5 33 20 70q3 11 2 12
q-1 0 -7 -6l-55 -67l-22 -24q-1 -1 -7 -5q-13 -9 -23 2q-3 3 -3 7l3 14q14 38 41 65q5 5 11 8q8 7 22 3l5 -2q9 -3 10.5 -2.5t7.5 7.5l29 36q1 2 4 5q6 6 13 2q5 -3 4 -8t-5 -15q-18 -44 -26 -75q-9 -31 -8 -52q0 -10 2 -15q1 -5 6 -3q7 1 17 7q20 13 37 30q11 11 31 33
q4 3 10 9q5 5 10 2q7 -3 1 -8q-40 -43 -49 -51q-16 -15 -27 -22zM19 284q4 2 14 12q3 3 52 61q5 7 -4 10q-6 1 -11 -2q-6 -2 -15 -11q-23 -27 -37 -63q-2 -3 1 -7z" />
    <glyph glyph-name="ae" unicode="&#xe6;" horiz-adv-x="258" 
d="M267 333q7 5 9.5 5t11.5 -7q-2 -2 -4.5 -3.5t-3.5 -2.5q-56 -49 -98 -72q-22 -13 -42 -16q-6 -1 -12 0q-13 2 -28 16q-3 3 -4 5v1q-2 6 -2 10q-3 15 2 32q0 1 1 3t1 3q5 23 17 56q3 11 2 12q-1 0 -7 -6l-55 -67l-22 -24q-1 -1 -7 -5q-13 -9 -23 2q-3 3 -3 7l3 14
q14 38 41 65q5 5 11 8q8 7 22 3l5 -2q9 -3 10.5 -2.5t7.5 7.5l29 36q1 2 4 5q6 6 13 2q5 -3 4 -8t-5 -15l5 6q14 14 19 17q5 4 9 6q7 3 15.5 -1t10.5 -11q1 -4 0 -8q-2 -9 -12 -25q-17 -25 -43 -48q-2 -2 -25 -19q-4 -3 -8 -11q-6 -18 -4 -40v-4q3 -11 15 -8q16 2 24 5
q12 5 29 15q31 19 79 58zM172 401q-25 -28 -43 -67q-1 -3 0 -4q2 -1 5 2q22 20 32 32q16 20 22 32q5 8 5 15q0 5 -4 3q-7 -3 -17 -13zM85 357q5 7 -4 10q-6 1 -11 -2q-6 -2 -15 -11q-23 -27 -37 -63q-2 -3 1 -7q4 2 14 12q3 3 52 61z" />
    <glyph glyph-name="ccedilla" unicode="&#xe7;" horiz-adv-x="124" 
d="M153 332q3 -3 0 -5l-2 -3l-86 -66l-20 -14q-7 -4 -14 -7q-5 -3 -11 -4q0 -2 -2 -6l-3.5 -11t-4.5 -12q-1 -3 0 -7q3 1 8 3t6 3l24 9q13 2 22 -7t5 -22q-5 -17 -20.5 -30.5t-33.5 -14.5q-17 -2 -30 10q-3 3 0 8q1 0 1 1q8 6 11.5 6t9.5 -7q4 -3 7 -2q27 8 42 38q0 1 0.5 3
t0.5 3q0 6 -5 4q-3 0 -11 -2l-26 -12l-12 -6q-4 -3 -10 -1t-8 7q-1 1 -1 5q9 27 17 42q-3 2 -11 6q-4 3 -6 9q-2 8 -2 12t2 14q9 44 42 74q16 12 25 14q15 5 26 -3q4 -2 4 -6q0 -1 -1 -3v-1q-3 -1 -5 1q-1 2 -1 4q-3 4 -7 3q-11 -2 -20 -9q-14 -11 -24 -25q-19 -28 -25 -62
v-4q0 -14 4 -16t14 3q19 8 37 23q54 42 74 56l12 8q1 1 8 -1z" />
    <glyph glyph-name="egrave" unicode="&#xe8;" horiz-adv-x="165" 
d="M101 443q-4 -4 -6 2t-9 15t-7 10l-12 21q-2 4 -3 5q0 2 5 7q3 1 6 -2q16 -18 33 -46q3 -4 -1 -8zM35 237q-13 2 -28 16q-6 6 -6 16q-3 15 2 32q5 19 17 43q17 35 37 57q14 14 19 17q4 4 9 6q7 3 15.5 -1t10.5 -11q1 -4 0 -8q-2 -9 -12 -25q-17 -25 -43 -48q-2 -2 -25 -19
q-4 -3 -8 -11q-6 -18 -4 -41q1 -14 15 -11q16 2 24 5q12 5 29 15q31 19 79 58l8 6q7 5 9.5 5t11.5 -7q-2 -2 -4.5 -3.5t-3.5 -2.5q-56 -49 -98 -72q-22 -13 -42 -16q-6 -1 -12 0zM36 330q2 -1 5 2q22 20 32 32q16 20 22 32q5 8 5 15q0 5 -4 3q-7 -3 -17 -13q-25 -28 -43 -67
q-1 -3 0 -4z" />
    <glyph glyph-name="eacute" unicode="&#xe9;" horiz-adv-x="165" 
d="M109 450l-5 5q-4 2 -2 7q16 26 33 47q5 2 6 1q5 -5 5 -7l-1 -2q-1 -1 -1 -2l-13 -21q-1 -2 -7 -11t-8 -15q-2 -4 -7 -2zM35 237q-13 2 -28 16q-6 6 -6 16q-3 15 2 32q5 19 17 43q17 35 37 57q14 14 19 17q4 4 9 6q7 3 15.5 -1t10.5 -11q1 -4 0 -8q-2 -9 -12 -25
q-17 -25 -43 -48q-2 -2 -25 -19q-4 -3 -8 -11q-6 -18 -4 -41q1 -14 15 -11q16 2 24 5q12 5 29 15q31 19 79 58l8 6q7 5 9.5 5t11.5 -7q-2 -2 -4.5 -3.5t-3.5 -2.5q-56 -49 -98 -72q-22 -13 -42 -16q-6 -1 -12 0zM36 330q2 -1 5 2q22 20 32 32q16 20 22 32q5 8 5 15q0 5 -4 3
q-7 -3 -17 -13q-25 -28 -43 -67q-1 -3 0 -4z" />
    <glyph glyph-name="ecircumflex" unicode="&#xea;" horiz-adv-x="165" 
d="M133 444q-4 1 -8 7l-15 28l-3 6q-1 1 -3 0l-6 -6q-3 -5 -9.5 -14l-9.5 -13l-6 -6q-2 -2 -5 1q-2 2 -2 5q0 1 2 5q6 9 18 25q14 22 14 24l3 3q1 3 5 1l5 -5q20 -42 25 -56q0 -5 -1 -5h-4zM35 237q-13 2 -28 16q-6 6 -6 16q-3 15 2 32q5 19 17 43q17 35 37 57q14 14 19 17
q4 4 9 6q7 3 15.5 -1t10.5 -11q1 -4 0 -8q-2 -9 -12 -25q-17 -25 -43 -48q-2 -2 -25 -19q-4 -3 -8 -11q-6 -18 -4 -41q1 -14 15 -11q16 2 24 5q12 5 29 15q31 19 79 58l8 6q7 5 9.5 5t11.5 -7q-2 -2 -4.5 -3.5t-3.5 -2.5q-56 -49 -98 -72q-22 -13 -42 -16q-6 -1 -12 0z
M36 330q2 -1 5 2q22 20 32 32q16 20 22 32q5 8 5 15q0 5 -4 3q-7 -3 -17 -13q-25 -28 -43 -67q-1 -3 0 -4z" />
    <glyph glyph-name="edieresis" unicode="&#xeb;" horiz-adv-x="165" 
d="M67 453q-3 0 -4 1q-5 2 -6 5q-6 4 -1 11q5 8 7 9q6 6 11 3q9 -3 7 -10q0 -7 -4.5 -12.5t-9.5 -6.5zM126 449q-6 3 -8 8q-1 2 -1 4q3 10 10 15q3 1 7 0q3 -1 10 -11l-1 -3q-5 -10 -13 -13q-2 -2 -4 0zM35 237q-13 2 -28 16q-6 6 -6 16q-3 15 2 32q5 19 17 43q17 35 37 57
q14 14 19 17q4 4 9 6q7 3 15.5 -1t10.5 -11q1 -4 0 -8q-2 -9 -12 -25q-17 -25 -43 -48q-2 -2 -25 -19q-4 -3 -8 -11q-6 -18 -4 -41q1 -14 15 -11q16 2 24 5q12 5 29 15q31 19 79 58l8 6q7 5 9.5 5t11.5 -7q-2 -2 -4.5 -3.5t-3.5 -2.5q-56 -49 -98 -72q-22 -13 -42 -16
q-6 -1 -12 0zM36 330q2 -1 5 2q22 20 32 32q16 20 22 32q5 8 5 15q0 5 -4 3q-7 -3 -17 -13q-25 -28 -43 -67q-1 -3 0 -4z" />
    <glyph glyph-name="igrave" unicode="&#xec;" horiz-adv-x="147" 
d="M57 401q-4 -4 -6 2t-9 15t-7 10l-12 21q-2 4 -3 5q0 2 5 7q3 1 6 -2q16 -18 33 -46q3 -4 -1 -8zM54 244q-14 -5 -31 3q-9 5 -11 16l-2 14q3 41 21 77q4 6 7 9q2 2 5 1t5 -3v-4q-16 -25 -22 -81q-2 -12 1 -21q3 -5 8 -5q3 0 18 5q24 14 36 22l68 53q3 3 5 4q6 6 14 -1
q1 0 1.5 -1t-0.5 -2l-4 -4q-56 -46 -93 -69q-15 -9 -26 -13z" />
    <glyph glyph-name="iacute" unicode="&#xed;" horiz-adv-x="147" 
d="M68 394l-5 5q-4 2 -2 7q16 26 33 47q5 2 6 1q5 -5 5 -7q-1 -1 -1 -2t-1 -2l-13 -21q-1 -1 -7 -10.5t-8 -15.5q-2 -4 -7 -2zM54 244q-14 -5 -31 3q-9 5 -11 16l-2 14q3 41 21 77q4 6 7 9q2 2 5 1t5 -3v-4q-16 -25 -22 -81q-2 -12 1 -21q3 -5 8 -5q3 0 18 5q24 14 36 22
l68 53q3 3 5 4q6 6 14 -1q1 0 1.5 -1t-0.5 -2l-4 -4q-56 -46 -93 -69q-15 -9 -26 -13z" />
    <glyph glyph-name="icircumflex" unicode="&#xee;" horiz-adv-x="147" 
d="M87 390q-4 1 -8 7l-15 28l-3 6q-1 1 -3 0l-6 -6q-3 -5 -9.5 -14l-9.5 -13l-6 -6q-2 -2 -5 1q-2 2 -2 5q0 1 2 5q6 9 18 25q14 22 14 24l3 3q1 3 5 1l5 -5q20 -41 25 -56q0 -5 -1 -5h-4zM54 244q-14 -5 -31 3q-9 5 -11 16l-2 14q3 41 21 77q4 6 7 9q2 2 5 1t5 -3v-4
q-16 -25 -22 -81q-2 -12 1 -21q3 -5 8 -5q3 0 18 5q24 14 36 22l68 53q3 3 5 4q6 6 14 -1q1 0 1.5 -1t-0.5 -2l-4 -4q-56 -46 -93 -69q-15 -9 -26 -13z" />
    <glyph glyph-name="idieresis" unicode="&#xef;" horiz-adv-x="147" 
d="M26 404q-3 0 -4 1q-5 2 -6 5q-6 4 -1 11q5 8 7 9q6 6 11 3q9 -3 7 -10q0 -7 -4.5 -12.5t-9.5 -6.5zM85 400q-6 3 -8 8q-1 2 -1 4q3 10 10 15q3 1 7 0q2 -1 10 -11l-1 -3q-5 -10 -13 -13q-2 -2 -4 0zM54 244q-14 -5 -31 3q-9 5 -11 16l-2 14q3 41 21 77q4 6 7 9q2 2 5 1
t5 -3v-4q-16 -25 -22 -81q-2 -12 1 -21q3 -5 8 -5q3 0 18 5q24 14 36 22l68 53q3 3 5 4q6 6 14 -1q1 0 1.5 -1t-0.5 -2l-4 -4q-56 -46 -93 -69q-15 -9 -26 -13z" />
    <glyph glyph-name="eth" unicode="&#xf0;" horiz-adv-x="219" 
d="M255 618q-7 -21 -22 -51q-8 -16 -12 -23h13q3 0 4 -2q2 -2 2 -6q-1 -1 -3 -2l-1 -1q-1 0 -8.5 -0.5t-12.5 -0.5l-23 -39l-19 -32q-40 -62 -61 -92q-7 -9 -10 -23q-14 -60 -19 -102q0 -2 -6 -53q-2 -18 3 -35q4 -14 15 -5q8 6 22 20q43 50 70 91l35 52l12 16q4 5 10 2
q4 -2 2 -5v-1q-11 -15 -31.5 -48t-32.5 -49q-23 -31 -50 -62q-14 -16 -23 -23q-11 -8 -24 -5t-18 15q-4 10 -6 31q0 22 3 43q5 40 12 77q2 8 0 12q-2 -1 -6 -5l-27 -30q-2 -2 -12 -10q-8 -5 -14 -1l-6 3q-8 3 -8 10q0 11 1 17q6 29 23 48l8 8q10 7 22 4q13 -5 21 -13
q8 5 12 20q5 25 10 40q7 28 20 59q18 42 28 63q-15 0 -22 1q-4 0 -6 6q0 4 2 4h2q2 0 12.5 0.5t17.5 0.5q11 25 27 52q15 27 31 44q11 11 18 15q13 8 27 -6q2 -1 2 -8q1 -5 -4 -21zM172 542q12 1 34 1l14 27q18 38 24 58q2 8 2 13t-4 3t-10 -8q-11 -11 -23 -28
q-19 -29 -37 -66zM169 483l30 49q-11 -1 -32 -1q-30 -63 -45 -110q-3 -8 -1 -12q5 7 5 8zM71 336q2 4 1 8q-10 20 -25 6l-4 -3q-18 -22 -25 -56v-5l2 -3h4l2 2q17 15 45 51z" />
    <glyph glyph-name="ntilde" unicode="&#xf1;" horiz-adv-x="201" 
d="M86 436q-16 -7 -24 8q-4 7 -6 17q0 4 3 4t4 -1l3 -8q2 -5 8 -5q8 1 18 9l12 10q9 6 18 -2q8 -7 10 -24q-2 1 -5 7q-7 11 -18 3l-9 -9q-6 -6 -14 -9zM16 248q-10 3 -9 12q0 7 2 23q13 70 42 128l5 9q3 3 6 2q3 -3 2 -6q-4 -6 -15 -34q-19 -47 -28 -102q0 -8 1 -10
q2 2 4.5 7t4.5 7l27 48q6 10 15 21q5 5 11 2q10 -3 12 -14q1 -4 2.5 -12t2.5 -12q1 -12 8 -23q4 -8 13 -8q34 3 59 20l21 15q13 10 14 11q7 6 15 -1q1 -3 -4 -5q-12 -12 -19 -17q-29 -26 -70 -31q-15 -1 -34 9q-10 7 -13 19q-4 9 -6 28q0 1 -0.5 3t-0.5 3t-1.5 2t-2.5 0
q-4 -4 -10 -12q-6 -9 -15.5 -26t-13.5 -23q-13 -23 -14 -25l-5 -6q-3 -3 -6 -2z" />
    <glyph glyph-name="ograve" unicode="&#xf2;" horiz-adv-x="155" 
d="M93 430q-4 -4 -6 2t-9 15t-7 10l-12 21q-2 4 -3 5q0 2 5 7q3 1 6 -2q16 -18 33 -46q3 -4 -1 -8zM49 253q-18 -14 -33 5q-4 5 -6 17q0 21 7 38q6 13 3 23q-3 9 2 19q11 35 42 53l6 3q15 5 24 2t21 -15q4 -4 4 -12q2 -14 -1 -23q-6 -27 -19 -48q-1 -1 -2 -4t-2 -5
q-3 -3 -1 -4q1 -1 5 -1q20 4 41 14l32 17q9 4 13 -6q0 -3 -3 -6l-21 -13q-31 -17 -70 -19q-8 3 -15 -8q-14 -18 -27 -27zM69 301q6 -3 11 4q11 19 18 37q9 29 9 43q0 3 -2 11q0 6 -6 6q-11 0 -21 -7q-28 -17 -40 -50q-2 -5 2 -8q5 -4 1 -10q-1 -1 -1 -2q-5 -11 6 -16
q11 -7 23 -8zM34 258q22 12 34 33l-5 3q-11 4 -25 14q-3 3 -5 -1q-9 -23 -6 -45q0 -6 7 -4z" />
    <glyph glyph-name="oacute" unicode="&#xf3;" horiz-adv-x="155" 
d="M107 437l-5 5q-4 2 -2 7q16 26 33 47q5 2 6 1q5 -5 5 -7l-1 -2l-1 -2l-13 -21q-1 -1 -7 -10.5t-8 -15.5q-2 -4 -7 -2zM49 253q-18 -14 -33 5q-4 5 -6 17q0 21 7 38q6 13 3 23q-3 9 2 19q11 35 42 53l6 3q15 5 24 2t21 -15q4 -4 4 -12q2 -14 -1 -23q-6 -27 -19 -48
q-1 -1 -2 -4t-2 -5q-3 -3 -1 -4q1 -1 5 -1q20 4 41 14l32 17q9 4 13 -6q0 -3 -3 -6l-21 -13q-31 -17 -70 -19q-8 3 -15 -8q-14 -18 -27 -27zM69 301q6 -3 11 4q11 19 18 37q9 29 9 43q0 3 -2 11q0 6 -6 6q-11 0 -21 -7q-28 -17 -40 -50q-2 -5 2 -8q5 -4 1 -10q-1 -1 -1 -2
q-5 -11 6 -16q11 -7 23 -8zM34 258q22 12 34 33l-5 3q-11 4 -25 14q-3 3 -5 -1q-9 -23 -6 -45q0 -6 7 -4z" />
    <glyph glyph-name="ocircumflex" unicode="&#xf4;" horiz-adv-x="155" 
d="M127 428q-4 1 -8 7l-15 28l-3 6q-1 1 -3 0l-6 -6q-3 -5 -9.5 -14l-9.5 -13l-6 -6q-2 -2 -5 1q-2 2 -2 5q0 1 2 5q6 9 18 25q14 22 14 24l3 3q1 3 5 1l5 -5q20 -41 25 -56q0 -5 -1 -5h-4zM49 253q-18 -14 -33 5q-4 5 -6 17q0 21 7 38q6 13 3 23q-3 9 2 19q11 35 42 53l6 3
q15 5 24 2t21 -15q4 -4 4 -12q2 -14 -1 -23q-6 -27 -19 -48q-1 -1 -2 -4t-2 -5q-3 -3 -1 -4q1 -1 5 -1q20 4 41 14l32 17q9 4 13 -6q0 -3 -3 -6l-21 -13q-31 -17 -70 -19q-8 3 -15 -8q-14 -18 -27 -27zM69 301q6 -3 11 4q11 19 18 37q9 29 9 43q0 3 -2 11q0 6 -6 6
q-11 0 -21 -7q-28 -17 -40 -50q-2 -5 2 -8q5 -4 1 -10q-1 -1 -1 -2q-5 -11 6 -16q11 -7 23 -8zM34 258q22 12 34 33l-5 3q-11 4 -25 14q-3 3 -5 -1q-9 -23 -6 -45q0 -6 7 -4z" />
    <glyph glyph-name="otilde" unicode="&#xf5;" horiz-adv-x="155" 
d="M83 433q-16 -7 -24 8q-4 7 -6 17q0 4 3 4t4 -1l3 -8q3 -5 8 -5q8 1 18 9l12 10q9 6 18 -2q8 -7 10 -24q-2 1 -5 7q-8 10 -18 3l-9 -9q-6 -6 -14 -9zM49 253q-18 -14 -33 5q-4 5 -6 17q0 21 7 38q6 13 3 23q-3 9 2 19q11 35 42 53l6 3q15 5 24 2t21 -15q4 -4 4 -12
q2 -14 -1 -23q-6 -27 -19 -48q-1 -1 -2 -4t-2 -5q-3 -3 -1 -4q1 -1 5 -1q20 4 41 14l32 17q9 4 13 -6q0 -3 -3 -6l-21 -13q-31 -17 -70 -19q-8 3 -15 -8q-14 -18 -27 -27zM69 301q6 -3 11 4q11 19 18 37q9 29 9 43q0 3 -2 11q0 6 -6 6q-11 0 -21 -7q-28 -17 -40 -50
q-2 -5 2 -8q5 -4 1 -10q-1 -1 -1 -2q-5 -11 6 -16q11 -7 23 -8zM34 258q22 12 34 33l-5 3q-11 4 -25 14q-3 3 -5 -1q-9 -23 -6 -45q0 -6 7 -4z" />
    <glyph glyph-name="odieresis" unicode="&#xf6;" horiz-adv-x="155" 
d="M67 442q-3 0 -4 1q-5 2 -6 5q-6 4 -1 11q5 8 7 9q6 6 11 3q9 -3 7 -10q0 -7 -4.5 -12.5t-9.5 -6.5zM126 438q-6 3 -8 8q-1 2 -1 4q3 10 10 15q3 1 7 0q3 -1 10 -11l-1 -3q-5 -10 -13 -13q-2 -2 -4 0zM49 253q-18 -14 -33 5q-4 5 -6 17q0 21 7 38q6 13 3 23q-3 9 2 19
q11 35 42 53l6 3q15 5 24 2t21 -15q4 -4 4 -12q2 -14 -1 -23q-6 -27 -19 -48q-1 -1 -2 -4t-2 -5q-3 -3 -1 -4q1 -1 5 -1q20 4 41 14l32 17q9 4 13 -6q0 -3 -3 -6l-21 -13q-31 -17 -70 -19q-8 3 -15 -8q-14 -18 -27 -27zM69 301q6 -3 11 4q11 19 18 37q9 29 9 43q0 3 -2 11
q0 6 -6 6q-11 0 -21 -7q-28 -17 -40 -50q-2 -5 2 -8q5 -4 1 -10q-1 -1 -1 -2q-5 -11 6 -16q11 -7 23 -8zM34 258q22 12 34 33l-5 3q-11 4 -25 14q-3 3 -5 -1q-9 -23 -6 -45q0 -6 7 -4z" />
    <glyph glyph-name="divide" unicode="&#xf7;" horiz-adv-x="260" 
d="M135 373q-14 2 -9 13q2 7 5 10t6 1q5 -4 7 -11q0 -8 -6 -12q-2 0 -3 -1zM230 315q-17 12 -49 12q-48 2 -121 -3q-8 -2 -11 -2q-8 -1 -9 7q-1 6 6 9q15 3 29 3q60 4 89 5q20 0 30 -1q2 0 4.5 -0.5t5.5 -1.5t5 -1q19 -8 21 -27zM135 273q-14 2 -9 13q2 7 5 10t6 1
q5 -4 7 -11q0 -8 -6 -12q-2 0 -3 -1z" />
    <glyph glyph-name="oslash" unicode="&#xf8;" horiz-adv-x="155" 
d="M172 332q9 4 13 -6q0 -3 -3 -6l-21 -13q-31 -17 -70 -19q-8 3 -15 -8q-14 -18 -27 -27q-15 -12 -29 0l-3 -5l-5 -10q-4 -7 -11 -3q-6 2 -4 10q1 2 6 10.5t8 12.5l-1 7q0 21 7 38q6 13 3 23q-3 9 2 19q11 35 42 53l6 3q20 8 36 -5q2 3 7 8q2 2 12 10q17 9 34 0
q-19 -6 -40 -31l-1 -1q1 -2 1 -6q2 -14 -1 -23q-6 -27 -19 -48q-1 -1 -2 -4t-2 -5q-3 -3 -1 -4q1 -1 5 -1q20 4 41 14zM38 345q-2 -5 2 -8q5 -4 1 -10q-1 -1 -1 -2q-4 -9 1 -13q31 49 53 79q2 1 4 5t4 5q-1 1 -3 1q-11 0 -21 -7q-28 -17 -40 -50zM80 305q11 19 18 37
q8 30 9 35q-2 -2 -52 -72q6 -2 14 -4q6 -3 11 4zM38 308q-3 3 -5 -1q-2 -5 -4 -13zM34 258q22 12 34 33l-5 3q-4 1 -12 5l-24 -36v-1q0 -6 7 -4z" />
    <glyph glyph-name="ugrave" unicode="&#xf9;" 
d="M77 370q-4 -4 -6 2t-9 15t-7 10l-12 21q-2 4 -3 5q0 2 5 7q3 1 6 -2q16 -18 33 -46q3 -4 -1 -8zM103 192q-14 4 -20 9q-3 3 -3 6q-3 8 -1 18q5 35 13 61q0 2 1.5 7t2.5 9q-3 -1 -8 -9q-3 -3 -28 -37q-12 -16 -23 -23q-16 -12 -31 2q-3 2 -5 9q-2 12 -1 18q1 26 13 54
q1 6 5 11q3 5 9 2q4 -4 2 -6q-9 -23 -13 -64q-2 -16 3 -22q4 1 18 12q9 8 21 24l54 76q0 1 3 4.5t4 5.5q3 3 8 1q9 -4 5 -13q-16 -42 -26 -80q-6 -24 -9 -50q-1 -2 -1 -8q2 -7 7 -4q2 1 6 5q12 8 17 13q28 27 45 50l37 47l4 4q6 8 14 2q3 -3 2 -6l-4 -6q-39 -54 -84 -98
q-16 -14 -25 -19q-8 -6 -12 -5z" />
    <glyph glyph-name="uacute" unicode="&#xfa;" 
d="M77 385l-5 5q-4 2 -2 7q16 26 33 47q5 2 6 1q5 -5 5 -7l-1 -2l-1 -2l-13 -21q-1 -1 -7 -10.5t-8 -15.5q-2 -4 -7 -2zM103 192q-14 4 -20 9q-3 3 -3 6q-3 8 -1 18q5 35 13 61q0 2 1.5 7t2.5 9q-3 -1 -8 -9q-3 -3 -28 -37q-12 -16 -23 -23q-16 -12 -31 2q-3 2 -5 9
q-2 12 -1 18q1 26 13 54q1 6 5 11q3 5 9 2q4 -4 2 -6q-9 -23 -13 -64q-2 -16 3 -22q4 1 18 12q9 8 21 24l54 76q0 1 3 4.5t4 5.5q3 3 8 1q9 -4 5 -13q-16 -42 -26 -80q-6 -24 -9 -50q-1 -2 -1 -8q2 -7 7 -4q2 1 6 5q12 8 17 13q28 27 45 50l37 47l4 4q6 8 14 2q3 -3 2 -6
l-4 -6q-39 -54 -84 -98q-16 -14 -25 -19q-8 -6 -12 -5z" />
    <glyph glyph-name="ucircumflex" unicode="&#xfb;" 
d="M117 384q-4 1 -8 7l-15 28l-3 6q-1 1 -3 0l-6 -6l-9.5 -13t-9.5 -14l-6 -6q-2 -2 -5 1q-2 2 -2 5q0 1 2 5q6 9 18 25q14 22 14 24l3 3q1 3 5 1l5 -5q20 -41 25 -56q0 -5 -1 -5h-4zM103 192q-14 4 -20 9q-3 3 -3 6q-3 8 -1 18q5 35 13 61q0 2 1.5 7t2.5 9q-3 -1 -8 -9
q-3 -3 -28 -37q-12 -16 -23 -23q-16 -12 -31 2q-3 2 -5 9q-2 12 -1 18q1 26 13 54q1 6 5 11q3 5 9 2q4 -4 2 -6q-9 -23 -13 -64q-2 -16 3 -22q4 1 18 12q9 8 21 24l54 76q0 1 3 4.5t4 5.5q3 3 8 1q9 -4 5 -13q-16 -42 -26 -80q-6 -24 -9 -50q-1 -2 -1 -8q2 -7 7 -4q2 1 6 5
q12 8 17 13q28 27 45 50l37 47l4 4q6 8 14 2q3 -3 2 -6l-4 -6q-39 -54 -84 -98q-16 -14 -25 -19q-8 -6 -12 -5z" />
    <glyph glyph-name="udieresis" unicode="&#xfc;" 
d="M53 387q-3 0 -4 1q-5 2 -6 5q-6 4 -1 11q5 8 7 9q6 6 11 3q9 -3 7 -10q0 -7 -4.5 -12.5t-9.5 -6.5zM112 383q-6 3 -8 8q-1 2 -1 4q3 10 10 15q3 1 7 0q2 -1 10 -11l-1 -3q-5 -10 -13 -13q-2 -2 -4 0zM103 192q-14 4 -20 9q-3 3 -3 6q-3 8 -1 18q5 35 13 61q0 2 1.5 7
t2.5 9q-3 -1 -8 -9q-3 -3 -28 -37q-12 -16 -23 -23q-16 -12 -31 2q-3 2 -5 9q-2 12 -1 18q1 26 13 54q1 6 5 11q3 5 9 2q4 -4 2 -6q-9 -23 -13 -64q-2 -16 3 -22q4 1 18 12q9 8 21 24l54 76q0 1 3 4.5t4 5.5q3 3 8 1q9 -4 5 -13q-16 -42 -26 -80q-6 -24 -9 -50q-1 -2 -1 -8
q2 -7 7 -4q2 1 6 5q12 8 17 13q28 27 45 50l37 47l4 4q6 8 14 2q3 -3 2 -6l-4 -6q-39 -54 -84 -98q-16 -14 -25 -19q-8 -6 -12 -5z" />
    <glyph glyph-name="yacute" unicode="&#xfd;" horiz-adv-x="161" 
d="M81 378l-5 5q-4 2 -2 7q16 26 33 47q5 2 6 1q5 -5 5 -7l-1 -2q-1 -1 -1 -2l-13 -21q-1 -2 -7 -11t-8 -15q-2 -4 -7 -2zM-75 -123q-13 -8 -27 1q-4 1 -6 7q-3 10 -1 22q4 22 16 52q18 46 53 104q43 71 89 126q8 13 8 15q28 84 41 126q2 8 2 9q-2 -1 -10 -8
q-15 -17 -35 -36q-2 -2 -6.5 -5.5t-6.5 -5.5q-7 -6 -17 -0.5t-9 15.5v6q2 15 11 36q3 6 6 7q1 2 3 0t2 -3q0 -3 -2 -5q-6 -18 -9 -36v-11q0 -2 1.5 -2.5t3.5 0.5q5 3 13 9q15 14 27 27q1 1 22 25q3 4 10 11q7 8 16 1q4 -4 2 -8l-3 -16l-24 -83q-2 -8 -2 -11q2 -1 6 3
q24 24 36 37q9 10 46 45q3 3 8 0q4 -3 1 -7q-9 -8 -26 -25q-50 -50 -73 -76q-8 -10 -11 -20q-24 -82 -36 -109q-34 -86 -68 -152q-15 -28 -33 -49q-9 -11 -18 -16zM-89 -117q7 4 17 16q17 20 31 51q41 80 74 175q10 30 11 36q-3 -1 -7 -5q-49 -68 -76 -114q-35 -65 -48 -104
q-6 -16 -9 -35q0 -15 1 -18q2 -5 6 -2z" />
    <glyph glyph-name="thorn" unicode="&#xfe;" horiz-adv-x="220" 
d="M248 332q2 -2 2 -3q0 -2 -2 -2q-15 -6 -41 -11q-44 -10 -85 -33q-8 -5 -16 -15q-13 -18 -32 -36q-2 -4 -7 -6q-4 -2 -8 -1q-13 4 -6 16q6 10 19 21q1 0 5.5 4t7.5 6q13 8 21 25q12 26 14 35v5q0 2 -3 2q-2 -1 -4 -2.5l-4.5 -3.5t-3.5 -3q-20 -20 -41 -53
q-27 -43 -56 -107q-20 -46 -33 -91q-5 -14 -16 -64l-9 -42q0 -5 -3 -5q-6 -1 -11 2l-1 4q2 14 4 21q15 82 38 176q28 106 57 203q2 8 6.5 21.5l5.5 16.5l3 6q1 1 4 1q1 0 2 -1t0 -2q0 -7 -1 -10q-2 -5 -54 -212q-3 -12 -4 -13q4 0 5 2l5 11q24 52 42 81q19 32 40 57
q10 10 16 15q9 6 19 2q13 -6 12 -21q-1 -5 -4 -13.5l-4 -11.5q2 -2 7 0q6 2 20 8q13 6 80 23q8 2 14 -2z" />
    <glyph glyph-name="ydieresis" unicode="&#xff;" horiz-adv-x="161" 
d="M53 391q-3 0 -4 1q-5 2 -6 5q-6 4 -1 11q5 8 7 9q6 6 11 3q9 -3 7 -10q0 -7 -4.5 -12.5t-9.5 -6.5zM112 387q-6 3 -8 8q-1 2 -1 4q3 10 10 15q3 1 7 0q2 -1 10 -11l-1 -3q-5 -10 -13 -13q-2 -2 -4 0zM-75 -123q-13 -8 -27 1q-4 1 -6 7q-3 10 -1 22q4 22 16 52
q18 46 53 104q43 71 89 126q8 13 8 15q28 84 41 126q2 8 2 9q-2 -1 -10 -8q-15 -17 -35 -36q-2 -2 -6.5 -5.5t-6.5 -5.5q-7 -6 -17 -0.5t-9 15.5v6q2 15 11 36q3 6 6 7q1 2 3 0t2 -3q0 -3 -2 -5q-6 -18 -9 -36v-11q0 -2 1.5 -2.5t3.5 0.5q5 3 13 9q15 14 27 27q1 1 22 25
q3 4 10 11q7 8 16 1q4 -4 2 -8l-3 -16l-24 -83q-2 -8 -2 -11q2 -1 6 3q24 24 36 37q9 10 46 45q3 3 8 0q4 -3 1 -7q-9 -8 -26 -25q-50 -50 -73 -76q-8 -10 -11 -20q-24 -82 -36 -109q-34 -86 -68 -152q-15 -28 -33 -49q-9 -11 -18 -16zM-89 -117q7 4 17 16q17 20 31 51
q41 80 74 175q10 30 11 36q-3 -1 -7 -5q-49 -68 -76 -114q-35 -65 -48 -104q-6 -16 -9 -35q0 -15 1 -18q2 -5 6 -2z" />
    <glyph glyph-name="Amacron" unicode="&#x100;" horiz-adv-x="493" 
d="M468 695q-15 0 -22 1q-4 0 -6 6q0 4 2 4h2l60 3q3 0 4 -2q2 -2 2 -6q-1 -1 -3 -2l-1 -1zM352 -167q-15 -3 -23 8q-15 20 -19 40q-11 46 -5 98q16 130 66 319q1 6 5 18q1 7 -6 7h-67q-16 -2 -26 -1q-9 0 -13 -9q-12 -24 -18 -35l-79 -144q-13 -22 -41 -64q-16 -21 -30 -34
q-12 -12 -25 -19q-12 -7 -33 -4q-8 2 -14 9q-20 25 -23 55q-2 5 1 8q0 1 2 1t3 -1v-3q3 -25 21 -52q9 -13 15 -14t19 6t28 24q20 20 45 62q24 39 78 140l30 58l3 7q4 7 -6 7h-3q-17 -1 -52 -2.5t-52 -2.5q-29 -2 -44 -5h-9q-4 0 -4 3q0 4 2 4q3 2 9 4q3 0 12.5 2t14.5 2
q29 3 82 7l51 3q10 0 16 10q36 70 112 206q28 50 58 89q1 1 20 23q4 4 7 6q8 5 15 0q2 -1 6 -5q5 -2 5 -9q1 -11 -2 -24q-5 -25 -19 -73l-56 -202q-3 -11 -1.5 -13t13.5 -2h88q10 1 13 -10q0 -2 1 -5q-28 -2 -62 -2q-18 -1 -52 -1q-7 0 -8 -1t-3 -8q-7 -24 -19 -72
q-18 -66 -34 -145q-14 -72 -19 -124q-5 -50 4 -88q8 -26 16 -38q3 -3 5 0q3 4 9 4q5 0 5 -5q-2 -11 -13 -13zM281 337h6q28 2 76 2h6.5t5 0.5t3.5 0t3 0.5t2 1.5t1.5 2.5t0.5 3t1 5t2 7q42 148 65 222l8.5 29l7.5 26l3 18q0 2 -1 2h-3q-12 -11 -22 -24q-29 -37 -52 -79
l-111 -203q-1 -2 -2 -5t-2 -4q-1 -2 2 -4z" />
    <glyph glyph-name="amacron" unicode="&#x101;" 
d="M93 441q-15 0 -22 1q-4 0 -6 6q0 4 2 4h2l60 3q3 0 4 -2q2 -2 2 -6q-1 -1 -3 -2l-1 -1zM140 245q-16 -11 -37 3q-4 2 -7 11q-3 11 -1 34q5 33 20 70q3 11 2 12q-1 0 -7 -6l-55 -67l-22 -24q-1 -1 -7 -5q-13 -9 -23 2q-3 3 -3 7l3 14q14 38 41 65q5 5 11 8q8 7 22 3l5 -2
q9 -3 10.5 -2.5t7.5 7.5l29 36q1 2 4 5q6 6 13 2q5 -3 4 -8t-5 -15q-18 -44 -26 -75q-9 -31 -8 -52q0 -10 2 -15q1 -5 6 -3q7 1 17 7q20 13 37 30q11 11 31 33q4 3 10 9q5 5 10 2q7 -3 1 -8q-40 -43 -49 -51q-16 -15 -27 -22zM19 284q4 2 14 12q3 3 52 61q5 7 -4 10
q-6 1 -11 -2q-6 -2 -15 -11q-23 -27 -37 -63q-2 -3 1 -7z" />
    <glyph glyph-name="Abreve" unicode="&#x102;" horiz-adv-x="493" 
d="M494 696l-6 3q-10 6 -10 17v5q0 16 5 27q2 4 5 3q6 0 6 -6q-2 -10 -2 -14v-19q0 -8 7 -4q21 16 31 34l3 7q1 3 5 3q5 -2 5 -6q2 -5 -2 -10q-8 -21 -31 -39q-8 -6 -16 -1zM352 -167q-15 -3 -23 8q-15 20 -19 40q-11 46 -5 98q16 130 66 319q1 6 5 18q1 7 -6 7h-67
q-16 -2 -26 -1q-9 0 -13 -9q-12 -24 -18 -35l-79 -144q-13 -22 -41 -64q-16 -21 -30 -34q-12 -12 -25 -19q-12 -7 -33 -4q-8 2 -14 9q-20 25 -23 55q-2 5 1 8q0 1 2 1t3 -1v-3q3 -25 21 -52q9 -13 15 -14t19 6t28 24q20 20 45 62q24 39 78 140l30 58l3 7q4 7 -6 7h-3
q-17 -1 -52 -2.5t-52 -2.5q-29 -2 -44 -5h-9q-4 0 -4 3q0 4 2 4q3 2 9 4q3 0 12.5 2t14.5 2q29 3 82 7l51 3q10 0 16 10q36 70 112 206q28 50 58 89q1 1 20 23q4 4 7 6q8 5 15 0q2 -1 6 -5q5 -2 5 -9q1 -11 -2 -24q-5 -25 -19 -73l-56 -202q-3 -11 -1.5 -13t13.5 -2h88
q10 1 13 -10q0 -2 1 -5q-28 -2 -62 -2q-18 -1 -52 -1q-7 0 -8 -1t-3 -8q-7 -24 -19 -72q-18 -66 -34 -145q-14 -72 -19 -124q-5 -50 4 -88q8 -26 16 -38q3 -3 5 0q3 4 9 4q5 0 5 -5q-2 -11 -13 -13zM281 337h6q28 2 76 2h6.5t5 0.5t3.5 0t3 0.5t2 1.5t1.5 2.5t0.5 3t1 5t2 7
q42 148 65 222l8.5 29l7.5 26l3 18q0 2 -1 2h-3q-12 -11 -22 -24q-29 -37 -52 -79l-111 -203q-1 -2 -2 -5t-2 -4q-1 -2 2 -4z" />
    <glyph glyph-name="abreve" unicode="&#x103;" 
d="M104 436l-6 3q-10 6 -10 17v5q0 16 5 27q2 4 5 3q6 0 6 -6q-2 -10 -2 -14v-19q0 -8 7 -4q21 16 31 34l3 7q1 3 5 3q5 -2 5 -6q2 -5 -2 -10q-8 -21 -31 -39q-8 -6 -16 -1zM140 245q-16 -11 -37 3q-4 2 -7 11q-3 11 -1 34q5 33 20 70q3 11 2 12q-1 0 -7 -6l-55 -67l-22 -24
q-1 -1 -7 -5q-13 -9 -23 2q-3 3 -3 7l3 14q14 38 41 65q5 5 11 8q8 7 22 3l5 -2q9 -3 10.5 -2.5t7.5 7.5l29 36q1 2 4 5q6 6 13 2q5 -3 4 -8t-5 -15q-18 -44 -26 -75q-9 -31 -8 -52q0 -10 2 -15q1 -5 6 -3q7 1 17 7q20 13 37 30q11 11 31 33q4 3 10 9q5 5 10 2q7 -3 1 -8
q-40 -43 -49 -51q-16 -15 -27 -22zM19 284q4 2 14 12q3 3 52 61q5 7 -4 10q-6 1 -11 -2q-6 -2 -15 -11q-23 -27 -37 -63q-2 -3 1 -7z" />
    <glyph glyph-name="Aogonek" unicode="&#x104;" horiz-adv-x="493" 
d="M522 331q0 -2 1 -5q-28 -2 -62 -2q-18 -1 -52 -1q-7 0 -8 -1t-3 -8q-7 -24 -19 -72q-18 -66 -34 -145q-14 -72 -19 -124q-5 -50 4 -88q8 -26 16 -38q3 -3 5 0q3 4 9 4q5 0 5 -5q-3 -11 -11 -12q2 -3 0 -5q-7 -20 -10 -45q-2 -14 -1 -22q0 -8 9 -7q10 2 17 9l17 16
q10 -6 10.5 -9.5t-6.5 -11.5q-6 -10 -17 -15q-14 -7 -28 2q-22 14 -18 38q3 19 11 43l3 6q-7 1 -12 8q-15 20 -19 40q-11 46 -5 98q16 130 66 319q1 6 5 18q1 7 -6 7h-67q-16 -2 -26 -1q-9 0 -13 -9q-12 -24 -18 -35l-79 -144q-13 -22 -41 -64q-16 -21 -30 -34
q-12 -12 -25 -19q-12 -7 -33 -4q-8 2 -14 9q-20 25 -23 55q-2 5 1 8q0 1 2 1t3 -1v-3q3 -25 21 -52q9 -13 15 -14t19 6t28 24q20 20 45 62q24 39 78 140l30 58l3 7q4 7 -6 7h-3q-17 -1 -52 -2.5t-52 -2.5q-29 -2 -44 -5h-9q-4 0 -4 3q0 4 2 4q3 2 9 4q3 0 12.5 2t14.5 2
q29 3 82 7l51 3q10 0 16 10q36 70 112 206q28 50 58 89q1 1 20 23q4 4 7 6q8 5 15 0q2 -1 6 -5q5 -2 5 -9q1 -11 -2 -24q-5 -25 -19 -73l-56 -202q-3 -11 -1.5 -13t13.5 -2h88q10 1 13 -10zM388 359q42 148 65 222l8.5 29l7.5 26l3 18q0 2 -1 2h-3q-12 -11 -22 -24
q-29 -37 -52 -79l-111 -203q-1 -2 -2 -5t-2 -4q-1 -2 2 -4h6q28 2 76 2h6.5t5 0.5t3.5 0t3 0.5t2 1.5t1.5 2.5t0.5 3t1 5t2 7z" />
    <glyph glyph-name="aogonek" unicode="&#x105;" 
d="M224 331q7 -3 1 -8q-40 -43 -49 -51q-16 -15 -27 -22l-9 -5q-1 -1 -2.5 -1.5t-3 -1.5t-2.5 -1q0 -3 -1 -4q-7 -20 -10 -45q-2 -14 -1 -22q0 -8 9 -7q10 2 17 9l17 16q10 -6 10.5 -9.5t-6.5 -11.5q-6 -10 -17 -15q-14 -7 -28 2q-22 14 -18 38q3 19 11 43l3 6q-5 1 -15 7
q-4 2 -7 11q-3 11 -1 34q5 33 20 70q3 11 2 12q-1 0 -7 -6l-55 -67l-22 -24q-1 -1 -7 -5q-13 -9 -23 2q-3 3 -3 7l3 14q14 38 41 65q5 5 11 8q8 7 22 3l5 -2q9 -3 10.5 -2.5t7.5 7.5l29 36q1 2 4 5q6 6 13 2q5 -3 4 -8t-5 -15q-18 -44 -26 -75q-9 -31 -8 -52q0 -10 2 -15
q1 -5 6 -3q7 1 17 7q20 13 37 30q11 11 31 33q4 3 10 9q5 5 10 2zM85 357q5 7 -4 10q-6 1 -11 -2q-6 -2 -15 -11q-23 -27 -37 -63q-2 -3 1 -7q4 2 14 12q3 3 52 61z" />
    <glyph glyph-name="Cacute" unicode="&#x106;" horiz-adv-x="521" 
d="M399 676l-5 5q-4 2 -2 7q16 26 33 47q5 2 6 1q5 -5 5 -7q0 -1 -1 -2t-1 -2l-13 -21q-1 -2 -7 -11t-8 -15q-2 -4 -7 -2zM113 -11q-26 6 -37 13q-48 26 -66 79q-14 41 -9 93q6 58 21 111q32 121 104 216q46 62 112 111q52 38 117 42q20 3 37 -11q6 -5 9 -13q4 -12 1 -25
q-3 -15 -11 -33q-29 -64 -84 -111l-10 -7q-2 -2 -6 -2l-2 1v2l6 6q60 51 89 125q3 8 7 26q1 11 -2 23q-3 9 -12 9q-7 1 -22 -1q-59 -14 -104 -49q-53 -43 -96 -98q-45 -57 -77 -131q-32 -77 -46 -164q-6 -39 -5 -74q2 -45 19 -77q20 -34 53 -51q16 -9 38 -4q24 4 53 19
q33 19 73 52q47 41 119 116l97 100l52 54q1 2 4 5t8 2q7 -2 8 -5q-2 -3 -15 -19l-73 -72l-76 -79q-68 -71 -119 -114q-32 -27 -63 -46q-22 -12 -34 -16q-29 -11 -58 -3z" />
    <glyph glyph-name="cacute" unicode="&#x107;" horiz-adv-x="124" 
d="M85 389l-5 5q-4 2 -2 7q16 26 33 47q5 2 6 1q5 -5 5 -7l-1 -2l-1 -2l-13 -21q-1 -1 -7 -10.5t-8 -15.5q-2 -4 -7 -2zM31 237q-15 -9 -35 4q-4 3 -6 9q-2 8 -2 12t2 14q9 44 42 74q16 12 25 14q15 5 26 -3q4 -2 4 -6q0 -1 -1 -3v-1q-3 -1 -5 1q-1 2 -1 4q-3 4 -7 3
q-11 -2 -20 -9q-14 -11 -24 -25q-19 -28 -25 -62v-4q0 -14 4 -16t14 3q19 8 37 23q54 42 74 56l12 8q1 1 8 -1q3 -3 0 -5l-2 -3l-86 -66l-20 -14q-7 -4 -14 -7z" />
    <glyph glyph-name="Cdotaccent" unicode="&#x10a;" horiz-adv-x="521" 
d="M380 689q-6 3 -8 8q-1 2 -1 4q3 10 10 15q3 1 7 0q2 -1 10 -11l-1 -3q-5 -10 -13 -13q-2 -2 -4 0zM113 -11q-26 6 -37 13q-48 26 -66 79q-14 41 -9 93q6 58 21 111q32 121 104 216q46 62 112 111q52 38 117 42q20 3 37 -11q6 -5 9 -13q4 -12 1 -25q-3 -15 -11 -33
q-29 -64 -84 -111l-10 -7q-2 -2 -6 -2l-2 1v2l6 6q60 51 89 125q3 8 7 26q1 11 -2 23q-3 9 -12 9q-7 1 -22 -1q-59 -14 -104 -49q-53 -43 -96 -98q-45 -57 -77 -131q-32 -77 -46 -164q-6 -39 -5 -74q2 -45 19 -77q20 -34 53 -51q16 -9 38 -4q24 4 53 19q33 19 73 52
q47 41 119 116l97 100l52 54q1 2 4 5t8 2q7 -2 8 -5q-2 -3 -15 -19l-73 -72l-76 -79q-68 -71 -119 -114q-32 -27 -63 -46q-22 -12 -34 -16q-29 -11 -58 -3z" />
    <glyph glyph-name="cdotaccent" unicode="&#x10b;" horiz-adv-x="124" 
d="M75 391q-6 3 -8 8q-1 2 -1 4q3 10 10 15q3 1 7 0q2 -1 10 -11l-1 -3q-5 -10 -13 -13q-2 -2 -4 0zM31 237q-15 -9 -35 4q-4 3 -6 9q-2 8 -2 12t2 14q9 44 42 74q16 12 25 14q15 5 26 -3q4 -2 4 -6q0 -1 -1 -3v-1q-3 -1 -5 1q-1 2 -1 4q-3 4 -7 3q-11 -2 -20 -9
q-14 -11 -24 -25q-19 -28 -25 -62v-4q0 -14 4 -16t14 3q19 8 37 23q54 42 74 56l12 8q1 1 8 -1q3 -3 0 -5l-2 -3l-86 -66l-20 -14q-7 -4 -14 -7z" />
    <glyph glyph-name="Ccaron" unicode="&#x10c;" horiz-adv-x="521" 
d="M387 675l-5 5q-20 42 -25 56q0 4 1 5h4q4 -1 8 -7l15 -28l3 -6q2 -2 3 0l6 6l9.5 13t9.5 14l6 6q2 2 5 -1q2 -2 2 -5q0 -1 -2 -5q-6 -9 -18 -25q-14 -22 -14 -24l-3 -3q-1 -3 -5 -1zM113 -11q-26 6 -37 13q-48 26 -66 79q-14 41 -9 93q6 58 21 111q32 121 104 216
q46 62 112 111q52 38 117 42q20 3 37 -11q6 -5 9 -13q4 -12 1 -25q-3 -15 -11 -33q-29 -64 -84 -111l-10 -7q-2 -2 -6 -2l-2 1v2l6 6q60 51 89 125q3 8 7 26q1 11 -2 23q-3 9 -12 9q-7 1 -22 -1q-59 -14 -104 -49q-53 -43 -96 -98q-45 -57 -77 -131q-32 -77 -46 -164
q-6 -39 -5 -74q2 -45 19 -77q20 -34 53 -51q16 -9 38 -4q24 4 53 19q33 19 73 52q47 41 119 116l97 100l52 54q1 2 4 5t8 2q7 -2 8 -5q-2 -3 -15 -19l-73 -72l-76 -79q-68 -71 -119 -114q-32 -27 -63 -46q-22 -12 -34 -16q-29 -11 -58 -3z" />
    <glyph glyph-name="ccaron" unicode="&#x10d;" horiz-adv-x="124" 
d="M82 379l-5 5q-20 42 -25 56q0 4 1 5h4q4 -1 8 -7l15 -28l3 -6q1 -2 3 0l6 6q3 5 9.5 14l9.5 13l6 6q2 2 5 -1q2 -2 2 -5q0 -1 -2 -5q-6 -9 -18 -25q-14 -22 -14 -24l-3 -3q-1 -3 -5 -1zM31 237q-15 -9 -35 4q-4 3 -6 9q-2 8 -2 12t2 14q9 44 42 74q16 12 25 14
q15 5 26 -3q4 -2 4 -6q0 -1 -1 -3v-1q-3 -1 -5 1q-1 2 -1 4q-3 4 -7 3q-11 -2 -20 -9q-14 -11 -24 -25q-19 -28 -25 -62v-4q0 -14 4 -16t14 3q19 8 37 23q54 42 74 56l12 8q1 1 8 -1q3 -3 0 -5l-2 -3l-86 -66l-20 -14q-7 -4 -14 -7z" />
    <glyph glyph-name="Dcaron" unicode="&#x10e;" horiz-adv-x="733" 
d="M506 681l-5 5q-20 42 -25 56q0 4 1 5h4q4 -1 8 -7l15 -28l3 -6q1 -2 3 0l6 6q3 5 9.5 14l9.5 13l6 6q2 2 5 -1q2 -2 2 -5q0 -1 -2 -5q-6 -9 -18 -25q-14 -22 -14 -24l-3 -3q-1 -3 -5 -1zM35 -107q-14 -1 -30 8q-5 3 -5 10q0 8 5 15q3 6 17 27q34 42 76 76q57 47 126 91
q87 57 151 90l50 25q9 4 15 13q22 37 50 94q30 58 67 142q22 54 29 83q4 22 4 33q0 2 -1 6t-1 6q-2 11 -6.5 15t-15.5 5q-14 2 -27 -3q-24 -6 -58 -24q-62 -36 -112 -88q-76 -79 -142 -185q-32 -49 -60 -107l-18 -33q-3 -5 -7 -11q-5 -9 -10 -9.5t-13 4.5q-4 2 -6 9
q-1 6 -1 17q0 34 10 76q19 89 60 191l44 109q22 58 31 88q4 10 2 14l-11 -8q-19 -18 -67 -75q-56 -69 -98 -136q-36 -60 -54 -110q-8 -21 -11 -42q-2 -9 -2 -27q2 -13 5 -18q11 -28 36 -19q1 1 3 1l2 -2v-2q-1 0 -2.5 -1.5t-2.5 -1.5q-8 -4 -21 0q-27 11 -33 43q-3 14 1 43
q7 35 25 73q34 77 84 145q48 67 105 126q5 6 16 17q1 1 6.5 6t9.5 7q9 6 21 0q15 -9 10 -24q-5 -21 -7 -28q-11 -35 -46 -123q-38 -89 -62 -164q-18 -53 -31 -117l-6 -42v-7q4 1 8 8l42 76q74 134 158 227q44 46 69 66q52 41 99 61q11 5 33 11q12 2 19 1q12 0 22 -8
q2 -2 10 -8q12 -11 14 -28q4 -26 -6 -57q-9 -36 -24 -68q-47 -108 -83 -178l-20 -36q0 -3 1 -3q0 -1 1 -1t1 1l9 3q71 33 162 56q42 12 63 17q5 2 40 7q11 3 16 -8q2 -4 -2 -4l-38 -9q-111 -25 -167 -46q-37 -14 -98 -42q-6 -2 -11 -9q-54 -91 -140 -172q-90 -85 -195 -135
q-27 -14 -54 -20q-21 -3 -23 -3zM20 -98q6 -1 18 1q26 6 61 22q86 41 175 120q63 57 125 141q2 2 7.5 10t8.5 13q-1 0 -11 -3q-27 -13 -79 -43q-102 -60 -150 -95q-75 -52 -114 -95q-26 -28 -39 -48q-6 -10 -7 -17q-1 -6 5 -6z" />
    <glyph glyph-name="dcaron" unicode="&#x10f;" horiz-adv-x="219" 
d="M168 652q-20 41 -25 56q0 4 1 5h4q4 -1 8 -7l15 -28l3 -6q2 -2 3 0l6 6q3 5 9.5 14l9.5 13l6 6q2 2 5 -1q2 -2 2 -5q0 -1 -2 -5q-6 -9 -18 -25q-14 -22 -14 -24l-3 -3q-1 -3 -5 -1zM83 244q0 -2 -6 -53q-2 -18 3 -35q4 -14 15 -5q8 6 22 20q43 50 70 91l35 52l12 16
q4 5 10 2q4 -2 2 -5v-1q-11 -15 -31.5 -48t-32.5 -49q-23 -31 -50 -62q-14 -16 -23 -23q-11 -8 -24 -5t-18 15q-4 10 -6 31q0 22 3 43q5 40 12 77q2 8 0 12q-2 -1 -6 -5l-27 -30q-2 -2 -12 -10q-8 -5 -14 -1l-6 3q-8 3 -8 10q0 11 1 17q6 29 23 48l8 8q10 7 22 4
q13 -5 21 -13q8 5 12 20q5 25 10 40q7 28 20 59q28 67 61 127q15 27 31 44q11 11 18 15q13 8 27 -6q2 -1 2 -8q1 -5 -4 -21q-7 -21 -22 -51q-15 -32 -60 -106q-40 -62 -61 -92q-7 -9 -10 -23q-14 -60 -19 -102zM122 421q-3 -8 -1 -12q5 7 5 8l43 66q34 53 51 87q18 38 24 58
q2 8 2 13t-4 3t-10 -8q-11 -11 -23 -28q-15 -22 -39 -70q-32 -67 -48 -117zM71 336q2 4 1 8q-10 20 -25 6l-4 -3q-18 -22 -25 -56v-5l2 -3h4l2 2q17 15 45 51z" />
    <glyph glyph-name="Dcroat" unicode="&#x110;" horiz-adv-x="733" 
d="M763 333q2 -4 -2 -4l-38 -9q-111 -25 -167 -46q-37 -14 -98 -42q-6 -2 -11 -9q-54 -91 -140 -172q-90 -85 -195 -135q-27 -14 -54 -20q-21 -3 -23 -3q-14 -1 -30 8q-5 3 -5 10q0 8 5 15q3 6 17 27q34 42 76 76q57 47 126 91q87 57 151 90l50 25q9 4 15 13q22 37 50 94
q30 58 67 142q22 54 29 83q4 22 4 33q0 2 -1 6t-1 6q-2 11 -6.5 15t-15.5 5q-14 2 -27 -3q-24 -6 -58 -24q-62 -36 -112 -88q-72 -75 -134 -172q3 0 8 -1.5t6 -1.5q19 -8 21 -27q-18 12 -46 12q-32 -49 -57 -102l-18 -33q-3 -5 -7 -11q-5 -9 -10 -9.5t-13 4.5q-4 2 -6 9
q-1 6 -1 17q0 34 10 76q4 24 12 48q-12 0 -34 -2q-8 -2 -11 -2q-8 -1 -9 7q-1 6 6 9q15 3 29 3q4 1 11.5 1t11.5 1q16 56 44 126l44 109q22 58 31 88q4 10 2 14l-11 -8q-19 -18 -67 -75q-56 -69 -98 -136q-36 -60 -54 -110q-8 -21 -11 -42q-2 -9 -2 -27q2 -13 5 -18
q11 -28 36 -19q1 1 3 1l2 -2v-2q-1 0 -2.5 -1.5t-2.5 -1.5q-8 -4 -21 0q-27 11 -33 43q-3 14 1 43q7 35 25 73q34 77 84 145q48 67 105 126q5 6 16 17q1 1 6.5 6t9.5 7q9 6 21 0q15 -9 10 -24q-5 -21 -7 -28q-11 -35 -46 -123q-38 -89 -62 -164q-4 -9 -5 -16q28 2 43 2h15
q57 91 118 159q44 46 69 66q52 41 99 61q11 5 33 11q12 2 19 1q12 0 22 -8q2 -2 10 -8q12 -11 14 -28q4 -26 -6 -57q-9 -36 -24 -68q-47 -108 -83 -178l-20 -36q0 -3 1 -3q0 -1 1 -1t1 1l9 3q71 33 162 56q42 12 63 17q5 2 40 7q11 3 16 -8zM137 202l42 76l29 50
q-35 0 -52 -1q-10 -29 -21 -84l-6 -42v-7q4 1 8 8zM399 186q2 2 7.5 10t8.5 13q-1 0 -11 -3q-27 -13 -79 -43q-102 -60 -150 -95q-75 -52 -114 -95q-26 -28 -39 -48q-6 -10 -7 -17q-1 -6 5 -6q6 -1 18 1q26 6 61 22q86 41 175 120q63 57 125 141z" />
    <glyph glyph-name="dcroat" unicode="&#x111;" horiz-adv-x="219" 
d="M255 618q-7 -21 -22 -51q-8 -16 -12 -23h13q3 0 4 -2q2 -2 2 -6q-1 -1 -3 -2l-1 -1q-1 0 -8.5 -0.5t-12.5 -0.5l-23 -39l-19 -32q-40 -62 -61 -92q-7 -9 -10 -23q-14 -60 -19 -102q0 -2 -6 -53q-2 -18 3 -35q4 -14 15 -5q8 6 22 20q43 50 70 91l35 52l12 16q4 5 10 2
q4 -2 2 -5v-1q-11 -15 -31.5 -48t-32.5 -49q-23 -31 -50 -62q-14 -16 -23 -23q-11 -8 -24 -5t-18 15q-4 10 -6 31q0 22 3 43q5 40 12 77q2 8 0 12q-2 -1 -6 -5l-27 -30q-2 -2 -12 -10q-8 -5 -14 -1l-6 3q-8 3 -8 10q0 11 1 17q6 29 23 48l8 8q10 7 22 4q13 -5 21 -13
q8 5 12 20q5 25 10 40q7 28 20 59q18 42 28 63q-15 0 -22 1q-4 0 -6 6q0 4 2 4h2q2 0 12.5 0.5t17.5 0.5q11 25 27 52q15 27 31 44q11 11 18 15q13 8 27 -6q2 -1 2 -8q1 -5 -4 -21zM172 542q12 1 34 1l14 27q18 38 24 58q2 8 2 13t-4 3t-10 -8q-11 -11 -23 -28
q-19 -29 -37 -66zM169 483l30 49q-11 -1 -32 -1q-30 -63 -45 -110q-3 -8 -1 -12q5 7 5 8zM71 336q2 4 1 8q-10 20 -25 6l-4 -3q-18 -22 -25 -56v-5l2 -3h4l2 2q17 15 45 51z" />
    <glyph glyph-name="Emacron" unicode="&#x112;" horiz-adv-x="492" 
d="M382 701q-15 0 -22 1q-4 0 -6 6q0 4 2 4h2l60 3q3 0 4 -2q2 -2 2 -6q-1 -1 -3 -2l-1 -1zM121 -91q-47 2 -72 43q-17 28 -21 63q-8 43 -1 100q8 85 36 183q4 16 1 18q-2 1 -15 0q-9 0 -10 1q-3 3 -2 5q0 2 3 2q10 3 21 3q10 0 13 10q27 85 91 221l12 26q3 5 -3 5l-47 -9
q-40 -7 -68 -7q-12 0 -24 3q-25 5 -35 23v1q20 -15 49 -15q31 0 66 8q11 2 32.5 7t32.5 7q10 1 17 12q11 22 29 45q1 2 5 6q2 2 4 0q2 0 2 -3q1 -1 -2 -9l-14 -26q-6 -11 -7 -14q1 -1 8 -1l75 21q62 18 145 35q36 8 81 13q26 2 49 -4q19 -6 30 -32v-4q-3 -17 -13 -28
q-4 -6 -8 0q-5 8 0 16q3 4 7 16q1 5 -4 8q-15 7 -33 7q-20 1 -48 -4q-76 -11 -204 -43l-84 -21q-1 0 -3 -0.5t-3 -0.5q-7 0 -12 -9q-29 -65 -35 -80q-41 -106 -52 -139q-2 -5 -5.5 -16.5t-5.5 -17.5q0 -5 4 -5h13q77 2 93 4q50 4 75 7l70 6q40 4 60 5q5 2 8 -3q6 -9 5 -11
q0 -1 -11 -4l-82 -6q-29 -3 -87 -7q-70 -4 -106 -3h-40q-7 0 -9 -8q-10 -31 -23 -85q-14 -59 -22 -130q-7 -58 4 -103q6 -24 16 -42q5 -10 15 -20q7 -7 21 -9q35 -1 72 10q14 4 58 25q52 28 110 76q43 36 107 104q4 5 12.5 13t12.5 13q1 1 4 3.5t4 3.5q5 5 8 4q6 0 10 -5
q-17 -16 -49 -51t-49 -51q-71 -68 -123 -101q-52 -32 -81 -42q-40 -14 -78 -13z" />
    <glyph glyph-name="emacron" unicode="&#x113;" horiz-adv-x="165" 
d="M95 445q-15 0 -22 1q-4 0 -6 6q0 4 2 4h2l60 3q3 0 4 -2q2 -2 2 -6q-1 -1 -3 -2l-1 -1zM35 237q-13 2 -28 16q-6 6 -6 16q-3 15 2 32q5 19 17 43q17 35 37 57q14 14 19 17q4 4 9 6q7 3 15.5 -1t10.5 -11q1 -4 0 -8q-2 -9 -12 -25q-17 -25 -43 -48q-2 -2 -25 -19
q-4 -3 -8 -11q-6 -18 -4 -41q1 -14 15 -11q16 2 24 5q12 5 29 15q31 19 79 58l8 6q7 5 9.5 5t11.5 -7q-2 -2 -4.5 -3.5t-3.5 -2.5q-56 -49 -98 -72q-22 -13 -42 -16q-6 -1 -12 0zM36 330q2 -1 5 2q22 20 32 32q16 20 22 32q5 8 5 15q0 5 -4 3q-7 -3 -17 -13q-25 -28 -43 -67
q-1 -3 0 -4z" />
    <glyph glyph-name="Edotaccent" unicode="&#x116;" horiz-adv-x="492" 
d="M391 703q-6 3 -8 8q-1 2 -1 4q3 10 10 15q3 1 7 0q3 -1 10 -11l-1 -3q-5 -10 -13 -13q-2 -2 -4 0zM121 -91q-47 2 -72 43q-17 28 -21 63q-8 43 -1 100q8 85 36 183q4 16 1 18q-2 1 -15 0q-9 0 -10 1q-3 3 -2 5q0 2 3 2q10 3 21 3q10 0 13 10q27 85 91 221l12 26q3 5 -3 5
l-47 -9q-40 -7 -68 -7q-12 0 -24 3q-25 5 -35 23v1q20 -15 49 -15q31 0 66 8q11 2 32.5 7t32.5 7q10 1 17 12q11 22 29 45q1 2 5 6q2 2 4 0q2 0 2 -3q1 -1 -2 -9l-14 -26q-6 -11 -7 -14q1 -1 8 -1l75 21q62 18 145 35q36 8 81 13q26 2 49 -4q19 -6 30 -32v-4q-3 -17 -13 -28
q-4 -6 -8 0q-5 8 0 16q3 4 7 16q1 5 -4 8q-15 7 -33 7q-20 1 -48 -4q-76 -11 -204 -43l-84 -21q-1 0 -3 -0.5t-3 -0.5q-7 0 -12 -9q-29 -65 -35 -80q-41 -106 -52 -139q-2 -5 -5.5 -16.5t-5.5 -17.5q0 -5 4 -5h13q77 2 93 4q50 4 75 7l70 6q40 4 60 5q5 2 8 -3q6 -9 5 -11
q0 -1 -11 -4l-82 -6q-29 -3 -87 -7q-70 -4 -106 -3h-40q-7 0 -9 -8q-10 -31 -23 -85q-14 -59 -22 -130q-7 -58 4 -103q6 -24 16 -42q5 -10 15 -20q7 -7 21 -9q35 -1 72 10q14 4 58 25q52 28 110 76q43 36 107 104q4 5 12.5 13t12.5 13q1 1 4 3.5t4 3.5q5 5 8 4q6 0 10 -5
q-17 -16 -49 -51t-49 -51q-71 -68 -123 -101q-52 -32 -81 -42q-40 -14 -78 -13z" />
    <glyph glyph-name="edotaccent" unicode="&#x117;" horiz-adv-x="165" 
d="M108 446q-6 3 -8 8q-1 2 -1 4q3 10 10 15q3 1 7 0q2 -1 10 -11l-1 -3q-5 -10 -13 -13q-2 -2 -4 0zM35 237q-13 2 -28 16q-6 6 -6 16q-3 15 2 32q5 19 17 43q17 35 37 57q14 14 19 17q4 4 9 6q7 3 15.5 -1t10.5 -11q1 -4 0 -8q-2 -9 -12 -25q-17 -25 -43 -48
q-2 -2 -25 -19q-4 -3 -8 -11q-6 -18 -4 -41q1 -14 15 -11q16 2 24 5q12 5 29 15q31 19 79 58l8 6q7 5 9.5 5t11.5 -7q-2 -2 -4.5 -3.5t-3.5 -2.5q-56 -49 -98 -72q-22 -13 -42 -16q-6 -1 -12 0zM36 330q2 -1 5 2q22 20 32 32q16 20 22 32q5 8 5 15q0 5 -4 3q-7 -3 -17 -13
q-25 -28 -43 -67q-1 -3 0 -4z" />
    <glyph glyph-name="Eogonek" unicode="&#x118;" horiz-adv-x="492" 
d="M572 682q19 -6 30 -32v-4q-3 -17 -13 -28q-4 -6 -8 0q-5 8 0 16q3 4 7 16q1 5 -4 8q-15 7 -33 7q-20 1 -48 -4q-76 -11 -204 -43l-84 -21q-1 0 -3 -0.5t-3 -0.5q-7 0 -12 -9q-29 -65 -35 -80q-41 -106 -52 -139q-2 -5 -5.5 -16.5t-5.5 -17.5q0 -5 4 -5h13q77 2 93 4
q50 4 75 7l70 6q40 4 60 5q5 2 8 -3q6 -9 5 -11q0 -1 -11 -4l-82 -6q-29 -3 -87 -7q-70 -4 -106 -3h-40q-7 0 -9 -8q-10 -31 -23 -85q-14 -59 -22 -130q-7 -58 4 -103q6 -24 16 -42q5 -10 15 -20q7 -7 21 -9q35 -1 72 10q14 4 58 25q52 28 110 76q43 36 107 104q4 5 12.5 13
t12.5 13q1 1 4 3.5t4 3.5q5 5 8 4q6 0 10 -5q-17 -16 -49 -51t-49 -51q-71 -68 -123 -101q-52 -32 -81 -42q-30 -11 -66 -13q0 -1 -0.5 -1t-0.5 -1q-7 -20 -10 -45q-2 -14 -1 -22q0 -8 9 -7q10 2 17 9l17 16q10 -6 10.5 -9.5t-6.5 -11.5q-6 -10 -17 -15q-14 -7 -28 2
q-22 14 -18 38q3 19 11 43l1 2q1 1 1 2q-44 3 -69 43q-17 28 -21 63q-8 43 -1 100q8 85 36 183q4 16 1 18q-2 1 -15 0q-9 0 -10 1q-3 3 -2 5q0 2 3 2q10 3 21 3q10 0 13 10q27 85 91 221l12 26q3 5 -3 5l-47 -9q-40 -7 -68 -7q-12 0 -24 3q-25 5 -35 23v1q20 -15 49 -15
q31 0 66 8q11 2 32.5 7t32.5 7q10 1 17 12q11 22 29 45q1 2 5 6q2 2 4 0q2 0 2 -3q1 -1 -2 -9l-14 -26q-6 -11 -7 -14q1 -1 8 -1l75 21q62 18 145 35q36 8 81 13q26 2 49 -4z" />
    <glyph glyph-name="eogonek" unicode="&#x119;" horiz-adv-x="165" 
d="M187 325q-56 -49 -98 -72q-17 -11 -40 -16q2 -2 0 -5q-7 -20 -10 -45q-2 -14 -1 -22q0 -9 9 -7q10 2 17 9l17 16q10 -6 10.5 -9.5t-6.5 -11.5q-6 -10 -17 -15q-14 -7 -28 2q-22 14 -18 38q3 19 11 43l3 7h-1q-13 2 -28 16q-6 6 -6 16q-3 15 2 32q5 19 17 43q17 35 37 57
q14 14 19 17q4 4 9 6q7 3 15.5 -1t10.5 -11q1 -4 0 -8q-2 -9 -12 -25q-17 -25 -43 -48q-2 -2 -25 -19q-4 -3 -8 -11q-6 -18 -4 -41q1 -14 15 -11q16 2 24 5q12 5 29 15q31 19 79 58l8 6q7 5 9.5 5t11.5 -7q-2 -2 -4.5 -3.5t-3.5 -2.5zM36 334q-1 -3 0 -4q2 -1 5 2
q22 20 32 32q16 20 22 32q5 8 5 15q0 5 -4 3q-7 -3 -17 -13q-25 -28 -43 -67z" />
    <glyph glyph-name="Ecaron" unicode="&#x11a;" horiz-adv-x="492" 
d="M406 695l-5 5q-20 42 -25 56q0 4 1 5h4q4 -1 8 -7l15 -28l3 -6q1 -2 3 0l6 6q3 5 9.5 14l9.5 13l6 6q2 2 5 -1q2 -2 2 -5q0 -1 -2 -5q-6 -9 -18 -25q-14 -22 -14 -24l-3 -3q-1 -3 -5 -1zM121 -91q-47 2 -72 43q-17 28 -21 63q-8 43 -1 100q8 85 36 183q4 16 1 18
q-2 1 -15 0q-9 0 -10 1q-3 3 -2 5q0 2 3 2q10 3 21 3q10 0 13 10q27 85 91 221l12 26q3 5 -3 5l-47 -9q-40 -7 -68 -7q-12 0 -24 3q-25 5 -35 23v1q20 -15 49 -15q31 0 66 8q11 2 32.5 7t32.5 7q10 1 17 12q11 22 29 45q1 2 5 6q2 2 4 0q2 0 2 -3q1 -1 -2 -9l-14 -26
q-6 -11 -7 -14q1 -1 8 -1l75 21q62 18 145 35q36 8 81 13q26 2 49 -4q19 -6 30 -32v-4q-3 -17 -13 -28q-4 -6 -8 0q-5 8 0 16q3 4 7 16q1 5 -4 8q-15 7 -33 7q-20 1 -48 -4q-76 -11 -204 -43l-84 -21q-1 0 -3 -0.5t-3 -0.5q-7 0 -12 -9q-29 -65 -35 -80q-41 -106 -52 -139
q-2 -5 -5.5 -16.5t-5.5 -17.5q0 -5 4 -5h13q77 2 93 4q50 4 75 7l70 6q40 4 60 5q5 2 8 -3q6 -9 5 -11q0 -1 -11 -4l-82 -6q-29 -3 -87 -7q-70 -4 -106 -3h-40q-7 0 -9 -8q-10 -31 -23 -85q-14 -59 -22 -130q-7 -58 4 -103q6 -24 16 -42q5 -10 15 -20q7 -7 21 -9
q35 -1 72 10q14 4 58 25q52 28 110 76q43 36 107 104q4 5 12.5 13t12.5 13q1 1 4 3.5t4 3.5q5 5 8 4q6 0 10 -5q-17 -16 -49 -51t-49 -51q-71 -68 -123 -101q-52 -32 -81 -42q-40 -14 -78 -13z" />
    <glyph glyph-name="ecaron" unicode="&#x11b;" horiz-adv-x="165" 
d="M107 442l-5 5q-20 42 -25 56q0 5 1 5h4q4 -1 8 -7l15 -28l3 -6q2 -1 3 0l6 6q3 5 9.5 14l9.5 13l6 6q2 2 5 -1q2 -2 2 -5q0 -1 -2 -5q-6 -9 -18 -25q-14 -22 -14 -24l-3 -3q-1 -3 -5 -1zM35 237q-13 2 -28 16q-6 6 -6 16q-3 15 2 32q5 19 17 43q17 35 37 57q14 14 19 17
q4 4 9 6q7 3 15.5 -1t10.5 -11q1 -4 0 -8q-2 -9 -12 -25q-17 -25 -43 -48q-2 -2 -25 -19q-4 -3 -8 -11q-6 -18 -4 -41q1 -14 15 -11q16 2 24 5q12 5 29 15q31 19 79 58l8 6q7 5 9.5 5t11.5 -7q-2 -2 -4.5 -3.5t-3.5 -2.5q-56 -49 -98 -72q-22 -13 -42 -16q-6 -1 -12 0z
M36 330q2 -1 5 2q22 20 32 32q16 20 22 32q5 8 5 15q0 5 -4 3q-7 -3 -17 -13q-25 -28 -43 -67q-1 -3 0 -4z" />
    <glyph glyph-name="Gbreve" unicode="&#x11e;" horiz-adv-x="586" 
d="M387 716q-10 6 -10 17v5q0 16 5 27q2 4 5 3q6 0 6 -6q-2 -10 -2 -14v-19q0 -7 7 -4q21 16 31 34l3 7q2 3 5 3q5 -2 5 -6q2 -5 -2 -10q-8 -21 -31 -39q-8 -6 -16 -1zM596 337q8 4 10.5 3t9.5 -9q-12 -10 -29 -19q-83 -41 -182 -124l-21 -18q-2 -2 -12 -26
q-24 -54 -48 -101q-42 -80 -106 -150q-17 -19 -42 -38q-10 -8 -19 -11q-10 -4 -19 0q-20 9 -17 31q3 19 12 37q16 35 44 71q29 40 81 92q45 47 93 90q10 10 14 21q25 54 67 166q22 64 31 97q7 22 8 40q0 12 -2 13t-14 -4q-20 -14 -29 -22q-18 -15 -75 -70l-152 -152
q-48 -48 -91 -83q-28 -22 -43 -31q-15 -8 -21 -10q-11 -5 -21 1l-9 6q-12 7 -14 22q-1 17 2 39q10 54 32 113q43 115 112 213q51 70 107 112q48 38 92 52q23 7 41 7q18 -2 29 -11l9 -7q19 -16 17 -45q-3 -23 -12 -46q-19 -48 -60 -92q-13 -16 -30 -30q-6 -6 -11 -7
q-3 -2 -5 2q-1 1 1 3q22 21 49 55q30 39 43 77q10 27 10 49q0 16 -5 27q-3 7 -10 8q-8 2 -24 0q-19 -3 -42 -13q-67 -32 -121 -89q-46 -48 -92 -122q-57 -100 -85 -185q-15 -43 -24 -90q-2 -10 -2 -32q1 -6 8 -6q9 3 20 8q20 11 45 31q35 26 87 76l138 137q58 58 89 86
q9 8 27 22l10 7q11 8 17.5 7.5t16.5 -9.5q7 -7 7 -16q1 -14 -2 -31q-6 -37 -22 -84q-29 -85 -55 -149q-4 -11 -3 -15q77 63 142 99q33 20 45 25q4 2 5 2zM333 115q4 7 2 11h-1v1q-1 -1 -2.5 -3.5t-3.5 -3.5l-27 -26q-65 -63 -104 -112q-26 -33 -41 -59q-12 -20 -18 -40
q-4 -16 -3 -25q2 -8 8 -5q7 3 19 13q32 25 61 62q51 63 88 141z" />
    <glyph glyph-name="gbreve" unicode="&#x11f;" horiz-adv-x="227" 
d="M130 445q-10 6 -10 17v5q0 16 5 27q2 4 5 3q6 0 6 -6q-2 -10 -2 -14v-19q0 -8 7 -4q21 16 31 34l3 7q1 3 5 3q5 -2 5 -6q2 -5 -2 -10q-8 -21 -31 -39q-8 -6 -16 -1zM251 331q10 -4 2 -12l-26 -22q-74 -63 -140 -137q-10 -11 -16 -25q-30 -68 -74 -157q-24 -47 -45 -72
q-12 -14 -19 -20q-12 -8 -23 -2q-11 4 -10 16q0 8 3 16q5 18 17 40q26 47 68 104l64 81q4 4 8 12l103 226q6 10 6 16q-1 1 -7 -2q-22 -18 -32 -27q-30 -26 -60 -48q-8 -6 -26 -16q-13 -7 -25 2q-5 5 -4 10q0 4 2 12q14 32 41 53q11 8 22 9q17 3 29 -10q-22 8 -41 -8
q-25 -19 -38 -52q-1 -2 -1 -5t3 -3q7 3 14 8q25 16 59 44q31 24 61 52q1 1 7 5q7 7 16 1q5 -5 4 -9q-1 -5 -5 -15q-14 -36 -46 -106q-26 -54 -38 -81q-5 -9 -3 -13l18.5 19l18.5 19l79 75q13 13 25 21q4 3 9 1zM31 93v1q0 -1 -1 -1h1zM29 82q4 7 1 11l-29 -40
q-42 -56 -67 -101q-14 -26 -18 -41q-3 -8 -3 -16l1 -2q2 -2 4 0q8 5 16 15q10 11 26 37q19 31 51 99z" />
    <glyph glyph-name="Gdotaccent" unicode="&#x120;" horiz-adv-x="586" 
d="M407 715q-6 3 -8 8q-1 2 -1 4q3 10 10 15q3 1 7 0q3 -1 10 -11l-1 -3q-5 -10 -13 -13q-2 -2 -4 0zM596 337q8 4 10.5 3t9.5 -9q-12 -10 -29 -19q-83 -41 -182 -124l-21 -18q-2 -2 -12 -26q-24 -54 -48 -101q-42 -80 -106 -150q-17 -19 -42 -38q-10 -8 -19 -11
q-10 -4 -19 0q-20 9 -17 31q3 19 12 37q16 35 44 71q29 40 81 92q45 47 93 90q10 10 14 21q25 54 67 166q22 64 31 97q7 22 8 40q0 12 -2 13t-14 -4q-20 -14 -29 -22q-18 -15 -75 -70l-152 -152q-48 -48 -91 -83q-28 -22 -43 -31q-15 -8 -21 -10q-11 -5 -21 1l-9 6
q-12 7 -14 22q-1 17 2 39q10 54 32 113q43 115 112 213q51 70 107 112q48 38 92 52q23 7 41 7q18 -2 29 -11l9 -7q19 -16 17 -45q-3 -23 -12 -46q-19 -48 -60 -92q-13 -16 -30 -30q-6 -6 -11 -7q-3 -2 -5 2q-1 1 1 3q22 21 49 55q30 39 43 77q10 27 10 49q0 16 -5 27
q-3 7 -10 8q-8 2 -24 0q-19 -3 -42 -13q-67 -32 -121 -89q-46 -48 -92 -122q-57 -100 -85 -185q-15 -43 -24 -90q-2 -10 -2 -32q1 -6 8 -6q9 3 20 8q20 11 45 31q35 26 87 76l138 137q58 58 89 86q9 8 27 22l10 7q11 8 17.5 7.5t16.5 -9.5q7 -7 7 -16q1 -14 -2 -31
q-6 -37 -22 -84q-29 -85 -55 -149q-4 -11 -3 -15q77 63 142 99q33 20 45 25q4 2 5 2zM333 115q4 7 2 11h-1v1q-1 -1 -2.5 -3.5t-3.5 -3.5l-27 -26q-65 -63 -104 -112q-26 -33 -41 -59q-12 -20 -18 -40q-4 -16 -3 -25q2 -8 8 -5q7 3 19 13q32 25 61 62q51 63 88 141z" />
    <glyph glyph-name="gdotaccent" unicode="&#x121;" horiz-adv-x="227" 
d="M127 431q-6 3 -8 8q-1 2 -1 4q3 10 10 15q3 1 7 0q3 -1 10 -11l-1 -3q-5 -10 -13 -13q-2 -2 -4 0zM251 331q10 -4 2 -12l-26 -22q-74 -63 -140 -137q-10 -11 -16 -25q-30 -68 -74 -157q-24 -47 -45 -72q-12 -14 -19 -20q-12 -8 -23 -2q-11 4 -10 16q0 8 3 16q5 18 17 40
q26 47 68 104l64 81q4 4 8 12l103 226q6 10 6 16q-1 1 -7 -2q-22 -18 -32 -27q-30 -26 -60 -48q-8 -6 -26 -16q-13 -7 -25 2q-5 5 -4 10q0 4 2 12q14 32 41 53q11 8 22 9q17 3 29 -10q-22 8 -41 -8q-25 -19 -38 -52q-1 -2 -1 -5t3 -3q7 3 14 8q25 16 59 44q31 24 61 52
q1 1 7 5q7 7 16 1q5 -5 4 -9q-1 -5 -5 -15q-14 -36 -46 -106q-26 -54 -38 -81q-5 -9 -3 -13l18.5 19l18.5 19l79 75q13 13 25 21q4 3 9 1zM31 93v1q0 -1 -1 -1h1zM29 82q4 7 1 11l-29 -40q-42 -56 -67 -101q-14 -26 -18 -41q-3 -8 -3 -16l1 -2q2 -2 4 0q8 5 16 15
q10 11 26 37q19 31 51 99z" />
    <glyph glyph-name="uni0122" unicode="&#x122;" horiz-adv-x="586" 
d="M596 337q8 4 10.5 3t9.5 -9q-12 -10 -29 -19q-83 -41 -182 -124l-21 -18q-2 -2 -12 -26q-24 -54 -48 -101q-42 -80 -106 -150q-17 -19 -42 -38q-10 -8 -19 -11q-10 -4 -19 0q-20 9 -17 31q3 19 12 37q16 35 44 71q29 40 81 92q45 47 93 90q10 10 14 21q25 54 67 166
q22 64 31 97q7 22 8 40q0 12 -2 13t-14 -4q-20 -14 -29 -22q-18 -15 -75 -70l-152 -152q-48 -48 -91 -83q-28 -22 -43 -31q-15 -8 -21 -10q-11 -5 -21 1l-9 6q-12 7 -14 22q-1 17 2 39q10 54 32 113q43 115 112 213q51 70 107 112q48 38 92 52q23 7 41 7q18 -2 29 -11l9 -7
q19 -16 17 -45q-3 -23 -12 -46q-19 -48 -60 -92q-13 -16 -30 -30q-6 -6 -11 -7q-3 -2 -5 2q-1 1 1 3q22 21 49 55q30 39 43 77q10 27 10 49q0 16 -5 27q-3 7 -10 8q-8 2 -24 0q-19 -3 -42 -13q-67 -32 -121 -89q-46 -48 -92 -122q-57 -100 -85 -185q-15 -43 -24 -90
q-2 -10 -2 -32q1 -6 8 -6q9 3 20 8q20 11 45 31q35 26 87 76l138 137q58 58 89 86q9 8 27 22l10 7q11 8 17.5 7.5t16.5 -9.5q7 -7 7 -16q1 -14 -2 -31q-6 -37 -22 -84q-29 -85 -55 -149q-4 -11 -3 -15q77 63 142 99q33 20 45 25q4 2 5 2zM333 115q4 7 2 11h-1v1
q-1 -1 -2.5 -3.5t-3.5 -3.5l-27 -26q-65 -63 -104 -112q-26 -33 -41 -59q-12 -20 -18 -40q-4 -16 -3 -25q2 -8 8 -5q7 3 19 13q32 25 61 62q51 63 88 141zM130 -187q2 2 6.5 -1t4.5 -7q0 -5 -1 -8l-15 -53q0 -1 -0.5 -3.5t-1.5 -3.5q-2 -2 -5 -1q-9 2 -7 10l1 4q2 3 4 9
t3 11q3 8 -7 11q-4 1 -1 8q5 18 19 24z" />
    <glyph glyph-name="uni0123" unicode="&#x123;" horiz-adv-x="227" 
d="M121 450q-2 -2 -6.5 0.5t-4.5 6.5q0 5 1 8l13 54q0 1 0.5 3.5t1.5 3.5q2 2 5 1q9 -2 7 -10l-1 -3q-1 -4 -3 -10t-3 -11q-3 -8 7 -11q4 -1 2 -8q-5 -18 -19 -24zM251 331q10 -4 2 -12l-26 -22q-74 -63 -140 -137q-10 -11 -16 -25q-30 -68 -74 -157q-24 -47 -45 -72
q-12 -14 -19 -20q-12 -8 -23 -2q-11 4 -10 16q0 8 3 16q5 18 17 40q26 47 68 104l64 81q4 4 8 12l103 226q6 10 6 16q-1 1 -7 -2q-22 -18 -32 -27q-30 -26 -60 -48q-8 -6 -26 -16q-13 -7 -25 2q-5 5 -4 10q0 4 2 12q14 32 41 53q11 8 22 9q17 3 29 -10q-22 8 -41 -8
q-25 -19 -38 -52q-1 -2 -1 -5t3 -3q7 3 14 8q25 16 59 44q31 24 61 52q1 1 7 5q7 7 16 1q5 -5 4 -9q-1 -5 -5 -15q-14 -36 -46 -106q-26 -54 -38 -81q-5 -9 -3 -13l18.5 19l18.5 19l79 75q13 13 25 21q4 3 9 1zM31 93v1q0 -1 -1 -1h1zM29 82q4 7 1 11l-29 -40
q-42 -56 -67 -101q-14 -26 -18 -41q-3 -8 -3 -16l1 -2q2 -2 4 0q8 5 16 15q10 11 26 37q19 31 51 99z" />
    <glyph glyph-name="Hbar" unicode="&#x126;" horiz-adv-x="579" 
d="M599 339q5 -2 8 -5t2 -4q-2 -2 -11 -2h-8.5h-9.5h-8q-40 0 -81 -6q-7 -1 -8 -2t-3 -8q-3 -14 -8 -43t-8 -44l-37 -201q-7 -40 -12 -81q-2 -15 -11 -56q0 -4 -4 -4t-6 1q-6 2 -6 7q0 11 2 33q5 55 21 134l36 178l6.5 33t7.5 35q0 2 0.5 4.5t0.5 3.5q0 5 -5 5l-17 -3
q-76 -15 -105 -25q-77 -26 -143 -72q-11 -7 -14 -20l-36 -133q-14 -48 -22 -72q-5 -13 -7 -16q-6 -6 -13 -5q-24 6 -36 25q-21 33 -13 71q5 21 21 50q23 39 54 68l26 24q9 7 10 16l26 91q-24 -17 -44 -37q-37 -35 -57 -70q-17 -29 -20 -49q-16 9 -10 28q6 15 15 31
q23 39 54 68l26 24q14 12 44 32l12 42q10 38 32 114q12 48 16 73q6 48 1 72q-2 10 -5 17q-3 8 -13 8q-7 -1 -21 -5q-19 -7 -48 -26q-55 -40 -98 -103q-38 -53 -52 -112q-10 -48 -4 -84q4 -17 9 -24l6 -9q5 -5 10 -1q2 0 4 2q4 2 6 1q3 -3 -3 -7q-5 -3 -10 -2q-20 6 -27 23
q-10 20 -10 45q-4 50 17 105q42 111 136 179q24 19 47 27q7 2 17 4q17 3 30 -7q2 -1 11 -7q12 -9 17 -26q3 -13 3 -26q1 -42 -10 -89q-10 -44 -36 -132l-5.5 -19t-4.5 -16q46 26 87 41q36 13 87 23q23 5 90 15q14 65 38 161q27 114 37 161l2 4h2q4 0 4 -5q0 -7 -1 -11
q-4 -22 -14 -68l-46 -216q-4 -16 -5 -24h5q33 4 79 2q3 0 11 -2q5 -2 8 -5t2 -4q-2 -2 -11 -2h-8.5h-9.5h-8q-33 0 -71 -5q-3 -14 -7.5 -39.5l-6.5 -36.5q-1 -2 -1 -5q0 -6 5 -6q3 0 9 0.5t9 0.5q33 4 79 2q3 0 11 -2zM477 388q1 6 3.5 17.5t3.5 17.5q-42 -6 -44 -7
q-76 -15 -105 -25q-57 -19 -119 -56l-22 -81q0 -1 -1 -3t-1 -3v-6q1 -1 7 2q50 32 111 55q36 13 87 23q10 2 30.5 5.5t30.5 5.5q9 1 10 9zM148 170q1 2 1.5 5t0.5 5h-3l-3 -3q-37 -35 -57 -70q-17 -29 -20 -49q-6 -37 14 -66q6 -8 9 -8q2 0 3.5 1t2.5 4t1 4q0 2 2 8
q12 38 49 169z" />
    <glyph glyph-name="hbar" unicode="&#x127;" horiz-adv-x="202" 
d="M229 333q5 -3 2 -7q-3 -5 -30.5 -45.5t-44.5 -60.5q-18 -23 -30 -32q-5 -4 -15 -10q-10 -3 -19 0q-18 5 -25 20l-3 4q-4 7 -6 7.5t-9 -5.5q-4 -4 -12 -16q-14 -23 -29 -63l-9 -22q-3 -7 -12 -4q-12 4 -12 17q-1 12 1 36q9 67 29 138q32 113 44 146q14 46 36 94
q-12 0 -17 1q-4 0 -6 6q0 4 2 4h2q2 0 10 0.5t14 0.5q22 47 48 89q16 25 29 39q6 8 15 12q9 6 18 0l3 -3q10 -6 8 -17q-2 -16 -7 -28q-8 -25 -30 -73q-6 -12 -8 -17h10q3 0 4 -2q2 -2 2 -6q-1 -1 -3 -2l-1 -1q-1 0 -7 -0.5t-11 -0.5q-18 -36 -72 -126l-56 -95q-7 -9 -10 -23
q-20 -72 -27 -121q-5 -31 -4 -42q3 3 8 13q12 30 20 44q5 12 15 25q9 11 16.5 11.5t20.5 -9.5q1 -1 6 -8l6 -9q7 -9 18 -4q12 7 20 15q15 13 32 36q12 15 50 70l17 22q2 4 9 2zM152 620q-24 -38 -42 -78q14 1 40 1l26 59q2 4 18 44q5 18 5 23l-1 2q0 1 -1 1h-4
q-7 -4 -13 -12q-14 -15 -28 -40zM43 360q-3 -8 -2 -10q4 2 8 10l56 98q14 24 40 74q-14 -1 -40 -1q-6 -12 -16 -36q-14 -33 -46 -135z" />
    <glyph glyph-name="Imacron" unicode="&#x12a;" horiz-adv-x="299" 
d="M298 730q-15 0 -22 1q-4 0 -6 6q0 4 2 4h2l60 3q3 0 4 -2q2 -2 2 -6q-1 -1 -3 -2l-1 -1zM59 -50q-12 -4 -28 1q-24 7 -29 34q0 2 -1 6t-1 6q-1 20 21 34q7 5 12 -3q1 -2 0 -3q-1 -2 -5 -6q-16 -15 -10 -37q4 -12 8 -19q3 -6 9 -4q8 1 22 9q22 15 41 39q21 26 41 71
q33 72 66 175q43 134 67 247q17 79 25 140q3 25 1 42q-1 5 -7 4q-4 -1 -15 -10q-15 -11 -52 -48q-55 -57 -89 -111q-53 -81 -76 -167q-8 -29 -8 -53q0 -26 5 -41q10 -25 35 -15l12 6q4 2 5 -1t-1 -5q-9 -7 -21 -9q-27 -3 -39 23q-7 14 -9 38q-1 34 11 78q40 140 132 240
q38 42 67 68l18 15q2 2 13 7q8 3 14 -1l15 -10q5 -4 9 -15q3 -15 1 -44q-6 -54 -22 -129q-27 -133 -82 -296q-29 -83 -53 -136q-18 -38 -35 -62q-19 -25 -41 -43q-16 -12 -26 -15z" />
    <glyph glyph-name="imacron" unicode="&#x12b;" horiz-adv-x="147" 
d="M48 400q-15 0 -22 1q-4 0 -6 6q0 4 2 4h2l60 3q3 0 4 -2q2 -2 2 -6q-1 -1 -3 -2l-1 -1zM54 244q-14 -5 -31 3q-9 5 -11 16l-2 14q3 41 21 77q4 6 7 9q2 2 5 1t5 -3v-4q-16 -25 -22 -81q-2 -12 1 -21q3 -5 8 -5q3 0 18 5q24 14 36 22l68 53q3 3 5 4q6 6 14 -1q1 0 1.5 -1
t-0.5 -2l-4 -4q-56 -46 -93 -69q-15 -9 -26 -13z" />
    <glyph glyph-name="Iogonek" unicode="&#x12e;" horiz-adv-x="299" 
d="M317 675q3 -15 1 -44q-6 -54 -22 -129q-27 -133 -82 -296q-29 -83 -53 -136q-18 -38 -35 -62q-19 -25 -41 -43q-16 -12 -26 -15q-5 -2 -16 -2q2 -2 0 -4q-7 -20 -10 -45q-2 -14 -1 -22q0 -9 9 -7q10 2 17 9l17 16q10 -6 10.5 -9.5t-6.5 -11.5q-6 -10 -17 -15
q-14 -7 -28 2q-22 14 -18 38q3 19 11 43q0 1 1 2l3 6v1q-24 7 -29 34q0 2 -1 6t-1 6q-1 20 21 34q7 5 12 -3q1 -2 0 -3q-1 -2 -5 -6q-16 -15 -10 -37q4 -12 8 -19q3 -6 9 -4q8 1 22 9q22 15 41 39q21 26 41 71q33 72 66 175q43 134 67 247q17 79 25 140q3 25 1 42q-1 5 -7 4
q-4 -1 -15 -10q-15 -11 -52 -48q-55 -57 -89 -111q-53 -81 -76 -167q-8 -29 -8 -53q0 -26 5 -41q10 -25 35 -15l12 6q4 2 5 -1t-1 -5q-9 -7 -21 -9q-27 -3 -39 23q-7 14 -9 38q-1 34 11 78q40 140 132 240q38 42 67 68l18 15q2 2 13 7q8 3 14 -1l15 -10q5 -4 9 -15z" />
    <glyph glyph-name="iogonek" unicode="&#x12f;" horiz-adv-x="147" 
d="M63 415q-8 3 -8 10q3 10 8 16q2 4 7 2q1 0 3 -2q-1 -1 -1 -3q-5 -5 -2 -10q2 -3 0 -6q-1 -7 -7 -7zM176 333q1 0 1.5 -1t-0.5 -2l-4 -4q-56 -46 -93 -69q-15 -9 -26 -13q-6 -2 -7 -2q0 -2 -1 -3q-7 -20 -10 -45q-2 -14 -1 -22q0 -8 9 -7q10 2 17 9l17 16q10 -6 10.5 -9.5
t-6.5 -11.5q-6 -10 -17 -15q-14 -7 -28 2q-22 14 -18 38q3 19 11 43l3 6q-8 3 -10 4q-9 5 -11 16l-2 14q3 41 21 77q4 6 7 9q2 2 5 1t5 -3v-4q-16 -25 -22 -81q-2 -12 1 -21q3 -5 8 -5q3 0 18 5q24 14 36 22l68 53q3 3 5 4q6 6 14 -1z" />
    <glyph glyph-name="Idotaccent" unicode="&#x130;" horiz-adv-x="299" 
d="M316 712q-6 3 -8 8q-1 2 -1 4q3 10 10 15q3 1 7 0q2 -1 10 -11l-1 -3q-5 -10 -13 -13q-2 -2 -4 0zM59 -50q-12 -4 -28 1q-24 7 -29 34q0 2 -1 6t-1 6q-1 20 21 34q7 5 12 -3q1 -2 0 -3q-1 -2 -5 -6q-16 -15 -10 -37q4 -12 8 -19q3 -6 9 -4q8 1 22 9q22 15 41 39
q21 26 41 71q33 72 66 175q43 134 67 247q17 79 25 140q3 25 1 42q-1 5 -7 4q-4 -1 -15 -10q-15 -11 -52 -48q-55 -57 -89 -111q-53 -81 -76 -167q-8 -29 -8 -53q0 -26 5 -41q10 -25 35 -15l12 6q4 2 5 -1t-1 -5q-9 -7 -21 -9q-27 -3 -39 23q-7 14 -9 38q-1 34 11 78
q40 140 132 240q38 42 67 68l18 15q2 2 13 7q8 3 14 -1l15 -10q5 -4 9 -15q3 -15 1 -44q-6 -54 -22 -129q-27 -133 -82 -296q-29 -83 -53 -136q-18 -38 -35 -62q-19 -25 -41 -43q-16 -12 -26 -15z" />
    <glyph glyph-name="dotlessi" unicode="&#x131;" horiz-adv-x="147" 
d="M54 244q-14 -5 -31 3q-9 5 -11 16l-2 14q3 41 21 77q4 6 7 9q2 2 5 1t5 -3v-4q-16 -25 -22 -81q-2 -12 1 -21q3 -5 8 -5q3 0 18 5q24 14 36 22l68 53q3 3 5 4q6 6 14 -1q1 0 1.5 -1t-0.5 -2l-4 -4q-56 -46 -93 -69q-15 -9 -26 -13z" />
    <glyph glyph-name="uni0136" unicode="&#x136;" horiz-adv-x="692" 
d="M115 -193q-12 4 -13.5 6t0.5 15q4 25 14 53q9 22 18 59q13 56 43 166l24 90q3 11 -1 20q-13 30 -17 60v8q0 1 1.5 1.5t2.5 -0.5q4 -1 4 -6q6 -22 10 -33q0 -2 1 -4.5t2.5 -5.5l2.5 -5q0 -1 2 -1t2 1q2 6 2 8l38 136q28 97 43 179q10 49 14 88v16q-2 5 -6 4q-10 -4 -14 -7
q-17 -9 -38 -26q-36 -28 -75 -74q-77 -91 -123 -192q-26 -51 -34 -100q-6 -38 2 -72q8 -29 29 -47q12 -10 24 -9q4 0 7 -2q-18 -4 -39 9q-22 16 -31 40q-12 29 -10 67q3 46 25 103q28 76 77 145q46 66 97 116q29 27 57 47q14 10 28 15q13 6 25 -2q19 -11 19 -35
q-1 -21 -7 -61q-13 -80 -49 -214q-6 -24 -45 -161q-3 -12 2 -21q24 -40 28 -46q3 -3 4 -5q1 0 8 7q75 100 150 188q47 54 135 166l73 90q1 2 4 5q1 1 4 1q1 0 1 -1q11 -6 4 -16q-4 -6 -14 -17.5t-14 -17.5l-104 -133l-86 -104q-96 -118 -142 -179l-3 -4q-2 -3 1 -8
q18 -24 36 -32q35 -16 75 -13q53 4 107 40q31 20 69 58q64 66 123 143q4 5 11 14.5t8 10.5q3 5 7 1l5 -3q4 -4 1 -8q-16 -26 -25 -38q-59 -78 -128 -146q-36 -36 -72 -58q-37 -21 -66 -26q-54 -11 -98 10q-40 19 -59 37q-4 4 -9 -1l-46 -66q-30 -44 -55 -89q-10 -19 -17 -48
q-3 -11 -7.5 -32l-6.5 -30q-4 -14 -7 -21q-4 -5 -9 -3zM175 4q3 2 8 11l14.5 21l11.5 17l41 59q4 5 1 11q-16 22 -27 43q-3 3 -4 3q-2 -1 -4 -8q-39 -130 -41 -157zM318 -184q-9 2 -7 10l1 4q2 3 4 9t3 11q3 8 -7 11q-4 1 -1 8q5 18 19 24q2 2 6.5 -1t4.5 -7q0 -5 -1 -8
l-15 -53q0 -1 -0.5 -3.5t-1.5 -3.5q-2 -2 -5 -1z" />
    <glyph glyph-name="uni0137" unicode="&#x137;" horiz-adv-x="187" 
d="M-12 130l-7 3q-3 1 -3 5l2 11l9 48q3 9 -5 14q-9 6 -15 15q-1 2 -1 5q2 3 5 3q3 -1 7 -1q13 -1 15 0.5t4 13.5q17 78 30 121q39 128 85 222q15 31 38 69q16 24 25 34q10 10 16 13q9 4 17 -1q1 -1 3.5 -2.5t3.5 -3.5q5 -3 5 -9t-2 -18q-6 -22 -21 -57q-36 -78 -81 -150
l-75 -125q-8 -16 -10 -24l-15 -69q-1 -2 -1 -7l1 -1h2q5 7 5 8q9 16 22 35q6 9 20 25q6 6 9 8q14 12 29 1q4 -1 4 -8q1 -4 -1 -10q-5 -14 -13 -24q-8 -13 -25 -28q-16 -13 -31 -17q-9 -3 -14 -12l-5 -10q-2 -5 4 -5q14 -1 32 6t41 23q52 39 82 72l23 26q5 5 13 2q3 -2 1 -6
q-27 -38 -70 -76q-33 -28 -57 -42q-37 -22 -70 -13q-5 1 -7 -3q-12 -28 -14 -41l-3 -16q-1 -6 -7 -4zM53 382q5 2 7 8l27 47q63 106 98 181q16 36 22 60q2 10 2 15q0 1 -1.5 2t-2.5 0q-3 -1 -12 -10q-8 -9 -22 -29q-23 -38 -42 -78q-36 -72 -75 -191v-2q0 -2 -1 -3zM42 246
q8 2 16 10q24 21 33 42q4 7 1 11q-7 -3 -17 -15q-18 -19 -33 -48zM-9 218q2 -1 2 2q0 5 -5 4q-2 0 -2 -1q-2 -5 5 -5zM28 46q-9 2 -7 10l1 4q2 3 4 9t3 11q3 8 -7 11q-4 1 -1 8q5 18 19 24q2 2 6.5 -1t4.5 -7q0 -5 -1 -8l-15 -53q0 -1 -0.5 -3.5t-1.5 -3.5q-2 -2 -5 -1z" />
    <glyph glyph-name="Lacute" unicode="&#x139;" horiz-adv-x="369" 
d="M273 749l-5 5q-4 2 -2 7q16 26 33 47q5 2 6 1q5 -5 5 -7l-1 -2l-1 -2l-13 -21q-1 -2 -7 -11t-8 -15q-2 -4 -7 -2zM395 -91q-24 5 -43 13q-92 36 -161 78q-6 3 -17 9t-15 8q-10 7 -21 -1q-20 -15 -46 -20q-22 -6 -43 3q-11 3 -21 9q-6 3 -9 9q-3 10 5 17q9 6 22 8
q27 5 59 -1l12 -3q10 -3 17 4q14 17 27 38q18 32 37 77q41 99 59 170q14 50 26 120q8 46 13 103q3 77 -15 136q-6 16 -11 23q-3 6 -10 8q-13 4 -27 1q-23 -4 -46 -19q-24 -18 -41 -36q-52 -58 -85 -130q-23 -52 -34 -89q-12 -42 -11 -72q1 -59 35 -109q2 -2 2 -3
q19 -29 53 -10l9 6q4 0 5 -2v-4q-9 -11 -27 -13q-25 -1 -46 18q-6 5 -9 12q-46 66 -37 144q4 46 33 118q35 87 104 159q29 29 58 41q10 5 25 7q21 4 39 -9q33 -22 42 -59q12 -43 13 -79q3 -44 -4 -97q-10 -83 -34 -175q-25 -99 -74 -209q-16 -39 -35 -63l-14 -17q1 -3 7 -5
q31 -15 56 -30q66 -38 119 -58q47 -19 86 -16q40 3 41 3q46 6 70 43q18 28 21 55q2 16 -4 25v3q7 1 12 -6q7 -9 7 -17q2 -35 -12 -56q-5 -8 -15 -22q-20 -27 -55 -35q-55 -9 -92 -3zM60 4q28 1 53 20q3 3 3 5q0 1 -4 3q-2 0 -5.5 0.5t-5.5 0.5q-26 3 -47 -1q-8 -2 -14 -6
q-5 -4 -5 -9.5t6 -9.5q4 -2 8 -2q3 -1 11 -1z" />
    <glyph glyph-name="lacute" unicode="&#x13a;" horiz-adv-x="117" 
d="M211 753q5 -5 5 -7l-1 -2q-1 -1 -1 -2l-13 -21q-1 -2 -7 -11t-8 -15q-2 -4 -7 -2l-5 5q-4 2 -2 7q16 26 33 47q5 2 6 1zM166 683q12 -8 11 -22q-1 -11 -5 -26q-6 -19 -26 -69q-53 -120 -104 -212q-6 -10 -7 -17q-17 -67 -24 -131q-6 -42 -6 -83q0 -8 1 -11q0 -1 2 -7
q3 1 10 11q19 27 49 85l33 65q28 53 29 55q1 3 5 9q5 6 12 1q2 -2 1 -3q0 -2 -1 -3l-65 -129q-32 -60 -51 -88l-9 -12q-5 -8 -14 -5q-1 0 -2.5 0.5t-2.5 1.5q-6 1 -8 8l-3 14q-1 11 1 66q5 50 19 123q25 113 61 216q9 27 29 79q15 40 35 68q10 13 13 15q8 7 17 1zM163 663
q3 8 -1 9q-2 0 -7 -5q-1 -1 -7 -10q-16 -22 -29 -54q-35 -87 -64 -188q-2 -7 -1 -11h-1l-1 -1q2 0 2 1q2 2 4.5 6.5t3.5 5.5q15 30 53 115q24 53 38 94q9 28 10 38z" />
    <glyph glyph-name="uni013B" unicode="&#x13b;" horiz-adv-x="369" 
d="M395 -91q-24 5 -43 13q-92 36 -161 78q-6 3 -17 9t-15 8q-10 7 -21 -1q-20 -15 -46 -20q-22 -6 -43 3q-11 3 -21 9q-6 3 -9 9q-3 10 5 17q9 6 22 8q27 5 59 -1l12 -3q10 -3 17 4q14 17 27 38q18 32 37 77q41 99 59 170q14 50 26 120q8 46 13 103q3 77 -15 136
q-6 16 -11 23q-3 6 -10 8q-13 4 -27 1q-23 -4 -46 -19q-24 -18 -41 -36q-52 -58 -85 -130q-23 -52 -34 -89q-12 -42 -11 -72q1 -59 35 -109q2 -2 2 -3q19 -29 53 -10l9 6q4 0 5 -2v-4q-9 -11 -27 -13q-25 -1 -46 18q-6 5 -9 12q-46 66 -37 144q4 46 33 118q35 87 104 159
q29 29 58 41q10 5 25 7q21 4 39 -9q33 -22 42 -59q12 -43 13 -79q3 -44 -4 -97q-10 -83 -34 -175q-25 -99 -74 -209q-16 -39 -35 -63l-14 -17q1 -3 7 -5q31 -15 56 -30q66 -38 119 -58q47 -19 86 -16q40 3 41 3q46 6 70 43q18 28 21 55q2 16 -4 25v3q7 1 12 -6q7 -9 7 -17
q2 -35 -12 -56q-5 -8 -15 -22q-20 -27 -55 -35q-55 -9 -92 -3zM60 4q28 1 53 20q3 3 3 5q0 1 -4 3q-2 0 -5.5 0.5t-5.5 0.5q-26 3 -47 -1q-8 -2 -14 -6q-5 -4 -5 -9.5t6 -9.5q4 -2 8 -2q3 -1 11 -1zM238 -154q-9 2 -7 10l1 4q2 3 4 9t3 11q3 8 -7 11q-4 1 -1 8q5 18 19 24
q2 2 6.5 -1t4.5 -7q0 -5 -1 -8l-15 -53q0 -1 -0.5 -3.5t-1.5 -3.5q-2 -2 -5 -1z" />
    <glyph glyph-name="uni013C" unicode="&#x13c;" horiz-adv-x="117" 
d="M166 683q12 -8 11 -22q-1 -11 -5 -26q-6 -19 -26 -69q-53 -120 -104 -212q-6 -10 -7 -17q-17 -67 -24 -131q-6 -42 -6 -83q0 -8 1 -11q0 -1 2 -7q3 1 10 11q19 27 49 85l33 65q28 53 29 55q1 3 5 9q5 6 12 1q2 -2 1 -3q0 -2 -1 -3l-65 -129q-32 -60 -51 -88l-9 -12
q-5 -8 -14 -5q-1 0 -2.5 0.5t-2.5 1.5q-6 1 -8 8l-3 14q-1 11 1 66q5 50 19 123q25 113 61 216q9 27 29 79q15 40 35 68q10 13 13 15q8 7 17 1zM163 663q3 8 -1 9q-2 0 -7 -5q-1 -1 -7 -10q-16 -22 -29 -54q-35 -87 -64 -188q-2 -7 -1 -11h-1l-1 -1q2 0 2 1q2 2 4.5 6.5
t3.5 5.5q15 30 53 115q24 53 38 94q9 28 10 38zM0 63q2 2 6.5 -1t4.5 -7q0 -5 -1 -8l-15 -53q0 -1 -0.5 -3.5t-1.5 -3.5q-2 -2 -5 -1q-9 2 -7 10l1 4q2 3 4 9t3 11q3 8 -7 11q-4 1 -1 8q5 18 19 24z" />
    <glyph glyph-name="Lcaron" unicode="&#x13d;" horiz-adv-x="369" 
d="M254 751l-5 5q-20 42 -25 56q0 4 1 5h4q4 -1 8 -7l15 -28l3 -6q1 -2 3 0l6 6l9.5 13t9.5 14l6 6q2 2 5 -1q2 -2 2 -5q0 -1 -2 -5q-6 -9 -18 -25q-14 -22 -14 -24l-3 -3q-1 -3 -5 -1zM395 -91q-24 5 -43 13q-92 36 -161 78q-6 3 -17 9t-15 8q-10 7 -21 -1q-20 -15 -46 -20
q-22 -6 -43 3q-11 3 -21 9q-6 3 -9 9q-3 10 5 17q9 6 22 8q27 5 59 -1l12 -3q10 -3 17 4q14 17 27 38q18 32 37 77q41 99 59 170q14 50 26 120q8 46 13 103q3 77 -15 136q-6 16 -11 23q-3 6 -10 8q-13 4 -27 1q-23 -4 -46 -19q-24 -18 -41 -36q-52 -58 -85 -130
q-23 -52 -34 -89q-12 -42 -11 -72q1 -59 35 -109q2 -2 2 -3q19 -29 53 -10l9 6q4 0 5 -2v-4q-9 -11 -27 -13q-25 -1 -46 18q-6 5 -9 12q-46 66 -37 144q4 46 33 118q35 87 104 159q29 29 58 41q10 5 25 7q21 4 39 -9q33 -22 42 -59q12 -43 13 -79q3 -44 -4 -97
q-10 -83 -34 -175q-25 -99 -74 -209q-16 -39 -35 -63l-14 -17q1 -3 7 -5q31 -15 56 -30q66 -38 119 -58q47 -19 86 -16q40 3 41 3q46 6 70 43q18 28 21 55q2 16 -4 25v3q7 1 12 -6q7 -9 7 -17q2 -35 -12 -56q-5 -8 -15 -22q-20 -27 -55 -35q-55 -9 -92 -3zM60 4q28 1 53 20
q3 3 3 5q0 1 -4 3q-2 0 -5.5 0.5t-5.5 0.5q-26 3 -47 -1q-8 -2 -14 -6q-5 -4 -5 -9.5t6 -9.5q4 -2 8 -2q3 -1 11 -1z" />
    <glyph glyph-name="lcaron" unicode="&#x13e;" horiz-adv-x="117" 
d="M215 763q2 -2 2 -5q0 -1 -2 -5q-6 -9 -18 -25q-14 -22 -14 -24l-3 -3q-1 -3 -5 -1l-5 5q-20 42 -25 56q0 5 1 5h4q4 -1 8 -7l15 -28l3 -6q2 -1 3 0l6 6q3 5 9.5 14l9.5 13l6 6q2 2 5 -1zM166 683q12 -8 11 -22q-1 -11 -5 -26q-6 -19 -26 -69q-53 -120 -104 -212
q-6 -10 -7 -17q-17 -67 -24 -131q-6 -42 -6 -83q0 -8 1 -11q0 -1 2 -7q3 1 10 11q19 27 49 85l33 65q28 53 29 55q1 3 5 9q5 6 12 1q2 -2 1 -3q0 -2 -1 -3l-65 -129q-32 -60 -51 -88l-9 -12q-5 -8 -14 -5q-1 0 -2.5 0.5t-2.5 1.5q-6 1 -8 8l-3 14q-1 11 1 66q5 50 19 123
q25 113 61 216q9 27 29 79q15 40 35 68q10 13 13 15q8 7 17 1zM163 663q3 8 -1 9q-2 0 -7 -5q-1 -1 -7 -10q-16 -22 -29 -54q-35 -87 -64 -188q-2 -7 -1 -11h-1l-1 -1q2 0 2 1q2 2 4.5 6.5t3.5 5.5q15 30 53 115q24 53 38 94q9 28 10 38z" />
    <glyph glyph-name="Lslash" unicode="&#x141;" horiz-adv-x="369" 
d="M569 25q2 -35 -12 -56q-5 -8 -15 -22q-20 -27 -55 -35q-55 -9 -92 -3q-24 5 -43 13q-92 36 -161 78q-6 3 -17 9t-15 8q-10 7 -21 -1q-20 -15 -46 -20q-22 -6 -43 3q-11 3 -21 9q-6 3 -9 9q-3 10 5 17q9 6 22 8q27 5 59 -1l12 -3q10 -3 17 4q14 17 27 38q18 32 37 77
q38 93 57 163l-38 -31l-8 -8q-6 -6 -11 1q-5 4 0 10q4 6 21 20q7 6 21.5 17.5t21.5 17.5q8 31 21 100q8 46 13 103q3 77 -15 136q-6 16 -11 23q-3 6 -10 8q-13 4 -27 1q-23 -4 -46 -19q-24 -18 -41 -36q-52 -58 -85 -130q-23 -52 -34 -89q-12 -42 -11 -72q1 -59 35 -109
q2 -2 2 -3q19 -29 53 -10l9 6q4 0 5 -2v-4q-9 -11 -27 -13q-25 -1 -46 18q-6 5 -9 12q-46 66 -37 144q4 46 33 118q35 87 104 159q29 29 58 41q10 5 25 7q21 4 39 -9q33 -22 42 -59q12 -43 13 -79q3 -44 -4 -97q-8 -64 -21 -124q12 10 24 17l13 6q20 5 33 -10q-21 0 -46 -19
q-15 -8 -31 -21l-6 -24q-25 -99 -74 -209q-16 -39 -35 -63l-14 -17q1 -3 7 -5q31 -15 56 -30q66 -38 119 -58q47 -19 86 -16q40 3 41 3q46 6 70 43q18 28 21 55q2 16 -4 25v3q7 1 12 -6q7 -9 7 -17zM113 24q3 3 3 5q0 1 -4 3q-2 0 -5.5 0.5t-5.5 0.5q-26 3 -47 -1
q-8 -2 -14 -6q-5 -4 -5 -9.5t6 -9.5q4 -2 8 -2q3 -1 11 -1q28 1 53 20z" />
    <glyph glyph-name="lslash" unicode="&#x142;" horiz-adv-x="117" 
d="M166 683q12 -8 11 -22q-1 -11 -5 -26q-6 -19 -26 -69q-29 -64 -33 -71h1q2 1 6.5 3t6.5 3q20 5 33 -10q-21 0 -46 -19q-2 -1 -17 -11q-21 -44 -55 -107q-6 -10 -7 -17q-17 -67 -24 -131q-6 -42 -6 -83q0 -8 1 -11q0 -1 2 -7q3 1 10 11q19 27 49 85l33 65q28 53 29 55
q1 3 5 9q5 6 12 1q2 -2 1 -3q0 -2 -1 -3l-65 -129q-32 -60 -51 -88l-9 -12q-5 -8 -14 -5q-1 0 -2.5 0.5t-2.5 1.5q-6 1 -8 8l-3 14q-1 11 1 66q5 50 19 123q11 51 29 114q-4 -3 -11.5 -9.5t-11.5 -9.5l-8 -8q-6 -6 -11 1q-5 4 0 10q4 6 21 20q14 13 29 23q10 37 24 75
q9 27 29 79q15 40 35 68q10 13 13 15q8 7 17 1zM163 663q3 8 -1 9q-2 0 -7 -5q-1 -1 -7 -10q-16 -22 -29 -54q-24 -59 -50 -141q12 10 20 16l3 3q14 27 23 50q24 53 38 94q9 28 10 38zM62 416l15 31q-6 -4 -16 -12l-6 -20q-2 -7 -1 -11h-1l-1 -1q2 0 2 1q2 2 4.5 6.5
t3.5 5.5z" />
    <glyph glyph-name="Nacute" unicode="&#x143;" horiz-adv-x="660" 
d="M413 714l-5 5q-4 2 -2 7q16 26 33 47q5 2 6 1q5 -5 5 -7l-1 -2q-1 -1 -1 -2l-13 -21q-1 -2 -7 -11t-8 -15q-2 -4 -7 -2zM381 -74l-8 3q-15 3 -20 20q-7 22 -9 48q-4 53 5 111q7 51 21 103q21 86 64 174q14 29 42 82t38 74q41 84 49 105q6 18 7 28q0 7 -7 5t-17 -9
q-36 -22 -72 -60q-55 -57 -124 -159q-77 -116 -138 -245l-45 -89q-5 -12 -12 -20q-3 -3 -7 -2q-16 7 -17 10t1 15q13 96 49 224q27 97 44 164q15 63 16 104q1 16 -2 35q-2 12 -5 14t-16 -1q-3 -1 -19 -9q-58 -30 -103 -93q-50 -67 -75 -168q-9 -35 -8 -67q0 -24 8 -50
q5 -14 15 -23q6 -4 10 -4q6 0 5 -3q0 -1 -7 1q-22 6 -31 26q-6 16 -8 25q-11 47 0 93q17 87 57 155q45 76 120 121q21 10 30 12h7q22 -5 36 -19q5 -5 9 -24q4 -23 -2 -70q-4 -38 -22 -107l-53 -199q-9 -33 -23 -99v-3t-1 -3h3q3 5 9 17l68 132q76 141 161 251q48 60 91 99
q12 11 38 29q7 6 17 9q10 5 19 -1q20 -10 17 -33q-1 -12 -9 -34q-10 -26 -40 -93l-26.5 -54.5l-31.5 -64.5l-26 -55q-40 -89 -61 -185q-12 -53 -18 -105q-7 -65 1 -108q1 -2 2.5 -7.5t2.5 -8.5q2 -3 6 -2q3 1 14 7q18 12 48 42q34 35 67 85l69 111q32 55 83 131q5 9 12 15
q3 3 7 2q8 -2 3 -7q-2 -2 -22 -34l-37 -59l-91 -148q-41 -67 -86 -115q-18 -19 -36 -32q-1 -1 -3 -2.5t-4.5 -3t-3.5 -2.5q-12 -6 -25 -2z" />
    <glyph glyph-name="nacute" unicode="&#x144;" horiz-adv-x="201" 
d="M99 399l-5 5q-4 2 -2 7q16 26 33 47q5 2 6 1q5 -5 5 -7l-1 -2q-1 -1 -1 -2l-13 -21q-1 -2 -7 -11t-8 -15q-2 -4 -7 -2zM16 248q-10 3 -9 12q0 7 2 23q13 70 42 128l5 9q3 3 6 2q3 -3 2 -6q-4 -6 -15 -34q-19 -47 -28 -102q0 -8 1 -10q2 2 4.5 7t4.5 7l27 48q6 10 15 21
q5 5 11 2q10 -3 12 -14q1 -4 2.5 -12t2.5 -12q1 -12 8 -23q4 -8 13 -8q34 3 59 20l21 15q13 10 14 11q7 6 15 -1q1 -3 -4 -5q-12 -12 -19 -17q-29 -26 -70 -31q-15 -1 -34 9q-10 7 -13 19q-4 9 -6 28q0 1 -0.5 3t-0.5 3t-1.5 2t-2.5 0q-4 -4 -10 -12q-6 -9 -15.5 -26
t-13.5 -23q-13 -23 -14 -25l-5 -6q-3 -3 -6 -2z" />
    <glyph glyph-name="uni0145" unicode="&#x145;" horiz-adv-x="660" 
d="M381 -74l-8 3q-15 3 -20 20q-7 22 -9 48q-4 53 5 111q7 51 21 103q21 86 64 174q14 29 42 82t38 74q41 84 49 105q6 18 7 28q0 7 -7 5t-17 -9q-36 -22 -72 -60q-55 -57 -124 -159q-77 -116 -138 -245l-45 -89q-5 -12 -12 -20q-3 -3 -7 -2q-16 7 -17 10t1 15q13 96 49 224
q27 97 44 164q15 63 16 104q1 16 -2 35q-2 12 -5 14t-16 -1q-3 -1 -19 -9q-58 -30 -103 -93q-50 -67 -75 -168q-9 -35 -8 -67q0 -24 8 -50q5 -14 15 -23q6 -4 10 -4q6 0 5 -3q0 -1 -7 1q-22 6 -31 26q-6 16 -8 25q-11 47 0 93q17 87 57 155q45 76 120 121q21 10 30 12h7
q22 -5 36 -19q5 -5 9 -24q4 -23 -2 -70q-4 -38 -22 -107l-53 -199q-9 -33 -23 -99v-3t-1 -3h3q3 5 9 17l68 132q76 141 161 251q48 60 91 99q12 11 38 29q7 6 17 9q10 5 19 -1q20 -10 17 -33q-1 -12 -9 -34q-10 -26 -40 -93l-26.5 -54.5l-31.5 -64.5l-26 -55
q-40 -89 -61 -185q-12 -53 -18 -105q-7 -65 1 -108q1 -2 2.5 -7.5t2.5 -8.5q2 -3 6 -2q3 1 14 7q18 12 48 42q34 35 67 85l69 111q32 55 83 131q5 9 12 15q3 3 7 2q8 -2 3 -7q-2 -2 -22 -34l-37 -59l-91 -148q-41 -67 -86 -115q-18 -19 -36 -32q-1 -1 -3 -2.5t-4.5 -3
t-3.5 -2.5q-12 -6 -25 -2zM248 -134q-9 2 -7 10l1 4q2 3 4 9t3 11q3 8 -7 11q-4 1 -1 8q5 18 19 24q2 2 6.5 -1t4.5 -7q0 -5 -1 -8l-15 -53q0 -1 -0.5 -3.5t-1.5 -3.5q-2 -2 -5 -1z" />
    <glyph glyph-name="uni0146" unicode="&#x146;" horiz-adv-x="201" 
d="M16 248q-10 3 -9 12q0 7 2 23q13 70 42 128l5 9q3 3 6 2q3 -3 2 -6q-4 -6 -15 -34q-19 -47 -28 -102q0 -8 1 -10q2 2 4.5 7t4.5 7l27 48q6 10 15 21q5 5 11 2q10 -3 12 -14q1 -4 2.5 -12t2.5 -12q1 -12 8 -23q4 -8 13 -8q34 3 59 20l21 15q13 10 14 11q7 6 15 -1
q1 -3 -4 -5q-12 -12 -19 -17q-29 -26 -70 -31q-15 -1 -34 9q-10 7 -13 19q-4 9 -6 28q0 1 -0.5 3t-0.5 3t-1.5 2t-2.5 0q-4 -4 -10 -12q-6 -9 -15.5 -26t-13.5 -23q-13 -23 -14 -25l-5 -6q-3 -3 -6 -2zM48 146q-9 2 -7 10l1 4q2 3 4 9t3 11q3 8 -7 11q-4 1 -1 8q5 18 19 24
q2 2 6.5 -1t4.5 -7q0 -5 -1 -8l-15 -53q0 -1 -0.5 -3.5t-1.5 -3.5q-2 -2 -5 -1z" />
    <glyph glyph-name="Ncaron" unicode="&#x147;" horiz-adv-x="660" 
d="M398 721l-5 5q-20 42 -25 56q0 4 1 5h4q4 -1 8 -7l15 -28l3 -6q1 -2 3 0l6 6l9.5 13t9.5 14l6 6q2 2 5 -1q2 -2 2 -5q0 -1 -2 -5q-6 -9 -18 -25q-14 -22 -14 -24l-3 -3q-1 -3 -5 -1zM381 -74l-8 3q-15 3 -20 20q-7 22 -9 48q-4 53 5 111q7 51 21 103q21 86 64 174
q14 29 42 82t38 74q41 84 49 105q6 18 7 28q0 7 -7 5t-17 -9q-36 -22 -72 -60q-55 -57 -124 -159q-77 -116 -138 -245l-45 -89q-5 -12 -12 -20q-3 -3 -7 -2q-16 7 -17 10t1 15q13 96 49 224q27 97 44 164q15 63 16 104q1 16 -2 35q-2 12 -5 14t-16 -1q-3 -1 -19 -9
q-58 -30 -103 -93q-50 -67 -75 -168q-9 -35 -8 -67q0 -24 8 -50q5 -14 15 -23q6 -4 10 -4q6 0 5 -3q0 -1 -7 1q-22 6 -31 26q-6 16 -8 25q-11 47 0 93q17 87 57 155q45 76 120 121q21 10 30 12h7q22 -5 36 -19q5 -5 9 -24q4 -23 -2 -70q-4 -38 -22 -107l-53 -199
q-9 -33 -23 -99v-3t-1 -3h3q3 5 9 17l68 132q76 141 161 251q48 60 91 99q12 11 38 29q7 6 17 9q10 5 19 -1q20 -10 17 -33q-1 -12 -9 -34q-10 -26 -40 -93l-26.5 -54.5l-31.5 -64.5l-26 -55q-40 -89 -61 -185q-12 -53 -18 -105q-7 -65 1 -108q1 -2 2.5 -7.5t2.5 -8.5
q2 -3 6 -2q3 1 14 7q18 12 48 42q34 35 67 85l69 111q32 55 83 131q5 9 12 15q3 3 7 2q8 -2 3 -7q-2 -2 -22 -34l-37 -59l-91 -148q-41 -67 -86 -115q-18 -19 -36 -32q-1 -1 -3 -2.5t-4.5 -3t-3.5 -2.5q-12 -6 -25 -2z" />
    <glyph glyph-name="ncaron" unicode="&#x148;" horiz-adv-x="201" 
d="M87 395l-5 5q-20 42 -25 56q0 4 1 5h4q4 -1 8 -7l15 -28l3 -6q2 -2 3 0l6 6q3 5 9.5 14l9.5 13l6 6q2 2 5 -1q2 -2 2 -5q0 -1 -2 -5q-6 -9 -18 -25q-14 -22 -14 -24l-3 -3q-1 -3 -5 -1zM16 248q-10 3 -9 12q0 7 2 23q13 70 42 128l5 9q3 3 6 2q3 -3 2 -6q-4 -6 -15 -34
q-19 -47 -28 -102q0 -8 1 -10q2 2 4.5 7t4.5 7l27 48q6 10 15 21q5 5 11 2q10 -3 12 -14q1 -4 2.5 -12t2.5 -12q1 -12 8 -23q4 -8 13 -8q34 3 59 20l21 15q13 10 14 11q7 6 15 -1q1 -3 -4 -5q-12 -12 -19 -17q-29 -26 -70 -31q-15 -1 -34 9q-10 7 -13 19q-4 9 -6 28
q0 1 -0.5 3t-0.5 3t-1.5 2t-2.5 0q-4 -4 -10 -12q-6 -9 -15.5 -26t-13.5 -23q-13 -23 -14 -25l-5 -6q-3 -3 -6 -2z" />
    <glyph glyph-name="Eng" unicode="&#x14a;" horiz-adv-x="660" 
d="M686 331q8 -2 3 -7q-2 -2 -22 -34l-37 -59l-91 -148q-41 -67 -86 -115q-18 -19 -36 -32q-1 -1 -3 -2.5t-4.5 -3t-3.5 -2.5q-10 -4 -15 -4q0 -5 -1 -8q-2 -27 -10 -51q-4 -12 -10 -19q-9 -12 -24 -8q-17 3 -28 17q-5 5 0 12q1 1 2 1q4 4 8 1q5 -4 3 -9l-2 -3q0 -3 2 -4
q11 -5 20 3q7 7 15 25q5 13 11 39q1 1 1 3.5t1 3.5q-1 1 -3 1t-3 1q-15 3 -20 20q-7 22 -9 48q-4 53 5 111q7 51 21 103q21 86 64 174q14 29 42 82t38 74q41 84 49 105q6 18 7 28q0 7 -7 5t-17 -9q-36 -22 -72 -60q-55 -57 -124 -159q-77 -116 -138 -245l-45 -89
q-5 -12 -12 -20q-3 -3 -7 -2q-16 7 -17 10t1 15q13 96 49 224q27 97 44 164q15 63 16 104q1 16 -2 35q-2 12 -5 14t-16 -1q-3 -1 -19 -9q-58 -30 -103 -93q-50 -67 -75 -168q-9 -35 -8 -67q0 -24 8 -50q5 -14 15 -23q6 -4 10 -4q6 0 5 -3q0 -1 -7 1q-22 6 -31 26
q-6 16 -8 25q-11 47 0 93q17 87 57 155q45 76 120 121q21 10 30 12h7q22 -5 36 -19q5 -5 9 -24q4 -23 -2 -70q-4 -38 -22 -107l-53 -199q-9 -33 -23 -99v-3t-1 -3h3q3 5 9 17l68 132q76 141 161 251q48 60 91 99q12 11 38 29q7 6 17 9q10 5 19 -1q20 -10 17 -33
q-1 -12 -9 -34q-10 -26 -40 -93l-26.5 -54.5l-31.5 -64.5l-26 -55q-40 -89 -61 -185q-12 -53 -18 -105q-7 -65 1 -108q1 -2 2.5 -7.5t2.5 -8.5q2 -3 6 -2q3 1 14 7q18 12 48 42q34 35 67 85l69 111q32 55 83 131q5 9 12 15q3 3 7 2z" />
    <glyph glyph-name="eng" unicode="&#x14b;" horiz-adv-x="201" 
d="M231 331q1 -3 -4 -5q-12 -12 -19 -17q-29 -26 -70 -31h-2v-3q-1 -2 -1 -8q-2 -28 -10 -50q-3 -9 -10 -20q-9 -11 -24 -8q-16 3 -29 17q-5 6 0 12q2 0 2 2q6 3 9 0q4 -3 3 -9q-2 -2 -2 -3q-1 -2 1 -4q12 -4 20 4q10 8 15 24q7 16 12 39l2 8q-8 1 -20 8q-10 7 -13 19
q-4 9 -6 28q0 1 -0.5 3t-0.5 3t-1.5 2t-2.5 0q-4 -4 -10 -12q-6 -9 -15.5 -26t-13.5 -23q-13 -23 -14 -25l-5 -6q-3 -3 -6 -2q-10 3 -9 12q0 7 2 23q13 70 42 128l5 9q3 3 6 2q3 -3 2 -6q-4 -6 -15 -34q-19 -47 -28 -102q0 -8 1 -10q2 2 4.5 7t4.5 7l27 48q6 10 15 21
q5 5 11 2q10 -3 12 -14q1 -4 2.5 -12t2.5 -12q1 -12 8 -23q4 -8 13 -8q34 3 59 20l21 15q13 10 14 11q7 6 15 -1z" />
    <glyph glyph-name="Omacron" unicode="&#x14c;" horiz-adv-x="432" 
d="M363 749q-15 0 -22 1q-4 0 -6 6q0 4 2 4h2l60 3q3 0 4 -2q2 -2 2 -6q-1 -1 -3 -2l-1 -1zM75 -48q-26 10 -42 38q-17 28 -24 68q-11 57 -8 125q7 143 78 268q24 43 54 76q17 19 32 27q7 5 9 11q1 3 6 16.5t9 20.5q26 59 68 94q26 22 62 31q31 7 54 -5q36 -17 52 -50
q14 -36 17 -70v-26q0 -46 -12 -104q-22 -104 -78 -222q-51 -106 -100 -179q-39 -58 -85 -92q-21 -16 -42 -26q-25 -11 -50 -1zM85 -42q10 0 22 5q14 5 43 24q43 32 82 87q24 34 56 90q63 117 93 200q36 103 44 194q3 45 -5 82q-6 32 -22 56q-10 16 -31 19q-22 2 -41 -4
q-39 -11 -72 -47t-58 -101q-2 -5 2 -9q3 -3 1 -11q0 -2 -2 -2l-2 1q0 1 -0.5 3.5t-1.5 3.5q-3 -1 -5 -8q-22 -61 -32 -120q-4 -30 -3 -47q0 -9 1 -14q4 -4 7 -2q9 5 15 13l6 9q3 0 4 -1q8 -4 5 -12q-5 -13 -17 -19q-4 -3 -11 -3q-10 2 -17.5 9.5t-8.5 16.5q-1 8 -1 23
q0 22 8 64q4 22 16 66q2 6 0 9q-5 -2 -11 -10q-24 -29 -42 -60q-68 -115 -79 -268q-1 -14 -1 -82q1 -32 8 -70q9 -39 22 -61q8 -12 13 -18t15 -6z" />
    <glyph glyph-name="omacron" unicode="&#x14d;" horiz-adv-x="155" 
d="M84 433q-15 0 -22 1q-4 0 -6 6q0 4 2 4h2l60 3q3 0 4 -2q2 -2 2 -6q-1 -1 -3 -2l-1 -1zM49 253q-18 -14 -33 5q-4 5 -6 17q0 21 7 38q6 13 3 23q-3 9 2 19q11 35 42 53l6 3q15 5 24 2t21 -15q4 -4 4 -12q2 -14 -1 -23q-6 -27 -19 -48q-1 -1 -2 -4t-2 -5q-3 -3 -1 -4
q1 -1 5 -1q20 4 41 14l32 17q9 4 13 -6q0 -3 -3 -6l-21 -13q-31 -17 -70 -19q-8 3 -15 -8q-14 -18 -27 -27zM69 301q6 -3 11 4q11 19 18 37q9 29 9 43q0 3 -2 11q0 6 -6 6q-11 0 -21 -7q-28 -17 -40 -50q-2 -5 2 -8q5 -4 1 -10q-1 -1 -1 -2q-5 -11 6 -16q11 -7 23 -8z
M34 258q22 12 34 33l-5 3q-11 4 -25 14q-3 3 -5 -1q-9 -23 -6 -45q0 -6 7 -4z" />
    <glyph glyph-name="Ohungarumlaut" unicode="&#x150;" horiz-adv-x="432" 
d="M367 741l-6 4q-4 4 -1 8q17 28 33 46q3 3 6 2q5 -5 5 -7q-1 -1 -3 -5l-12 -21q0 -1 -7 -10t-9 -15t-6 -2zM397 741l-6 4q-4 4 -1 8q17 28 33 46q3 3 6 2q5 -5 5 -7q-1 -1 -3 -5l-12 -21q0 -1 -7 -10t-9 -15t-6 -2zM75 -48q-26 10 -42 38q-17 28 -24 68q-11 57 -8 125
q7 143 78 268q24 43 54 76q17 19 32 27q7 5 9 11q1 3 6 16.5t9 20.5q26 59 68 94q26 22 62 31q31 7 54 -5q36 -17 52 -50q14 -36 17 -70v-26q0 -46 -12 -104q-22 -104 -78 -222q-51 -106 -100 -179q-39 -58 -85 -92q-21 -16 -42 -26q-25 -11 -50 -1zM85 -42q10 0 22 5
q14 5 43 24q43 32 82 87q24 34 56 90q63 117 93 200q36 103 44 194q3 45 -5 82q-6 32 -22 56q-10 16 -31 19q-22 2 -41 -4q-39 -11 -72 -47t-58 -101q-2 -5 2 -9q3 -3 1 -11q0 -2 -2 -2l-2 1q0 1 -0.5 3.5t-1.5 3.5q-3 -1 -5 -8q-22 -61 -32 -120q-4 -30 -3 -47q0 -9 1 -14
q4 -4 7 -2q9 5 15 13l6 9q3 0 4 -1q8 -4 5 -12q-5 -13 -17 -19q-4 -3 -11 -3q-10 2 -17.5 9.5t-8.5 16.5q-1 8 -1 23q0 22 8 64q4 22 16 66q2 6 0 9q-5 -2 -11 -10q-24 -29 -42 -60q-68 -115 -79 -268q-1 -14 -1 -82q1 -32 8 -70q9 -39 22 -61q8 -12 13 -18t15 -6z" />
    <glyph glyph-name="ohungarumlaut" unicode="&#x151;" horiz-adv-x="155" 
d="M93 434l-6 4q-4 4 -1 8q17 28 33 46q3 3 6 2q5 -5 5 -7q-1 -1 -3 -5l-12 -21q0 -1 -7 -10t-9 -15t-6 -2zM123 434l-6 4q-4 4 -1 8q17 28 33 46q3 3 6 2q5 -5 5 -7q-1 -1 -3 -5l-12 -21q0 -1 -7 -10t-9 -15t-6 -2zM49 253q-18 -14 -33 5q-4 5 -6 17q0 21 7 38q6 13 3 23
q-3 9 2 19q11 35 42 53l6 3q15 5 24 2t21 -15q4 -4 4 -12q2 -14 -1 -23q-6 -27 -19 -48q-1 -1 -2 -4t-2 -5q-3 -3 -1 -4q1 -1 5 -1q20 4 41 14l32 17q9 4 13 -6q0 -3 -3 -6l-21 -13q-31 -17 -70 -19q-8 3 -15 -8q-14 -18 -27 -27zM69 301q6 -3 11 4q11 19 18 37q9 29 9 43
q0 3 -2 11q0 6 -6 6q-11 0 -21 -7q-28 -17 -40 -50q-2 -5 2 -8q5 -4 1 -10q-1 -1 -1 -2q-5 -11 6 -16q11 -7 23 -8zM34 258q22 12 34 33l-5 3q-11 4 -25 14q-3 3 -5 -1q-9 -23 -6 -45q0 -6 7 -4z" />
    <glyph glyph-name="OE" unicode="&#x152;" horiz-adv-x="772" 
d="M852 682q19 -6 30 -32v-4q-3 -17 -13 -28q-4 -6 -8 0q-5 8 0 16q3 4 7 16q1 5 -4 8q-15 7 -33 7q-20 1 -48 -4q-76 -11 -204 -43l-84 -21q-1 0 -3 -0.5t-3 -0.5q-7 0 -12 -9q-29 -65 -35 -80q-2 -4 -5.5 -12.5t-4.5 -13.5q0 -1 -1 -4t-1 -5q-14 -69 -43 -143h9q77 2 93 4
q50 4 75 7l70 6q40 4 60 5q5 2 8 -3q6 -9 5 -11q0 -1 -11 -4l-82 -6q-29 -3 -87 -7q-70 -4 -106 -3h-39q-7 -17 -23 -51q-2 -7 -5 -21t-5 -21q-14 -59 -22 -130q-7 -58 4 -103q6 -24 16 -42q5 -10 15 -20q7 -7 21 -9q35 -1 72 10q14 4 58 25q52 28 110 76q43 36 107 104
q4 5 12.5 13.5l12.5 12.5q1 1 4 3.5t4 3.5q5 5 8 4q6 0 10 -5q-17 -16 -49 -50.5l-49 -51.5q-71 -68 -123 -101q-52 -32 -81 -42q-40 -14 -78 -13q-47 2 -72 43q-17 28 -21 63q-8 43 -1 100q2 21 8 63q-26 -51 -63 -107q-39 -58 -85 -92q-21 -16 -42 -26q-25 -11 -50 -1
q-26 10 -42 38q-17 28 -24 68q-11 57 -8 125q7 143 78 268q24 43 54 76q17 19 32 27q7 5 9 11q1 3 6 16.5t9 20.5q26 59 68 94q26 22 62 31q31 7 54 -5q36 -17 52 -50q14 -37 17 -69q6 2 18 4q10 1 17 12q11 22 29 45q1 2 5 6q2 2 4 0q2 0 2 -3q1 -1 -2 -9l-14 -26
q-6 -11 -7 -14q1 -1 8 -1l75 21q62 18 145 35q36 8 81 13q26 2 49 -4zM288 164q28 52 41 78q5 23 14 56q4 16 1 18q-2 1 -15 0q-9 0 -10 1q-3 3 -2 5q0 2 3 2q10 3 21 3q10 0 13 10q22 71 63 160q6 40 8 61q1 8 1 26q-5 -2 -19 -4q-40 -7 -68 -7q-12 0 -24 3q-25 5 -35 23v1
q20 -15 49 -15q31 0 66 8q20 4 30 7q0 18 -5 40q-6 32 -22 56q-10 16 -31 19q-22 2 -41 -4q-39 -11 -72 -47t-58 -101q-2 -5 2 -9q3 -3 1 -11q0 -2 -2 -2l-2 1q0 1 -0.5 3.5t-1.5 3.5q-3 -1 -5 -8q-22 -61 -32 -120q-4 -30 -3 -47q0 -9 1 -14q4 -4 7 -2q9 5 15 13l6 9
q3 0 4 -1q8 -4 5 -12q-5 -13 -17 -19q-4 -3 -11 -3q-10 2 -17.5 9.5t-8.5 16.5q-1 8 -1 23q0 22 8 64q4 22 16 66q2 6 0 9q-5 -2 -11 -10q-24 -29 -42 -60q-68 -115 -79 -268q-1 -14 -1 -82q1 -32 8 -70q9 -39 22 -61q8 -12 13 -18t15 -6t22 5q14 5 43 24q43 32 82 87
q24 34 56 90zM457 584q3 5 -3 5q-8 -2 -12 -2v-11q0 -18 -1 -26q0 1 1 2l3 6z" />
    <glyph glyph-name="oe" unicode="&#x153;" horiz-adv-x="245" 
d="M254 333q7 5 9.5 5t11.5 -7q-2 -2 -4.5 -3.5t-3.5 -2.5q-56 -49 -98 -72q-22 -13 -42 -16q-6 -1 -12 0q-13 2 -28 16q-6 6 -6 16q-1 6 -1 17l-4 -6q-14 -18 -27 -27q-18 -14 -33 5q-4 5 -6 17q0 21 7 38q6 13 3 23q-3 9 2 19q11 35 42 53l6 3q15 5 24 2t21 -15
q4 -4 4 -12q0 -2 0.5 -4t0.5 -4q7 12 17 23q14 14 19 17q4 4 9 6q7 3 15.5 -1t10.5 -11q1 -4 0 -8q-2 -9 -12 -25q-17 -25 -43 -48q-2 -2 -25 -19q-4 -3 -8 -11q-6 -18 -4 -41q1 -14 15 -11q16 2 24 5q12 5 29 15q31 19 79 58zM159 401q-25 -28 -43 -67q-1 -3 0 -4q2 -1 5 2
q22 20 32 32q16 20 22 32q5 8 5 15q0 5 -4 3q-7 -3 -17 -13zM69 301q6 -3 11 4q11 19 18 37q9 29 9 43q0 3 -2 11q0 6 -6 6q-11 0 -21 -7q-28 -17 -40 -50q-2 -5 2 -8q5 -4 1 -10q-1 -1 -1 -2q-5 -11 6 -16q11 -7 23 -8zM34 258q22 12 34 33l-5 3q-11 4 -25 14q-3 3 -5 -1
q-9 -23 -6 -45q0 -6 7 -4z" />
    <glyph glyph-name="Racute" unicode="&#x154;" horiz-adv-x="752" 
d="M147 -46q-13 3 -13 18q-2 29 1 53q8 68 35 155l21 66q4 10 -2 20q-7 10 -13 25q-2 4 -4 12q0 6 5 8t15 4q14 2 23 4q2 3 3.5 6.5t3 8t2.5 6.5l76 197q44 111 77 207l9 30q0 2 -1 2q0 1 -2 1l-14 -9q-26 -18 -76 -60q-79 -70 -141 -151q-76 -100 -116 -200
q-16 -39 -22 -76q-3 -23 0 -46q2 -27 21 -43q-9 0 -19 12q-7 7 -11 22q-8 25 -4 62q6 39 28 96q48 114 133 215q90 106 192 179l18 11q11 8 22 -1l5 -3q5 -4 5 -11q0 -8 -3 -17q-5 -18 -22 -65q-49 -137 -91 -239l-45 -116q0 -1 -1.5 -4t-2 -4.5t0.5 -3.5q2 -3 13 0
q20 4 49 11q9 1 14 11q15 28 47 82q52 88 111 151q41 44 81 71q14 10 36 22q13 5 16 7q25 8 42 -7q11 -9 11 -21q0 -15 -2 -22q-5 -27 -22 -57q-21 -37 -51 -69q-78 -83 -157 -130q-51 -29 -97 -43q-10 -3 -14 -11q-35 -68 -59 -123q-4 -8 2 -15q22 -19 32 -27
q40 -29 88 -46q37 -13 86 -5q28 4 69 22q48 23 93 59q56 42 103 99q20 24 30 37q3 1 4 4q7 7 15 1q4 -4 1 -6l-1 -2q-55 -71 -97 -110q-68 -61 -137 -95q-43 -23 -97 -26q-35 0 -71 14q-67 28 -118 73q-7 5 -8 5q-2 -1 -7 -12q-35 -82 -55 -135q-14 -36 -22 -54
q-1 -3 -4.5 -10l-5.5 -11q-3 -5 -11 -3zM541 727l-5 5q-4 2 -2 7q16 26 33 47q5 2 6 1q5 -5 5 -7l-1 -2l-1 -2l-13 -21q-1 -1 -7 -10.5t-8 -15.5q-2 -4 -7 -2zM336 346q8 3 10 4q34 13 78 39q78 48 147 122q38 42 57 83q14 28 17 57q0 9 -1 14q-1 7 -9 7q-5 0 -7 -1
q-12 -1 -25 -8q-29 -15 -51 -31q-52 -39 -102 -102q-54 -66 -115 -177q-2 -5 -2 -6q1 0 3 -1zM243 203q1 -2 3 0l3 6q18 41 49 102q3 9 3 11q-3 -1 -6 -1q-22 -4 -56 -11q-6 -1 -9 -7q-5 -16 -17 -48q-3 -7 2 -15q17 -25 24 -34q2 -2 4 -3zM198 271q2 3 10 25q2 6 1 7.5
t-8 0.5q-6 0 -9 -1q-8 -3 -5 -10q3 -12 11 -22zM149 -23q4 1 6 6q2 4 10 22l40 99l33 79q4 8 -2 15q-14 14 -24 30l-3 3q-2 2 -4 -1l-3 -8q-23 -75 -31 -104q-15 -55 -21 -113q-1 -9 -1 -28z" />
    <glyph glyph-name="racute" unicode="&#x155;" horiz-adv-x="189" 
d="M128 439l-5 5q-4 2 -2 7q16 26 33 47q5 2 6 1q5 -5 5 -7q-1 0 -1 -2t-1 -2l-13 -21q-1 -1 -7 -10.5t-8 -15.5q-2 -4 -7 -2zM57 165q-3 2 -5 9q-3 15 0 31q5 32 21 79l24 65q3 5 2 9q-2 0 -13 -6q-41 -19 -46 -21q-16 -7 -23 -3q-4 3 -8 4q-11 6 -9 18l3 18q11 44 31 81
q13 20 19 25q9 7 19 1q11 -7 11 -22q-1 -6 -5 -23q-6 -21 -21 -54q-1 -3 -5 -10t-5 -11v-4h4q26 12 38 18l13 6q4 3 9 0q9 -5 10 -6.5t-1 -14.5q-5 -15 -17 -45q-22 -60 -29 -102q-2 -8 -4 -26q0 -3 2 -4q1 -1 5 1l13 13q8 8 53 64l55 70l6 7q5 5 11 2q6 -2 2 -8
q-2 -4 -4 -6l-90 -116q-9 -11 -25 -29q-1 -1 -3.5 -4t-3.5 -4q-11 -9 -15 -9t-19 7zM18 340q2 -1 8 1q4 1 6 8q13 27 23 52q4 10 10 30q5 15 5 26v5q0 3 -2 4l-5 -2q-9 -9 -15 -21q-25 -46 -32 -96q0 -6 2 -7z" />
    <glyph glyph-name="uni0156" unicode="&#x156;" horiz-adv-x="752" 
d="M147 -46q-13 3 -13 18q-2 29 1 53q8 68 35 155l21 66q4 10 -2 20q-7 10 -13 25q-2 4 -4 12q0 6 5 8t15 4q14 2 23 4q2 3 3.5 6.5t3 8t2.5 6.5l76 197q44 111 77 207l9 30q0 2 -1 2q0 1 -2 1l-14 -9q-26 -18 -76 -60q-79 -70 -141 -151q-76 -100 -116 -200
q-16 -39 -22 -76q-3 -23 0 -46q2 -27 21 -43q-9 0 -19 12q-7 7 -11 22q-8 25 -4 62q6 39 28 96q48 114 133 215q90 106 192 179l18 11q11 8 22 -1l5 -3q5 -4 5 -11q0 -8 -3 -17q-5 -18 -22 -65q-49 -137 -91 -239l-45 -116q0 -1 -1.5 -4t-2 -4.5t0.5 -3.5q2 -3 13 0
q20 4 49 11q9 1 14 11q15 28 47 82q52 88 111 151q41 44 81 71q14 10 36 22q13 5 16 7q25 8 42 -7q11 -9 11 -21q0 -15 -2 -22q-5 -27 -22 -57q-21 -37 -51 -69q-78 -83 -157 -130q-51 -29 -97 -43q-10 -3 -14 -11q-35 -68 -59 -123q-4 -8 2 -15q22 -19 32 -27
q40 -29 88 -46q37 -13 86 -5q28 4 69 22q48 23 93 59q56 42 103 99q20 24 30 37q3 1 4 4q7 7 15 1q4 -4 1 -6l-1 -2q-55 -71 -97 -110q-68 -61 -137 -95q-43 -23 -97 -26q-35 0 -71 14q-67 28 -118 73q-7 5 -8 5q-2 -1 -7 -12q-35 -82 -55 -135q-14 -36 -22 -54
q-1 -3 -4.5 -10l-5.5 -11q-3 -5 -11 -3zM336 346q8 3 10 4q34 13 78 39q78 48 147 122q38 42 57 83q14 28 17 57q0 9 -1 14q-1 7 -9 7q-5 0 -7 -1q-12 -1 -25 -8q-29 -15 -51 -31q-52 -39 -102 -102q-54 -66 -115 -177q-2 -5 -2 -6q1 0 3 -1zM243 203q1 -2 3 0l3 6
q18 41 49 102q3 9 3 11q-3 -1 -6 -1q-22 -4 -56 -11q-6 -1 -9 -7q-5 -16 -17 -48q-3 -7 2 -15q17 -25 24 -34q2 -2 4 -3zM198 271q2 3 10 25q2 6 1 7.5t-8 0.5q-6 0 -9 -1q-8 -3 -5 -10q3 -12 11 -22zM149 -23q4 1 6 6q2 4 10 22l40 99l33 79q4 8 -2 15q-14 14 -24 30l-3 3
q-2 2 -4 -1l-3 -8q-23 -75 -31 -104q-15 -55 -21 -113q-1 -9 -1 -28zM368 -54q-9 2 -7 10l1 4q2 3 4 9t3 11q3 8 -7 11q-4 1 -1 8q5 18 19 24q2 2 6.5 -1t4.5 -7q0 -5 -1 -8l-15 -53q0 -1 -0.5 -3.5t-1.5 -3.5q-2 -2 -5 -1z" />
    <glyph glyph-name="uni0157" unicode="&#x157;" horiz-adv-x="189" 
d="M57 165q-3 2 -5 9q-3 15 0 31q5 32 21 79l24 65q3 5 2 9q-2 0 -13 -6q-41 -19 -46 -21q-16 -7 -23 -3q-4 3 -8 4q-11 6 -9 18l3 18q11 44 31 81q13 20 19 25q9 7 19 1q11 -7 11 -22q-1 -6 -5 -23q-6 -21 -21 -54q-1 -3 -5 -10t-5 -11v-4h4q26 12 38 18l13 6q4 3 9 0
q9 -5 10 -6.5t-1 -14.5q-5 -15 -17 -45q-22 -60 -29 -102q-2 -8 -4 -26q0 -3 2 -4q1 -1 5 1l13 13q8 8 53 64l55 70l6 7q5 5 11 2q6 -2 2 -8q-2 -4 -4 -6l-90 -116q-9 -11 -25 -29q-1 -1 -3.5 -4t-3.5 -4q-11 -9 -15 -9t-19 7zM18 340q2 -1 8 1q4 1 6 8q13 27 23 52
q4 10 10 30q5 15 5 26v5q0 3 -2 4l-5 -2q-9 -9 -15 -21q-25 -46 -32 -96q0 -6 2 -7zM48 56q-9 2 -7 10l1 4q2 3 4 9t3 11q3 8 -7 11q-4 1 -1 8q5 18 19 24q2 2 6.5 -1t4.5 -7q0 -5 -1 -8l-15 -53q0 -1 -0.5 -3.5t-1.5 -3.5q-2 -2 -5 -1z" />
    <glyph glyph-name="Rcaron" unicode="&#x158;" horiz-adv-x="752" 
d="M147 -46q-13 3 -13 18q-2 29 1 53q8 68 35 155l21 66q4 10 -2 20q-7 10 -13 25q-2 4 -4 12q0 6 5 8t15 4q14 2 23 4q2 3 3.5 6.5t3 8t2.5 6.5l76 197q44 111 77 207l9 30q0 2 -1 2q0 1 -2 1l-14 -9q-26 -18 -76 -60q-79 -70 -141 -151q-76 -100 -116 -200
q-16 -39 -22 -76q-3 -23 0 -46q2 -27 21 -43q-9 0 -19 12q-7 7 -11 22q-8 25 -4 62q6 39 28 96q48 114 133 215q90 106 192 179l18 11q11 8 22 -1l5 -3q5 -4 5 -11q0 -8 -3 -17q-5 -18 -22 -65q-49 -137 -91 -239l-45 -116q0 -1 -1.5 -4t-2 -4.5t0.5 -3.5q2 -3 13 0
q20 4 49 11q9 1 14 11q15 28 47 82q52 88 111 151q41 44 81 71q14 10 36 22q13 5 16 7q25 8 42 -7q11 -9 11 -21q0 -15 -2 -22q-5 -27 -22 -57q-21 -37 -51 -69q-78 -83 -157 -130q-51 -29 -97 -43q-10 -3 -14 -11q-35 -68 -59 -123q-4 -8 2 -15q22 -19 32 -27
q40 -29 88 -46q37 -13 86 -5q28 4 69 22q48 23 93 59q56 42 103 99q20 24 30 37q3 1 4 4q7 7 15 1q4 -4 1 -6l-1 -2q-55 -71 -97 -110q-68 -61 -137 -95q-43 -23 -97 -26q-35 0 -71 14q-67 28 -118 73q-7 5 -8 5q-2 -1 -7 -12q-35 -82 -55 -135q-14 -36 -22 -54
q-1 -3 -4.5 -10l-5.5 -11q-3 -5 -11 -3zM521 721l-5 5q-20 42 -25 56q0 4 1 5h4q4 -1 8 -7l15 -28l3 -6q2 -2 3 0l6 6l9.5 13t9.5 14l6 6q2 2 5 -1q2 -2 2 -5q0 -1 -2 -5q-6 -9 -18 -25q-14 -22 -14 -24l-3 -3q-1 -3 -5 -1zM336 346q8 3 10 4q34 13 78 39q78 48 147 122
q38 42 57 83q14 28 17 57q0 9 -1 14q-1 7 -9 7q-5 0 -7 -1q-12 -1 -25 -8q-29 -15 -51 -31q-52 -39 -102 -102q-54 -66 -115 -177q-2 -5 -2 -6q1 0 3 -1zM243 203q1 -2 3 0l3 6q18 41 49 102q3 9 3 11q-3 -1 -6 -1q-22 -4 -56 -11q-6 -1 -9 -7q-5 -16 -17 -48q-3 -7 2 -15
q17 -25 24 -34q2 -2 4 -3zM198 271q2 3 10 25q2 6 1 7.5t-8 0.5q-6 0 -9 -1q-8 -3 -5 -10q3 -12 11 -22zM149 -23q4 1 6 6q2 4 10 22l40 99l33 79q4 8 -2 15q-14 14 -24 30l-3 3q-2 2 -4 -1l-3 -8q-23 -75 -31 -104q-15 -55 -21 -113q-1 -9 -1 -28z" />
    </font>
</defs>
</svg>
